G04 EAGLE Gerber RS-274X export*
G75*
%MOMM*%
%FSLAX34Y34*%
%LPD*%
%INSilkscreen Bottom*%
%IPPOS*%
%AMOC8*
5,1,8,0,0,1.08239X$1,22.5*%
G01*
%ADD10C,0.076200*%
%ADD11C,0.127000*%
%ADD12R,11.684000X0.127000*%
%ADD13R,6.096000X0.127000*%
%ADD14R,0.762000X0.127000*%
%ADD15R,0.635000X0.127000*%
%ADD16R,5.969000X0.127000*%
%ADD17R,5.842000X0.127000*%
%ADD18R,5.715000X0.127000*%
%ADD19R,0.889000X0.127000*%
%ADD20R,5.588000X0.127000*%
%ADD21R,5.461000X0.127000*%
%ADD22R,5.334000X0.127000*%
%ADD23R,5.207000X0.127000*%
%ADD24R,5.080000X0.127000*%
%ADD25R,4.953000X0.127000*%
%ADD26R,4.826000X0.127000*%
%ADD27R,4.699000X0.127000*%
%ADD28R,4.572000X0.127000*%
%ADD29R,1.016000X0.127000*%
%ADD30R,4.445000X0.127000*%
%ADD31R,4.318000X0.127000*%
%ADD32R,4.191000X0.127000*%
%ADD33R,4.064000X0.127000*%
%ADD34R,3.937000X0.127000*%
%ADD35R,1.143000X0.127000*%
%ADD36R,3.810000X0.127000*%
%ADD37R,3.683000X0.127000*%
%ADD38R,1.270000X0.127000*%
%ADD39R,3.556000X0.127000*%
%ADD40R,1.397000X0.127000*%
%ADD41R,3.429000X0.127000*%
%ADD42R,1.651000X0.127000*%
%ADD43R,3.302000X0.127000*%
%ADD44R,3.048000X0.127000*%
%ADD45R,2.921000X0.127000*%
%ADD46R,3.175000X0.127000*%
%ADD47R,2.794000X0.127000*%
%ADD48R,2.667000X0.127000*%
%ADD49R,2.540000X0.127000*%
%ADD50R,2.413000X0.127000*%
%ADD51R,2.286000X0.127000*%
%ADD52R,2.159000X0.127000*%
%ADD53R,2.032000X0.127000*%
%ADD54R,1.778000X0.127000*%
%ADD55C,0.152400*%
%ADD56C,0.381000*%


D10*
X-43674Y115076D02*
X-45720Y116713D01*
X-45720Y109347D01*
X-43674Y109347D02*
X-47766Y109347D01*
X45311Y86769D02*
X47766Y86769D01*
X45311Y86769D02*
X45231Y86767D01*
X45151Y86761D01*
X45071Y86751D01*
X44992Y86738D01*
X44913Y86720D01*
X44836Y86699D01*
X44760Y86673D01*
X44685Y86644D01*
X44611Y86612D01*
X44539Y86576D01*
X44469Y86536D01*
X44402Y86493D01*
X44336Y86447D01*
X44273Y86397D01*
X44212Y86345D01*
X44153Y86290D01*
X44098Y86231D01*
X44046Y86171D01*
X43996Y86107D01*
X43950Y86041D01*
X43907Y85974D01*
X43867Y85904D01*
X43831Y85832D01*
X43799Y85758D01*
X43770Y85684D01*
X43744Y85607D01*
X43723Y85530D01*
X43705Y85451D01*
X43692Y85372D01*
X43682Y85292D01*
X43676Y85212D01*
X43674Y85132D01*
X43674Y84723D01*
X43676Y84634D01*
X43682Y84545D01*
X43692Y84456D01*
X43705Y84368D01*
X43722Y84280D01*
X43744Y84193D01*
X43769Y84108D01*
X43797Y84023D01*
X43830Y83940D01*
X43866Y83858D01*
X43905Y83778D01*
X43948Y83700D01*
X43994Y83624D01*
X44044Y83549D01*
X44097Y83477D01*
X44153Y83408D01*
X44212Y83341D01*
X44273Y83276D01*
X44338Y83215D01*
X44405Y83156D01*
X44474Y83100D01*
X44546Y83047D01*
X44621Y82997D01*
X44697Y82951D01*
X44775Y82908D01*
X44855Y82869D01*
X44937Y82833D01*
X45020Y82800D01*
X45105Y82772D01*
X45190Y82747D01*
X45277Y82725D01*
X45365Y82708D01*
X45453Y82695D01*
X45542Y82685D01*
X45631Y82679D01*
X45720Y82677D01*
X45809Y82679D01*
X45898Y82685D01*
X45987Y82695D01*
X46075Y82708D01*
X46163Y82725D01*
X46250Y82747D01*
X46335Y82772D01*
X46420Y82800D01*
X46503Y82833D01*
X46585Y82869D01*
X46665Y82908D01*
X46743Y82951D01*
X46819Y82997D01*
X46894Y83047D01*
X46966Y83100D01*
X47035Y83156D01*
X47102Y83215D01*
X47167Y83276D01*
X47228Y83341D01*
X47287Y83408D01*
X47343Y83477D01*
X47396Y83549D01*
X47446Y83624D01*
X47492Y83700D01*
X47535Y83778D01*
X47574Y83858D01*
X47610Y83940D01*
X47643Y84023D01*
X47671Y84108D01*
X47696Y84193D01*
X47718Y84280D01*
X47735Y84368D01*
X47748Y84456D01*
X47758Y84545D01*
X47764Y84634D01*
X47766Y84723D01*
X47766Y86769D01*
X47764Y86881D01*
X47758Y86992D01*
X47749Y87104D01*
X47736Y87215D01*
X47718Y87325D01*
X47698Y87435D01*
X47673Y87544D01*
X47645Y87652D01*
X47613Y87759D01*
X47577Y87865D01*
X47538Y87970D01*
X47495Y88073D01*
X47449Y88175D01*
X47399Y88275D01*
X47346Y88374D01*
X47289Y88470D01*
X47230Y88565D01*
X47167Y88657D01*
X47101Y88747D01*
X47032Y88835D01*
X46960Y88921D01*
X46885Y89004D01*
X46807Y89084D01*
X46727Y89162D01*
X46644Y89237D01*
X46558Y89309D01*
X46470Y89378D01*
X46380Y89444D01*
X46288Y89507D01*
X46193Y89566D01*
X46097Y89623D01*
X45998Y89676D01*
X45898Y89726D01*
X45796Y89772D01*
X45693Y89815D01*
X45588Y89854D01*
X45482Y89890D01*
X45375Y89922D01*
X45267Y89950D01*
X45158Y89975D01*
X45048Y89995D01*
X44938Y90013D01*
X44827Y90026D01*
X44715Y90035D01*
X44604Y90041D01*
X44492Y90043D01*
D11*
X12715Y67945D02*
X12715Y59055D01*
X13703Y59055D02*
X11727Y59055D01*
X11727Y67945D02*
X13703Y67945D01*
X5928Y59055D02*
X3952Y59055D01*
X5928Y59055D02*
X6014Y59057D01*
X6100Y59063D01*
X6186Y59072D01*
X6271Y59085D01*
X6356Y59102D01*
X6439Y59122D01*
X6522Y59146D01*
X6604Y59174D01*
X6684Y59205D01*
X6763Y59240D01*
X6840Y59278D01*
X6916Y59320D01*
X6990Y59364D01*
X7061Y59412D01*
X7131Y59463D01*
X7198Y59517D01*
X7263Y59574D01*
X7325Y59634D01*
X7385Y59696D01*
X7442Y59761D01*
X7496Y59828D01*
X7547Y59898D01*
X7595Y59969D01*
X7639Y60043D01*
X7681Y60119D01*
X7719Y60196D01*
X7754Y60275D01*
X7785Y60355D01*
X7813Y60437D01*
X7837Y60520D01*
X7857Y60603D01*
X7874Y60688D01*
X7887Y60773D01*
X7896Y60859D01*
X7902Y60945D01*
X7904Y61031D01*
X7903Y61031D02*
X7903Y65969D01*
X7901Y66058D01*
X7895Y66146D01*
X7885Y66234D01*
X7871Y66322D01*
X7853Y66409D01*
X7832Y66495D01*
X7806Y66580D01*
X7777Y66663D01*
X7744Y66746D01*
X7707Y66826D01*
X7667Y66905D01*
X7623Y66982D01*
X7576Y67058D01*
X7526Y67130D01*
X7472Y67201D01*
X7415Y67269D01*
X7355Y67335D01*
X7293Y67397D01*
X7227Y67457D01*
X7159Y67514D01*
X7088Y67568D01*
X7016Y67618D01*
X6941Y67665D01*
X6863Y67709D01*
X6784Y67749D01*
X6704Y67786D01*
X6621Y67819D01*
X6538Y67848D01*
X6453Y67874D01*
X6367Y67895D01*
X6280Y67913D01*
X6192Y67927D01*
X6104Y67937D01*
X6016Y67943D01*
X5927Y67945D01*
X5928Y67945D02*
X3952Y67945D01*
X-4385Y61031D02*
X-4383Y60945D01*
X-4377Y60859D01*
X-4368Y60773D01*
X-4355Y60688D01*
X-4338Y60603D01*
X-4318Y60520D01*
X-4294Y60437D01*
X-4266Y60355D01*
X-4235Y60275D01*
X-4200Y60196D01*
X-4162Y60119D01*
X-4120Y60043D01*
X-4076Y59969D01*
X-4028Y59898D01*
X-3977Y59828D01*
X-3923Y59761D01*
X-3866Y59696D01*
X-3806Y59634D01*
X-3744Y59574D01*
X-3679Y59517D01*
X-3612Y59463D01*
X-3542Y59412D01*
X-3471Y59364D01*
X-3397Y59320D01*
X-3321Y59278D01*
X-3244Y59240D01*
X-3165Y59205D01*
X-3085Y59174D01*
X-3003Y59146D01*
X-2920Y59122D01*
X-2837Y59102D01*
X-2752Y59085D01*
X-2667Y59072D01*
X-2581Y59063D01*
X-2495Y59057D01*
X-2409Y59055D01*
X-2410Y59055D02*
X-2283Y59057D01*
X-2157Y59063D01*
X-2030Y59072D01*
X-1904Y59086D01*
X-1779Y59103D01*
X-1654Y59124D01*
X-1530Y59149D01*
X-1406Y59178D01*
X-1284Y59210D01*
X-1162Y59246D01*
X-1042Y59286D01*
X-923Y59329D01*
X-805Y59376D01*
X-689Y59427D01*
X-574Y59481D01*
X-461Y59538D01*
X-350Y59599D01*
X-241Y59663D01*
X-134Y59731D01*
X-28Y59801D01*
X75Y59875D01*
X175Y59952D01*
X273Y60032D01*
X369Y60115D01*
X462Y60201D01*
X553Y60290D01*
X307Y65969D02*
X305Y66055D01*
X299Y66141D01*
X290Y66227D01*
X277Y66312D01*
X260Y66397D01*
X240Y66480D01*
X216Y66563D01*
X188Y66645D01*
X157Y66725D01*
X122Y66804D01*
X84Y66881D01*
X42Y66957D01*
X-2Y67031D01*
X-50Y67102D01*
X-101Y67172D01*
X-155Y67239D01*
X-212Y67304D01*
X-272Y67366D01*
X-334Y67426D01*
X-399Y67483D01*
X-466Y67537D01*
X-536Y67588D01*
X-607Y67636D01*
X-681Y67680D01*
X-757Y67722D01*
X-834Y67760D01*
X-913Y67795D01*
X-993Y67826D01*
X-1075Y67854D01*
X-1158Y67878D01*
X-1241Y67898D01*
X-1326Y67915D01*
X-1411Y67928D01*
X-1497Y67937D01*
X-1583Y67943D01*
X-1669Y67945D01*
X-1788Y67943D01*
X-1907Y67937D01*
X-2026Y67928D01*
X-2144Y67914D01*
X-2262Y67897D01*
X-2380Y67876D01*
X-2496Y67851D01*
X-2612Y67823D01*
X-2727Y67791D01*
X-2840Y67755D01*
X-2953Y67715D01*
X-3064Y67672D01*
X-3174Y67626D01*
X-3282Y67576D01*
X-3388Y67522D01*
X-3493Y67465D01*
X-3595Y67405D01*
X-3696Y67341D01*
X-3795Y67274D01*
X-3891Y67204D01*
X-682Y64241D02*
X-608Y64286D01*
X-536Y64335D01*
X-466Y64387D01*
X-399Y64442D01*
X-334Y64500D01*
X-272Y64560D01*
X-213Y64623D01*
X-156Y64689D01*
X-102Y64757D01*
X-51Y64827D01*
X-3Y64899D01*
X42Y64974D01*
X83Y65050D01*
X121Y65128D01*
X156Y65208D01*
X187Y65289D01*
X215Y65371D01*
X239Y65454D01*
X259Y65538D01*
X276Y65624D01*
X289Y65709D01*
X298Y65796D01*
X304Y65882D01*
X306Y65969D01*
X-3397Y62759D02*
X-3471Y62714D01*
X-3543Y62665D01*
X-3613Y62613D01*
X-3680Y62558D01*
X-3745Y62500D01*
X-3807Y62440D01*
X-3867Y62377D01*
X-3923Y62311D01*
X-3977Y62243D01*
X-4028Y62173D01*
X-4076Y62101D01*
X-4121Y62026D01*
X-4162Y61950D01*
X-4200Y61872D01*
X-4235Y61792D01*
X-4266Y61711D01*
X-4294Y61629D01*
X-4318Y61546D01*
X-4338Y61462D01*
X-4355Y61376D01*
X-4368Y61291D01*
X-4377Y61204D01*
X-4383Y61118D01*
X-4385Y61031D01*
X-3397Y62759D02*
X-681Y64241D01*
X-8764Y67945D02*
X-8764Y59055D01*
X-8764Y67945D02*
X-11233Y67945D01*
X-11331Y67943D01*
X-11429Y67937D01*
X-11527Y67927D01*
X-11624Y67914D01*
X-11721Y67896D01*
X-11817Y67875D01*
X-11911Y67850D01*
X-12005Y67821D01*
X-12098Y67789D01*
X-12189Y67752D01*
X-12279Y67713D01*
X-12367Y67669D01*
X-12453Y67622D01*
X-12538Y67572D01*
X-12620Y67519D01*
X-12700Y67462D01*
X-12778Y67402D01*
X-12853Y67339D01*
X-12926Y67273D01*
X-12996Y67204D01*
X-13063Y67133D01*
X-13128Y67059D01*
X-13189Y66982D01*
X-13248Y66903D01*
X-13303Y66822D01*
X-13355Y66739D01*
X-13403Y66653D01*
X-13448Y66566D01*
X-13490Y66477D01*
X-13528Y66387D01*
X-13562Y66295D01*
X-13593Y66202D01*
X-13620Y66107D01*
X-13643Y66012D01*
X-13663Y65915D01*
X-13678Y65819D01*
X-13690Y65721D01*
X-13698Y65623D01*
X-13702Y65525D01*
X-13702Y65427D01*
X-13698Y65329D01*
X-13690Y65231D01*
X-13678Y65133D01*
X-13663Y65037D01*
X-13643Y64940D01*
X-13620Y64845D01*
X-13593Y64750D01*
X-13562Y64657D01*
X-13528Y64565D01*
X-13490Y64475D01*
X-13448Y64386D01*
X-13403Y64299D01*
X-13355Y64213D01*
X-13303Y64130D01*
X-13248Y64049D01*
X-13189Y63970D01*
X-13128Y63893D01*
X-13063Y63819D01*
X-12996Y63748D01*
X-12926Y63679D01*
X-12853Y63613D01*
X-12778Y63550D01*
X-12700Y63490D01*
X-12620Y63433D01*
X-12538Y63380D01*
X-12453Y63330D01*
X-12367Y63283D01*
X-12279Y63239D01*
X-12189Y63200D01*
X-12098Y63163D01*
X-12005Y63131D01*
X-11911Y63102D01*
X-11817Y63077D01*
X-11721Y63056D01*
X-11624Y63038D01*
X-11527Y63025D01*
X-11429Y63015D01*
X-11331Y63009D01*
X-11233Y63007D01*
X-11233Y63006D02*
X-8764Y63006D01*
X90768Y42545D02*
X90768Y33655D01*
X90768Y42545D02*
X88298Y42545D01*
X88200Y42543D01*
X88102Y42537D01*
X88004Y42527D01*
X87907Y42514D01*
X87810Y42496D01*
X87714Y42475D01*
X87620Y42450D01*
X87526Y42421D01*
X87433Y42389D01*
X87342Y42352D01*
X87252Y42313D01*
X87164Y42269D01*
X87078Y42222D01*
X86993Y42172D01*
X86911Y42119D01*
X86831Y42062D01*
X86753Y42002D01*
X86678Y41939D01*
X86605Y41873D01*
X86535Y41804D01*
X86468Y41733D01*
X86403Y41659D01*
X86342Y41582D01*
X86283Y41503D01*
X86228Y41422D01*
X86176Y41339D01*
X86128Y41253D01*
X86083Y41166D01*
X86041Y41077D01*
X86003Y40987D01*
X85969Y40895D01*
X85938Y40802D01*
X85911Y40707D01*
X85888Y40612D01*
X85868Y40515D01*
X85853Y40419D01*
X85841Y40321D01*
X85833Y40223D01*
X85829Y40125D01*
X85829Y40027D01*
X85833Y39929D01*
X85841Y39831D01*
X85853Y39733D01*
X85868Y39637D01*
X85888Y39540D01*
X85911Y39445D01*
X85938Y39350D01*
X85969Y39257D01*
X86003Y39165D01*
X86041Y39075D01*
X86083Y38986D01*
X86128Y38899D01*
X86176Y38813D01*
X86228Y38730D01*
X86283Y38649D01*
X86342Y38570D01*
X86403Y38493D01*
X86468Y38419D01*
X86535Y38348D01*
X86605Y38279D01*
X86678Y38213D01*
X86753Y38150D01*
X86831Y38090D01*
X86911Y38033D01*
X86993Y37980D01*
X87078Y37930D01*
X87164Y37883D01*
X87252Y37839D01*
X87342Y37800D01*
X87433Y37763D01*
X87526Y37731D01*
X87620Y37702D01*
X87714Y37677D01*
X87810Y37656D01*
X87907Y37638D01*
X88004Y37625D01*
X88102Y37615D01*
X88200Y37609D01*
X88298Y37607D01*
X88298Y37606D02*
X90768Y37606D01*
X82364Y42545D02*
X80389Y33655D01*
X78413Y39582D01*
X76438Y33655D01*
X74462Y42545D01*
X70099Y42545D02*
X70099Y33655D01*
X67136Y37606D02*
X70099Y42545D01*
X67136Y37606D02*
X64172Y42545D01*
X64172Y33655D01*
X121279Y16581D02*
X121281Y16495D01*
X121287Y16409D01*
X121296Y16323D01*
X121309Y16238D01*
X121326Y16153D01*
X121346Y16070D01*
X121370Y15987D01*
X121398Y15905D01*
X121429Y15825D01*
X121464Y15746D01*
X121502Y15669D01*
X121544Y15593D01*
X121588Y15519D01*
X121636Y15448D01*
X121687Y15378D01*
X121741Y15311D01*
X121798Y15246D01*
X121858Y15184D01*
X121920Y15124D01*
X121985Y15067D01*
X122052Y15013D01*
X122122Y14962D01*
X122193Y14914D01*
X122267Y14870D01*
X122343Y14828D01*
X122420Y14790D01*
X122499Y14755D01*
X122579Y14724D01*
X122661Y14696D01*
X122744Y14672D01*
X122827Y14652D01*
X122912Y14635D01*
X122997Y14622D01*
X123083Y14613D01*
X123169Y14607D01*
X123255Y14605D01*
X123382Y14607D01*
X123508Y14613D01*
X123635Y14622D01*
X123761Y14636D01*
X123886Y14653D01*
X124011Y14674D01*
X124135Y14699D01*
X124259Y14728D01*
X124381Y14760D01*
X124503Y14796D01*
X124623Y14836D01*
X124742Y14879D01*
X124860Y14926D01*
X124976Y14977D01*
X125091Y15031D01*
X125204Y15088D01*
X125315Y15149D01*
X125424Y15213D01*
X125531Y15281D01*
X125637Y15351D01*
X125740Y15425D01*
X125840Y15502D01*
X125938Y15582D01*
X126034Y15665D01*
X126128Y15751D01*
X126218Y15840D01*
X125972Y21519D02*
X125970Y21605D01*
X125964Y21691D01*
X125955Y21777D01*
X125942Y21862D01*
X125925Y21947D01*
X125905Y22030D01*
X125881Y22113D01*
X125853Y22195D01*
X125822Y22275D01*
X125787Y22354D01*
X125749Y22431D01*
X125707Y22507D01*
X125663Y22581D01*
X125615Y22652D01*
X125564Y22722D01*
X125510Y22789D01*
X125453Y22854D01*
X125393Y22916D01*
X125331Y22976D01*
X125266Y23033D01*
X125199Y23087D01*
X125129Y23138D01*
X125058Y23186D01*
X124984Y23230D01*
X124908Y23272D01*
X124831Y23310D01*
X124752Y23345D01*
X124672Y23376D01*
X124590Y23404D01*
X124507Y23428D01*
X124424Y23448D01*
X124339Y23465D01*
X124254Y23478D01*
X124168Y23487D01*
X124082Y23493D01*
X123996Y23495D01*
X123877Y23493D01*
X123758Y23487D01*
X123639Y23478D01*
X123521Y23464D01*
X123403Y23447D01*
X123285Y23426D01*
X123169Y23401D01*
X123053Y23373D01*
X122938Y23341D01*
X122825Y23305D01*
X122712Y23265D01*
X122601Y23222D01*
X122491Y23176D01*
X122383Y23126D01*
X122277Y23072D01*
X122172Y23015D01*
X122070Y22955D01*
X121969Y22891D01*
X121870Y22824D01*
X121774Y22754D01*
X124983Y19791D02*
X125057Y19836D01*
X125129Y19885D01*
X125199Y19937D01*
X125266Y19992D01*
X125331Y20050D01*
X125393Y20110D01*
X125453Y20173D01*
X125509Y20239D01*
X125563Y20307D01*
X125614Y20377D01*
X125662Y20449D01*
X125707Y20524D01*
X125748Y20600D01*
X125786Y20678D01*
X125821Y20758D01*
X125852Y20839D01*
X125880Y20921D01*
X125904Y21004D01*
X125924Y21088D01*
X125941Y21174D01*
X125954Y21259D01*
X125963Y21346D01*
X125969Y21432D01*
X125971Y21519D01*
X122268Y18309D02*
X122194Y18264D01*
X122122Y18215D01*
X122052Y18163D01*
X121985Y18108D01*
X121920Y18050D01*
X121858Y17990D01*
X121799Y17927D01*
X121742Y17861D01*
X121688Y17793D01*
X121637Y17723D01*
X121589Y17651D01*
X121544Y17576D01*
X121503Y17500D01*
X121465Y17422D01*
X121430Y17342D01*
X121399Y17261D01*
X121371Y17179D01*
X121347Y17096D01*
X121327Y17012D01*
X121310Y16926D01*
X121297Y16841D01*
X121288Y16754D01*
X121282Y16668D01*
X121280Y16581D01*
X122267Y18309D02*
X124983Y19791D01*
X117074Y23495D02*
X117074Y14605D01*
X112135Y14605D02*
X117074Y23495D01*
X112135Y23495D02*
X112135Y14605D01*
X107321Y14605D02*
X107321Y23495D01*
X104851Y23495D01*
X104754Y23493D01*
X104657Y23487D01*
X104561Y23478D01*
X104465Y23465D01*
X104369Y23448D01*
X104275Y23427D01*
X104181Y23402D01*
X104088Y23374D01*
X103996Y23342D01*
X103906Y23307D01*
X103817Y23268D01*
X103730Y23226D01*
X103645Y23180D01*
X103561Y23131D01*
X103479Y23079D01*
X103400Y23023D01*
X103322Y22965D01*
X103248Y22903D01*
X103175Y22839D01*
X103105Y22772D01*
X103038Y22702D01*
X102974Y22629D01*
X102912Y22555D01*
X102854Y22477D01*
X102798Y22398D01*
X102746Y22316D01*
X102697Y22232D01*
X102651Y22147D01*
X102609Y22060D01*
X102570Y21971D01*
X102535Y21881D01*
X102503Y21789D01*
X102475Y21696D01*
X102450Y21602D01*
X102429Y21508D01*
X102412Y21412D01*
X102399Y21316D01*
X102390Y21220D01*
X102384Y21123D01*
X102382Y21026D01*
X102382Y17074D01*
X102384Y16977D01*
X102390Y16880D01*
X102399Y16784D01*
X102412Y16688D01*
X102429Y16592D01*
X102450Y16498D01*
X102475Y16404D01*
X102503Y16311D01*
X102535Y16219D01*
X102570Y16129D01*
X102609Y16040D01*
X102651Y15953D01*
X102697Y15868D01*
X102746Y15784D01*
X102798Y15702D01*
X102854Y15623D01*
X102912Y15545D01*
X102974Y15471D01*
X103038Y15398D01*
X103105Y15328D01*
X103175Y15261D01*
X103248Y15197D01*
X103322Y15135D01*
X103400Y15077D01*
X103479Y15021D01*
X103561Y14969D01*
X103645Y14920D01*
X103730Y14874D01*
X103817Y14832D01*
X103906Y14793D01*
X103996Y14758D01*
X104088Y14726D01*
X104181Y14698D01*
X104275Y14673D01*
X104369Y14652D01*
X104465Y14635D01*
X104561Y14622D01*
X104657Y14613D01*
X104754Y14607D01*
X104851Y14605D01*
X107321Y14605D01*
D12*
X563245Y-101600D03*
X563245Y-100330D03*
X563245Y-99060D03*
X563245Y-97790D03*
X563245Y-96520D03*
X563245Y-95250D03*
D13*
X535305Y-93980D03*
D14*
X617855Y-93980D03*
D13*
X535305Y-92710D03*
D14*
X617855Y-92710D03*
D13*
X535305Y-91440D03*
D14*
X617855Y-91440D03*
D13*
X535305Y-90170D03*
D14*
X617855Y-90170D03*
D13*
X535305Y-88900D03*
D14*
X617855Y-88900D03*
D13*
X535305Y-87630D03*
D15*
X617220Y-87630D03*
D16*
X535940Y-86360D03*
D15*
X617220Y-86360D03*
D16*
X535940Y-85090D03*
D14*
X616585Y-85090D03*
D16*
X535940Y-83820D03*
D14*
X616585Y-83820D03*
D16*
X535940Y-82550D03*
D14*
X616585Y-82550D03*
D16*
X535940Y-81280D03*
D14*
X616585Y-81280D03*
D16*
X535940Y-80010D03*
D14*
X616585Y-80010D03*
D16*
X535940Y-78740D03*
D14*
X615315Y-78740D03*
D17*
X536575Y-77470D03*
D14*
X615315Y-77470D03*
D17*
X536575Y-76200D03*
D14*
X615315Y-76200D03*
D17*
X536575Y-74930D03*
D14*
X615315Y-74930D03*
D18*
X537210Y-73660D03*
D14*
X614045Y-73660D03*
D18*
X537210Y-72390D03*
D14*
X614045Y-72390D03*
D18*
X537210Y-71120D03*
D14*
X614045Y-71120D03*
D18*
X537210Y-69850D03*
D19*
X613410Y-69850D03*
D20*
X537845Y-68580D03*
D14*
X612775Y-68580D03*
D20*
X537845Y-67310D03*
D14*
X612775Y-67310D03*
D20*
X537845Y-66040D03*
D14*
X611505Y-66040D03*
D21*
X538480Y-64770D03*
D14*
X611505Y-64770D03*
D21*
X538480Y-63500D03*
D19*
X610870Y-63500D03*
D22*
X539115Y-62230D03*
D14*
X610235Y-62230D03*
D22*
X539115Y-60960D03*
D19*
X609600Y-60960D03*
D23*
X539750Y-59690D03*
D19*
X608330Y-59690D03*
D23*
X539750Y-58420D03*
D19*
X608330Y-58420D03*
D24*
X540385Y-57150D03*
D19*
X607060Y-57150D03*
D24*
X540385Y-55880D03*
D19*
X607060Y-55880D03*
D25*
X541020Y-54610D03*
D19*
X605790Y-54610D03*
D26*
X541655Y-53340D03*
D19*
X604520Y-53340D03*
D26*
X541655Y-52070D03*
D19*
X604520Y-52070D03*
D27*
X542290Y-50800D03*
D19*
X603250Y-50800D03*
D28*
X542925Y-49530D03*
D19*
X601980Y-49530D03*
D28*
X542925Y-48260D03*
D29*
X601345Y-48260D03*
D30*
X543560Y-46990D03*
D29*
X600075Y-46990D03*
D31*
X544195Y-45720D03*
D29*
X598805Y-45720D03*
D32*
X544830Y-44450D03*
D29*
X597535Y-44450D03*
D33*
X545465Y-43180D03*
D29*
X596265Y-43180D03*
D34*
X546100Y-41910D03*
D35*
X594360Y-41910D03*
D36*
X546735Y-40640D03*
D35*
X593090Y-40640D03*
D37*
X547370Y-39370D03*
D38*
X591185Y-39370D03*
D39*
X548005Y-38100D03*
D40*
X589280Y-38100D03*
D41*
X548640Y-36830D03*
D42*
X586740Y-36830D03*
D43*
X549275Y-35560D03*
D42*
X584200Y-35560D03*
D44*
X550545Y-34290D03*
D40*
X584200Y-34290D03*
D45*
X551180Y-33020D03*
D29*
X583565Y-33020D03*
D44*
X550545Y-31750D03*
D35*
X585470Y-31750D03*
D44*
X550545Y-30480D03*
D19*
X586740Y-30480D03*
D46*
X549910Y-29210D03*
D19*
X588010Y-29210D03*
D43*
X549275Y-27940D03*
D19*
X588010Y-27940D03*
D43*
X549275Y-26670D03*
D19*
X589280Y-26670D03*
D41*
X548640Y-25400D03*
D19*
X590550Y-25400D03*
D41*
X548640Y-24130D03*
D19*
X590550Y-24130D03*
D41*
X548640Y-22860D03*
D14*
X591185Y-22860D03*
D39*
X548005Y-21590D03*
D14*
X592455Y-21590D03*
D39*
X548005Y-20320D03*
D14*
X592455Y-20320D03*
D37*
X547370Y-19050D03*
D14*
X592455Y-19050D03*
D37*
X547370Y-17780D03*
D14*
X593725Y-17780D03*
D37*
X547370Y-16510D03*
D14*
X593725Y-16510D03*
D37*
X547370Y-15240D03*
D14*
X593725Y-15240D03*
D37*
X547370Y-13970D03*
D14*
X593725Y-13970D03*
D37*
X547370Y-12700D03*
D14*
X593725Y-12700D03*
D37*
X547370Y-11430D03*
X547370Y-10160D03*
X547370Y-8890D03*
D14*
X593725Y-8890D03*
D37*
X547370Y-7620D03*
D14*
X593725Y-7620D03*
D37*
X547370Y-6350D03*
D14*
X593725Y-6350D03*
D37*
X547370Y-5080D03*
D14*
X593725Y-5080D03*
D37*
X547370Y-3810D03*
D14*
X593725Y-3810D03*
D37*
X547370Y-2540D03*
D19*
X593090Y-2540D03*
D39*
X548005Y-1270D03*
D14*
X592455Y-1270D03*
D39*
X548005Y0D03*
D14*
X592455Y0D03*
D39*
X548005Y1270D03*
D19*
X591820Y1270D03*
D41*
X548640Y2540D03*
D14*
X591185Y2540D03*
D41*
X548640Y3810D03*
D19*
X590550Y3810D03*
D43*
X549275Y5080D03*
D14*
X589915Y5080D03*
D43*
X549275Y6350D03*
D19*
X589280Y6350D03*
D46*
X549910Y7620D03*
D19*
X588010Y7620D03*
D46*
X549910Y8890D03*
D19*
X586740Y8890D03*
D44*
X550545Y10160D03*
D29*
X586105Y10160D03*
D45*
X551180Y11430D03*
D29*
X584835Y11430D03*
D47*
X551815Y12700D03*
D35*
X582930Y12700D03*
D48*
X552450Y13970D03*
D38*
X581025Y13970D03*
D49*
X553085Y15240D03*
D38*
X579755Y15240D03*
D50*
X553720Y16510D03*
D29*
X579755Y16510D03*
D51*
X554355Y17780D03*
D19*
X579120Y17780D03*
D51*
X554355Y19050D03*
D14*
X579755Y19050D03*
D50*
X553720Y20320D03*
D14*
X581025Y20320D03*
D50*
X553720Y21590D03*
D14*
X581025Y21590D03*
D49*
X553085Y22860D03*
D19*
X581660Y22860D03*
D49*
X553085Y24130D03*
D14*
X582295Y24130D03*
D49*
X553085Y25400D03*
D14*
X582295Y25400D03*
D49*
X553085Y26670D03*
D14*
X582295Y26670D03*
D49*
X553085Y27940D03*
D14*
X582295Y27940D03*
D49*
X553085Y29210D03*
D14*
X582295Y29210D03*
D49*
X553085Y30480D03*
D14*
X582295Y30480D03*
D49*
X553085Y31750D03*
D14*
X582295Y31750D03*
D49*
X553085Y33020D03*
D14*
X581025Y33020D03*
D50*
X553720Y34290D03*
D14*
X581025Y34290D03*
D50*
X553720Y35560D03*
D19*
X580390Y35560D03*
D51*
X554355Y36830D03*
D14*
X579755Y36830D03*
D51*
X554355Y38100D03*
D19*
X579120Y38100D03*
D52*
X554990Y39370D03*
D19*
X577850Y39370D03*
D53*
X555625Y40640D03*
D29*
X575945Y40640D03*
D53*
X555625Y41910D03*
D35*
X575310Y41910D03*
D43*
X563245Y43180D03*
D44*
X563245Y44450D03*
D47*
X563245Y45720D03*
D51*
X563245Y46990D03*
D54*
X563245Y48260D03*
D29*
X563245Y49530D03*
D55*
X481655Y-89662D02*
X481551Y-89664D01*
X481446Y-89670D01*
X481342Y-89680D01*
X481239Y-89693D01*
X481136Y-89711D01*
X481033Y-89732D01*
X480932Y-89757D01*
X480831Y-89786D01*
X480732Y-89819D01*
X480634Y-89855D01*
X480538Y-89895D01*
X480443Y-89939D01*
X480349Y-89986D01*
X480258Y-90036D01*
X480169Y-90090D01*
X480081Y-90147D01*
X479996Y-90208D01*
X479913Y-90272D01*
X479833Y-90338D01*
X479755Y-90408D01*
X479679Y-90480D01*
X479607Y-90556D01*
X479537Y-90634D01*
X479471Y-90714D01*
X479407Y-90797D01*
X479346Y-90882D01*
X479289Y-90970D01*
X479235Y-91059D01*
X479185Y-91150D01*
X479138Y-91244D01*
X479094Y-91339D01*
X479054Y-91435D01*
X479018Y-91533D01*
X478985Y-91632D01*
X478956Y-91733D01*
X478931Y-91834D01*
X478910Y-91937D01*
X478892Y-92040D01*
X478879Y-92143D01*
X478869Y-92247D01*
X478863Y-92352D01*
X478861Y-92456D01*
X481655Y-89662D02*
X481774Y-89664D01*
X481892Y-89670D01*
X482011Y-89680D01*
X482129Y-89693D01*
X482246Y-89711D01*
X482363Y-89733D01*
X482479Y-89758D01*
X482594Y-89787D01*
X482709Y-89820D01*
X482822Y-89857D01*
X482933Y-89897D01*
X483044Y-89941D01*
X483152Y-89989D01*
X483259Y-90040D01*
X483365Y-90095D01*
X483468Y-90154D01*
X483570Y-90215D01*
X483669Y-90280D01*
X483767Y-90349D01*
X483861Y-90420D01*
X483954Y-90495D01*
X484044Y-90572D01*
X484131Y-90653D01*
X484216Y-90736D01*
X484298Y-90822D01*
X484377Y-90911D01*
X484453Y-91002D01*
X484526Y-91096D01*
X484595Y-91192D01*
X484662Y-91291D01*
X484725Y-91391D01*
X484785Y-91494D01*
X484842Y-91598D01*
X484894Y-91705D01*
X484944Y-91813D01*
X484990Y-91922D01*
X485032Y-92034D01*
X485070Y-92146D01*
X479792Y-94629D02*
X479717Y-94555D01*
X479645Y-94478D01*
X479575Y-94399D01*
X479508Y-94317D01*
X479444Y-94233D01*
X479383Y-94147D01*
X479325Y-94059D01*
X479270Y-93968D01*
X479218Y-93876D01*
X479170Y-93782D01*
X479125Y-93687D01*
X479083Y-93589D01*
X479045Y-93491D01*
X479010Y-93391D01*
X478979Y-93290D01*
X478952Y-93188D01*
X478928Y-93085D01*
X478907Y-92982D01*
X478891Y-92877D01*
X478878Y-92772D01*
X478868Y-92667D01*
X478863Y-92562D01*
X478861Y-92456D01*
X479792Y-94629D02*
X485069Y-100838D01*
X478861Y-100838D01*
X473640Y-95250D02*
X473637Y-95030D01*
X473630Y-94810D01*
X473616Y-94591D01*
X473598Y-94372D01*
X473574Y-94153D01*
X473546Y-93935D01*
X473512Y-93718D01*
X473473Y-93502D01*
X473428Y-93286D01*
X473379Y-93072D01*
X473324Y-92859D01*
X473265Y-92647D01*
X473200Y-92437D01*
X473130Y-92229D01*
X473056Y-92022D01*
X472976Y-91817D01*
X472892Y-91614D01*
X472803Y-91413D01*
X472709Y-91214D01*
X472708Y-91214D02*
X472675Y-91125D01*
X472639Y-91037D01*
X472599Y-90951D01*
X472556Y-90866D01*
X472509Y-90784D01*
X472458Y-90703D01*
X472405Y-90625D01*
X472348Y-90549D01*
X472288Y-90475D01*
X472225Y-90404D01*
X472160Y-90335D01*
X472091Y-90269D01*
X472020Y-90207D01*
X471946Y-90147D01*
X471870Y-90090D01*
X471792Y-90036D01*
X471711Y-89986D01*
X471629Y-89939D01*
X471544Y-89896D01*
X471458Y-89856D01*
X471370Y-89819D01*
X471281Y-89787D01*
X471191Y-89758D01*
X471099Y-89732D01*
X471007Y-89711D01*
X470913Y-89693D01*
X470819Y-89680D01*
X470725Y-89670D01*
X470630Y-89664D01*
X470535Y-89662D01*
X470440Y-89664D01*
X470345Y-89670D01*
X470251Y-89680D01*
X470157Y-89693D01*
X470063Y-89711D01*
X469971Y-89732D01*
X469879Y-89758D01*
X469789Y-89787D01*
X469700Y-89819D01*
X469612Y-89856D01*
X469526Y-89896D01*
X469441Y-89939D01*
X469359Y-89986D01*
X469278Y-90036D01*
X469200Y-90090D01*
X469124Y-90147D01*
X469050Y-90207D01*
X468979Y-90269D01*
X468910Y-90335D01*
X468845Y-90404D01*
X468782Y-90475D01*
X468722Y-90549D01*
X468665Y-90625D01*
X468612Y-90703D01*
X468561Y-90784D01*
X468514Y-90866D01*
X468471Y-90951D01*
X468431Y-91037D01*
X468395Y-91125D01*
X468362Y-91214D01*
X468361Y-91214D02*
X468267Y-91413D01*
X468178Y-91614D01*
X468094Y-91817D01*
X468014Y-92022D01*
X467940Y-92229D01*
X467870Y-92437D01*
X467805Y-92647D01*
X467746Y-92859D01*
X467691Y-93072D01*
X467642Y-93286D01*
X467597Y-93502D01*
X467558Y-93718D01*
X467524Y-93935D01*
X467496Y-94153D01*
X467472Y-94372D01*
X467454Y-94591D01*
X467440Y-94810D01*
X467433Y-95030D01*
X467430Y-95250D01*
X473639Y-95250D02*
X473636Y-95470D01*
X473629Y-95690D01*
X473615Y-95909D01*
X473597Y-96128D01*
X473573Y-96347D01*
X473545Y-96565D01*
X473511Y-96782D01*
X473472Y-96998D01*
X473427Y-97214D01*
X473378Y-97428D01*
X473323Y-97641D01*
X473264Y-97853D01*
X473199Y-98063D01*
X473129Y-98271D01*
X473055Y-98478D01*
X472975Y-98683D01*
X472891Y-98886D01*
X472802Y-99087D01*
X472708Y-99286D01*
X472675Y-99375D01*
X472639Y-99463D01*
X472599Y-99549D01*
X472556Y-99634D01*
X472509Y-99716D01*
X472458Y-99797D01*
X472405Y-99875D01*
X472348Y-99951D01*
X472288Y-100025D01*
X472225Y-100096D01*
X472160Y-100165D01*
X472091Y-100231D01*
X472020Y-100293D01*
X471946Y-100353D01*
X471870Y-100410D01*
X471792Y-100464D01*
X471711Y-100514D01*
X471629Y-100561D01*
X471544Y-100604D01*
X471458Y-100644D01*
X471370Y-100681D01*
X471281Y-100713D01*
X471191Y-100742D01*
X471099Y-100768D01*
X471007Y-100789D01*
X470913Y-100807D01*
X470819Y-100820D01*
X470725Y-100830D01*
X470630Y-100836D01*
X470535Y-100838D01*
X468361Y-99286D02*
X468267Y-99087D01*
X468178Y-98886D01*
X468094Y-98683D01*
X468014Y-98478D01*
X467940Y-98271D01*
X467870Y-98063D01*
X467805Y-97853D01*
X467746Y-97641D01*
X467691Y-97428D01*
X467642Y-97214D01*
X467597Y-96998D01*
X467558Y-96782D01*
X467524Y-96565D01*
X467496Y-96347D01*
X467472Y-96128D01*
X467454Y-95909D01*
X467440Y-95690D01*
X467433Y-95470D01*
X467430Y-95250D01*
X468362Y-99286D02*
X468395Y-99375D01*
X468431Y-99463D01*
X468471Y-99549D01*
X468514Y-99634D01*
X468561Y-99716D01*
X468612Y-99797D01*
X468665Y-99875D01*
X468722Y-99951D01*
X468782Y-100025D01*
X468845Y-100096D01*
X468910Y-100165D01*
X468979Y-100231D01*
X469050Y-100293D01*
X469124Y-100353D01*
X469200Y-100410D01*
X469278Y-100464D01*
X469359Y-100514D01*
X469441Y-100561D01*
X469526Y-100604D01*
X469612Y-100644D01*
X469700Y-100681D01*
X469789Y-100713D01*
X469879Y-100742D01*
X469971Y-100768D01*
X470063Y-100789D01*
X470157Y-100807D01*
X470251Y-100820D01*
X470345Y-100830D01*
X470440Y-100836D01*
X470535Y-100838D01*
X473019Y-98354D02*
X468051Y-92146D01*
X485070Y-76200D02*
X485067Y-75980D01*
X485060Y-75760D01*
X485046Y-75541D01*
X485028Y-75322D01*
X485004Y-75103D01*
X484976Y-74885D01*
X484942Y-74668D01*
X484903Y-74452D01*
X484858Y-74236D01*
X484809Y-74022D01*
X484754Y-73809D01*
X484695Y-73597D01*
X484630Y-73387D01*
X484560Y-73179D01*
X484486Y-72972D01*
X484406Y-72767D01*
X484322Y-72564D01*
X484233Y-72363D01*
X484139Y-72164D01*
X484138Y-72164D02*
X484105Y-72075D01*
X484069Y-71987D01*
X484029Y-71901D01*
X483986Y-71816D01*
X483939Y-71734D01*
X483888Y-71653D01*
X483835Y-71575D01*
X483778Y-71499D01*
X483718Y-71425D01*
X483655Y-71354D01*
X483590Y-71285D01*
X483521Y-71219D01*
X483450Y-71157D01*
X483376Y-71097D01*
X483300Y-71040D01*
X483222Y-70986D01*
X483141Y-70936D01*
X483059Y-70889D01*
X482974Y-70846D01*
X482888Y-70806D01*
X482800Y-70769D01*
X482711Y-70737D01*
X482621Y-70708D01*
X482529Y-70682D01*
X482437Y-70661D01*
X482343Y-70643D01*
X482249Y-70630D01*
X482155Y-70620D01*
X482060Y-70614D01*
X481965Y-70612D01*
X481870Y-70614D01*
X481775Y-70620D01*
X481681Y-70630D01*
X481587Y-70643D01*
X481493Y-70661D01*
X481401Y-70682D01*
X481309Y-70708D01*
X481219Y-70737D01*
X481130Y-70769D01*
X481042Y-70806D01*
X480956Y-70846D01*
X480871Y-70889D01*
X480789Y-70936D01*
X480708Y-70986D01*
X480630Y-71040D01*
X480554Y-71097D01*
X480480Y-71157D01*
X480409Y-71219D01*
X480340Y-71285D01*
X480275Y-71354D01*
X480212Y-71425D01*
X480152Y-71499D01*
X480095Y-71575D01*
X480042Y-71653D01*
X479991Y-71734D01*
X479944Y-71816D01*
X479901Y-71901D01*
X479861Y-71987D01*
X479825Y-72075D01*
X479792Y-72164D01*
X479791Y-72164D02*
X479697Y-72363D01*
X479608Y-72564D01*
X479524Y-72767D01*
X479444Y-72972D01*
X479370Y-73179D01*
X479300Y-73387D01*
X479235Y-73597D01*
X479176Y-73809D01*
X479121Y-74022D01*
X479072Y-74236D01*
X479027Y-74452D01*
X478988Y-74668D01*
X478954Y-74885D01*
X478926Y-75103D01*
X478902Y-75322D01*
X478884Y-75541D01*
X478870Y-75760D01*
X478863Y-75980D01*
X478860Y-76200D01*
X485069Y-76200D02*
X485066Y-76420D01*
X485059Y-76640D01*
X485045Y-76859D01*
X485027Y-77078D01*
X485003Y-77297D01*
X484975Y-77515D01*
X484941Y-77732D01*
X484902Y-77948D01*
X484857Y-78164D01*
X484808Y-78378D01*
X484753Y-78591D01*
X484694Y-78803D01*
X484629Y-79013D01*
X484559Y-79221D01*
X484485Y-79428D01*
X484405Y-79633D01*
X484321Y-79836D01*
X484232Y-80037D01*
X484138Y-80236D01*
X484105Y-80325D01*
X484069Y-80413D01*
X484029Y-80499D01*
X483986Y-80584D01*
X483939Y-80666D01*
X483888Y-80747D01*
X483835Y-80825D01*
X483778Y-80901D01*
X483718Y-80975D01*
X483655Y-81046D01*
X483590Y-81115D01*
X483521Y-81181D01*
X483450Y-81243D01*
X483376Y-81303D01*
X483300Y-81360D01*
X483222Y-81414D01*
X483141Y-81464D01*
X483059Y-81511D01*
X482974Y-81554D01*
X482888Y-81594D01*
X482800Y-81631D01*
X482711Y-81663D01*
X482621Y-81692D01*
X482529Y-81718D01*
X482437Y-81739D01*
X482343Y-81757D01*
X482249Y-81770D01*
X482155Y-81780D01*
X482060Y-81786D01*
X481965Y-81788D01*
X479791Y-80236D02*
X479697Y-80037D01*
X479608Y-79836D01*
X479524Y-79633D01*
X479444Y-79428D01*
X479370Y-79221D01*
X479300Y-79013D01*
X479235Y-78803D01*
X479176Y-78591D01*
X479121Y-78378D01*
X479072Y-78164D01*
X479027Y-77948D01*
X478988Y-77732D01*
X478954Y-77515D01*
X478926Y-77297D01*
X478902Y-77078D01*
X478884Y-76859D01*
X478870Y-76640D01*
X478863Y-76420D01*
X478860Y-76200D01*
X479792Y-80236D02*
X479825Y-80325D01*
X479861Y-80413D01*
X479901Y-80499D01*
X479944Y-80584D01*
X479991Y-80666D01*
X480042Y-80747D01*
X480095Y-80825D01*
X480152Y-80901D01*
X480212Y-80975D01*
X480275Y-81046D01*
X480340Y-81115D01*
X480409Y-81181D01*
X480480Y-81243D01*
X480554Y-81303D01*
X480630Y-81360D01*
X480708Y-81414D01*
X480789Y-81464D01*
X480871Y-81511D01*
X480956Y-81554D01*
X481042Y-81594D01*
X481130Y-81631D01*
X481219Y-81663D01*
X481309Y-81692D01*
X481401Y-81718D01*
X481493Y-81739D01*
X481587Y-81757D01*
X481681Y-81770D01*
X481775Y-81780D01*
X481870Y-81786D01*
X481965Y-81788D01*
X484449Y-79304D02*
X479481Y-73096D01*
X473639Y-71854D02*
X473639Y-70612D01*
X467431Y-70612D01*
X470535Y-81788D01*
X478861Y-54356D02*
X478863Y-54252D01*
X478869Y-54147D01*
X478879Y-54043D01*
X478892Y-53940D01*
X478910Y-53837D01*
X478931Y-53734D01*
X478956Y-53633D01*
X478985Y-53532D01*
X479018Y-53433D01*
X479054Y-53335D01*
X479094Y-53239D01*
X479138Y-53144D01*
X479185Y-53050D01*
X479235Y-52959D01*
X479289Y-52870D01*
X479346Y-52782D01*
X479407Y-52697D01*
X479471Y-52614D01*
X479537Y-52534D01*
X479607Y-52456D01*
X479679Y-52380D01*
X479755Y-52308D01*
X479833Y-52238D01*
X479913Y-52172D01*
X479996Y-52108D01*
X480081Y-52047D01*
X480169Y-51990D01*
X480258Y-51936D01*
X480349Y-51886D01*
X480443Y-51839D01*
X480538Y-51795D01*
X480634Y-51755D01*
X480732Y-51719D01*
X480831Y-51686D01*
X480932Y-51657D01*
X481033Y-51632D01*
X481136Y-51611D01*
X481239Y-51593D01*
X481342Y-51580D01*
X481446Y-51570D01*
X481551Y-51564D01*
X481655Y-51562D01*
X481774Y-51564D01*
X481892Y-51570D01*
X482011Y-51580D01*
X482129Y-51593D01*
X482246Y-51611D01*
X482363Y-51633D01*
X482479Y-51658D01*
X482594Y-51687D01*
X482709Y-51720D01*
X482822Y-51757D01*
X482933Y-51797D01*
X483044Y-51841D01*
X483152Y-51889D01*
X483259Y-51940D01*
X483365Y-51995D01*
X483468Y-52054D01*
X483570Y-52115D01*
X483669Y-52180D01*
X483767Y-52249D01*
X483861Y-52320D01*
X483954Y-52395D01*
X484044Y-52472D01*
X484131Y-52553D01*
X484216Y-52636D01*
X484298Y-52722D01*
X484377Y-52811D01*
X484453Y-52902D01*
X484526Y-52996D01*
X484595Y-53092D01*
X484662Y-53191D01*
X484725Y-53291D01*
X484785Y-53394D01*
X484842Y-53498D01*
X484894Y-53605D01*
X484944Y-53713D01*
X484990Y-53822D01*
X485032Y-53934D01*
X485070Y-54046D01*
X479792Y-56529D02*
X479717Y-56455D01*
X479645Y-56378D01*
X479575Y-56299D01*
X479508Y-56217D01*
X479444Y-56133D01*
X479383Y-56047D01*
X479325Y-55959D01*
X479270Y-55868D01*
X479218Y-55776D01*
X479170Y-55682D01*
X479125Y-55587D01*
X479083Y-55489D01*
X479045Y-55391D01*
X479010Y-55291D01*
X478979Y-55190D01*
X478952Y-55088D01*
X478928Y-54985D01*
X478907Y-54882D01*
X478891Y-54777D01*
X478878Y-54672D01*
X478868Y-54567D01*
X478863Y-54462D01*
X478861Y-54356D01*
X479792Y-56529D02*
X485069Y-62738D01*
X478861Y-62738D01*
X473639Y-52804D02*
X473639Y-51562D01*
X467431Y-51562D01*
X470535Y-62738D01*
X481655Y-30988D02*
X485380Y-19812D01*
X477929Y-19812D02*
X481655Y-30988D01*
X473329Y-22296D02*
X470225Y-19812D01*
X470225Y-30988D01*
X473329Y-30988D02*
X467120Y-30988D01*
D14*
X593725Y-11430D03*
X593725Y-10160D03*
D11*
X42421Y-37465D02*
X40445Y-37465D01*
X42421Y-37465D02*
X42507Y-37463D01*
X42593Y-37457D01*
X42679Y-37448D01*
X42764Y-37435D01*
X42849Y-37418D01*
X42932Y-37398D01*
X43015Y-37374D01*
X43097Y-37346D01*
X43177Y-37315D01*
X43256Y-37280D01*
X43333Y-37242D01*
X43409Y-37200D01*
X43483Y-37156D01*
X43554Y-37108D01*
X43624Y-37057D01*
X43691Y-37003D01*
X43756Y-36946D01*
X43818Y-36886D01*
X43878Y-36824D01*
X43935Y-36759D01*
X43989Y-36692D01*
X44040Y-36622D01*
X44088Y-36551D01*
X44132Y-36477D01*
X44174Y-36401D01*
X44212Y-36324D01*
X44247Y-36245D01*
X44278Y-36165D01*
X44306Y-36083D01*
X44330Y-36000D01*
X44350Y-35917D01*
X44367Y-35832D01*
X44380Y-35747D01*
X44389Y-35661D01*
X44395Y-35575D01*
X44397Y-35489D01*
X44396Y-35489D02*
X44396Y-30551D01*
X44397Y-30551D02*
X44395Y-30462D01*
X44389Y-30374D01*
X44379Y-30286D01*
X44365Y-30198D01*
X44347Y-30111D01*
X44326Y-30025D01*
X44300Y-29940D01*
X44271Y-29857D01*
X44238Y-29774D01*
X44201Y-29694D01*
X44161Y-29615D01*
X44117Y-29538D01*
X44070Y-29462D01*
X44020Y-29390D01*
X43966Y-29319D01*
X43909Y-29251D01*
X43849Y-29185D01*
X43787Y-29123D01*
X43721Y-29063D01*
X43653Y-29006D01*
X43582Y-28952D01*
X43510Y-28902D01*
X43435Y-28855D01*
X43357Y-28811D01*
X43278Y-28771D01*
X43198Y-28734D01*
X43115Y-28701D01*
X43032Y-28672D01*
X42947Y-28646D01*
X42861Y-28625D01*
X42774Y-28607D01*
X42686Y-28593D01*
X42598Y-28583D01*
X42510Y-28577D01*
X42421Y-28575D01*
X40445Y-28575D01*
X36742Y-30551D02*
X34273Y-28575D01*
X34273Y-37465D01*
X36742Y-37465D02*
X31804Y-37465D01*
X46795Y4445D02*
X48771Y4445D01*
X48857Y4447D01*
X48943Y4453D01*
X49029Y4462D01*
X49114Y4475D01*
X49199Y4492D01*
X49282Y4512D01*
X49365Y4536D01*
X49447Y4564D01*
X49527Y4595D01*
X49606Y4630D01*
X49683Y4668D01*
X49759Y4710D01*
X49833Y4754D01*
X49904Y4802D01*
X49974Y4853D01*
X50041Y4907D01*
X50106Y4964D01*
X50168Y5024D01*
X50228Y5086D01*
X50285Y5151D01*
X50339Y5218D01*
X50390Y5288D01*
X50438Y5359D01*
X50482Y5433D01*
X50524Y5509D01*
X50562Y5586D01*
X50597Y5665D01*
X50628Y5745D01*
X50656Y5827D01*
X50680Y5910D01*
X50700Y5993D01*
X50717Y6078D01*
X50730Y6163D01*
X50739Y6249D01*
X50745Y6335D01*
X50747Y6421D01*
X50746Y6421D02*
X50746Y11359D01*
X50747Y11359D02*
X50745Y11448D01*
X50739Y11536D01*
X50729Y11624D01*
X50715Y11712D01*
X50697Y11799D01*
X50676Y11885D01*
X50650Y11970D01*
X50621Y12053D01*
X50588Y12136D01*
X50551Y12216D01*
X50511Y12295D01*
X50467Y12372D01*
X50420Y12448D01*
X50370Y12520D01*
X50316Y12591D01*
X50259Y12659D01*
X50199Y12725D01*
X50137Y12787D01*
X50071Y12847D01*
X50003Y12904D01*
X49932Y12958D01*
X49860Y13008D01*
X49785Y13055D01*
X49707Y13099D01*
X49628Y13139D01*
X49548Y13176D01*
X49465Y13209D01*
X49382Y13238D01*
X49297Y13264D01*
X49211Y13285D01*
X49124Y13303D01*
X49036Y13317D01*
X48948Y13327D01*
X48860Y13333D01*
X48771Y13335D01*
X46795Y13335D01*
X40376Y13336D02*
X40284Y13334D01*
X40192Y13328D01*
X40101Y13319D01*
X40010Y13306D01*
X39920Y13289D01*
X39830Y13268D01*
X39742Y13244D01*
X39654Y13216D01*
X39568Y13184D01*
X39483Y13149D01*
X39400Y13110D01*
X39318Y13068D01*
X39238Y13023D01*
X39160Y12974D01*
X39084Y12922D01*
X39011Y12867D01*
X38939Y12809D01*
X38870Y12749D01*
X38804Y12685D01*
X38740Y12619D01*
X38680Y12550D01*
X38622Y12478D01*
X38567Y12405D01*
X38515Y12329D01*
X38466Y12251D01*
X38421Y12171D01*
X38379Y12089D01*
X38340Y12006D01*
X38305Y11921D01*
X38273Y11835D01*
X38245Y11747D01*
X38221Y11659D01*
X38200Y11569D01*
X38183Y11479D01*
X38170Y11388D01*
X38161Y11297D01*
X38155Y11205D01*
X38153Y11113D01*
X40376Y13335D02*
X40482Y13333D01*
X40587Y13327D01*
X40692Y13317D01*
X40797Y13304D01*
X40901Y13286D01*
X41004Y13265D01*
X41107Y13240D01*
X41209Y13211D01*
X41309Y13178D01*
X41408Y13142D01*
X41506Y13102D01*
X41602Y13058D01*
X41697Y13011D01*
X41789Y12961D01*
X41880Y12907D01*
X41969Y12849D01*
X42055Y12789D01*
X42139Y12725D01*
X42221Y12659D01*
X42301Y12589D01*
X42377Y12516D01*
X42451Y12441D01*
X42522Y12363D01*
X42590Y12282D01*
X42656Y12199D01*
X42718Y12113D01*
X42776Y12026D01*
X42832Y11936D01*
X42884Y11844D01*
X42933Y11750D01*
X42978Y11655D01*
X43020Y11558D01*
X43058Y11459D01*
X43092Y11360D01*
X38895Y9384D02*
X38826Y9453D01*
X38760Y9523D01*
X38697Y9597D01*
X38638Y9673D01*
X38581Y9751D01*
X38527Y9831D01*
X38477Y9914D01*
X38430Y9998D01*
X38387Y10085D01*
X38347Y10173D01*
X38311Y10262D01*
X38278Y10353D01*
X38249Y10445D01*
X38224Y10539D01*
X38203Y10633D01*
X38185Y10728D01*
X38172Y10824D01*
X38162Y10920D01*
X38156Y11016D01*
X38154Y11113D01*
X38894Y9384D02*
X43092Y4445D01*
X38154Y4445D01*
X38100Y73660D02*
X-38100Y73660D01*
X38100Y73660D02*
X38100Y124460D01*
X-38100Y124460D01*
X-38100Y73660D01*
X7874Y38354D02*
X7874Y30226D01*
X7874Y38354D02*
X2286Y38354D01*
X-20574Y38354D02*
X-20574Y30226D01*
X-20574Y38354D02*
X-14986Y38354D01*
X-29845Y33726D02*
X-29845Y29774D01*
X-29845Y33726D02*
X-29847Y33824D01*
X-29853Y33922D01*
X-29863Y34020D01*
X-29876Y34117D01*
X-29894Y34214D01*
X-29915Y34310D01*
X-29940Y34404D01*
X-29969Y34498D01*
X-30001Y34591D01*
X-30038Y34682D01*
X-30077Y34772D01*
X-30121Y34860D01*
X-30168Y34946D01*
X-30218Y35031D01*
X-30271Y35113D01*
X-30328Y35193D01*
X-30388Y35271D01*
X-30451Y35346D01*
X-30517Y35419D01*
X-30586Y35489D01*
X-30657Y35556D01*
X-30731Y35621D01*
X-30808Y35682D01*
X-30887Y35741D01*
X-30968Y35796D01*
X-31051Y35848D01*
X-31137Y35896D01*
X-31224Y35941D01*
X-31313Y35983D01*
X-31403Y36021D01*
X-31495Y36055D01*
X-31588Y36086D01*
X-31683Y36113D01*
X-31778Y36136D01*
X-31875Y36156D01*
X-31971Y36171D01*
X-32069Y36183D01*
X-32167Y36191D01*
X-32265Y36195D01*
X-32363Y36195D01*
X-32461Y36191D01*
X-32559Y36183D01*
X-32657Y36171D01*
X-32753Y36156D01*
X-32850Y36136D01*
X-32945Y36113D01*
X-33040Y36086D01*
X-33133Y36055D01*
X-33225Y36021D01*
X-33315Y35983D01*
X-33404Y35941D01*
X-33491Y35896D01*
X-33577Y35848D01*
X-33660Y35796D01*
X-33741Y35741D01*
X-33820Y35682D01*
X-33897Y35621D01*
X-33971Y35556D01*
X-34042Y35489D01*
X-34111Y35419D01*
X-34177Y35346D01*
X-34240Y35271D01*
X-34300Y35193D01*
X-34357Y35113D01*
X-34410Y35031D01*
X-34460Y34946D01*
X-34507Y34860D01*
X-34551Y34772D01*
X-34590Y34682D01*
X-34627Y34591D01*
X-34659Y34498D01*
X-34688Y34404D01*
X-34713Y34310D01*
X-34734Y34214D01*
X-34752Y34117D01*
X-34765Y34020D01*
X-34775Y33922D01*
X-34781Y33824D01*
X-34783Y33726D01*
X-34784Y33726D02*
X-34784Y29774D01*
X-34783Y29774D02*
X-34781Y29676D01*
X-34775Y29578D01*
X-34765Y29480D01*
X-34752Y29383D01*
X-34734Y29286D01*
X-34713Y29190D01*
X-34688Y29096D01*
X-34659Y29002D01*
X-34627Y28909D01*
X-34590Y28818D01*
X-34551Y28728D01*
X-34507Y28640D01*
X-34460Y28554D01*
X-34410Y28469D01*
X-34357Y28387D01*
X-34300Y28307D01*
X-34240Y28229D01*
X-34177Y28154D01*
X-34111Y28081D01*
X-34042Y28011D01*
X-33971Y27944D01*
X-33897Y27879D01*
X-33820Y27818D01*
X-33741Y27759D01*
X-33660Y27704D01*
X-33577Y27652D01*
X-33491Y27604D01*
X-33404Y27559D01*
X-33315Y27517D01*
X-33225Y27479D01*
X-33133Y27445D01*
X-33040Y27414D01*
X-32945Y27387D01*
X-32850Y27364D01*
X-32753Y27344D01*
X-32657Y27329D01*
X-32559Y27317D01*
X-32461Y27309D01*
X-32363Y27305D01*
X-32265Y27305D01*
X-32167Y27309D01*
X-32069Y27317D01*
X-31971Y27329D01*
X-31875Y27344D01*
X-31778Y27364D01*
X-31683Y27387D01*
X-31588Y27414D01*
X-31495Y27445D01*
X-31403Y27479D01*
X-31313Y27517D01*
X-31224Y27559D01*
X-31137Y27604D01*
X-31051Y27652D01*
X-30968Y27704D01*
X-30887Y27759D01*
X-30808Y27818D01*
X-30731Y27879D01*
X-30657Y27944D01*
X-30586Y28011D01*
X-30517Y28081D01*
X-30451Y28154D01*
X-30388Y28229D01*
X-30328Y28307D01*
X-30271Y28387D01*
X-30218Y28469D01*
X-30168Y28554D01*
X-30121Y28640D01*
X-30077Y28728D01*
X-30038Y28818D01*
X-30001Y28909D01*
X-29969Y29002D01*
X-29940Y29096D01*
X-29915Y29190D01*
X-29894Y29286D01*
X-29876Y29383D01*
X-29863Y29480D01*
X-29853Y29578D01*
X-29847Y29676D01*
X-29845Y29774D01*
X-33796Y29281D02*
X-35772Y27305D01*
X-38610Y34219D02*
X-41079Y36195D01*
X-41079Y27305D01*
X-38610Y27305D02*
X-43549Y27305D01*
X-40005Y-56534D02*
X-48895Y-56534D01*
X-40005Y-56534D02*
X-40005Y-54064D01*
X-40007Y-53966D01*
X-40013Y-53868D01*
X-40023Y-53770D01*
X-40036Y-53673D01*
X-40054Y-53576D01*
X-40075Y-53480D01*
X-40100Y-53386D01*
X-40129Y-53292D01*
X-40161Y-53199D01*
X-40198Y-53108D01*
X-40237Y-53018D01*
X-40281Y-52930D01*
X-40328Y-52844D01*
X-40378Y-52759D01*
X-40431Y-52677D01*
X-40488Y-52597D01*
X-40548Y-52519D01*
X-40611Y-52444D01*
X-40677Y-52371D01*
X-40746Y-52301D01*
X-40817Y-52234D01*
X-40891Y-52169D01*
X-40968Y-52108D01*
X-41047Y-52049D01*
X-41128Y-51994D01*
X-41211Y-51942D01*
X-41297Y-51894D01*
X-41384Y-51849D01*
X-41473Y-51807D01*
X-41563Y-51769D01*
X-41655Y-51735D01*
X-41748Y-51704D01*
X-41843Y-51677D01*
X-41938Y-51654D01*
X-42035Y-51634D01*
X-42131Y-51619D01*
X-42229Y-51607D01*
X-42327Y-51599D01*
X-42425Y-51595D01*
X-42523Y-51595D01*
X-42621Y-51599D01*
X-42719Y-51607D01*
X-42817Y-51619D01*
X-42913Y-51634D01*
X-43010Y-51654D01*
X-43105Y-51677D01*
X-43200Y-51704D01*
X-43293Y-51735D01*
X-43385Y-51769D01*
X-43475Y-51807D01*
X-43564Y-51849D01*
X-43651Y-51894D01*
X-43737Y-51942D01*
X-43820Y-51994D01*
X-43901Y-52049D01*
X-43980Y-52108D01*
X-44057Y-52169D01*
X-44131Y-52234D01*
X-44202Y-52301D01*
X-44271Y-52371D01*
X-44337Y-52444D01*
X-44400Y-52519D01*
X-44460Y-52597D01*
X-44517Y-52677D01*
X-44570Y-52759D01*
X-44620Y-52844D01*
X-44667Y-52930D01*
X-44711Y-53018D01*
X-44750Y-53108D01*
X-44787Y-53199D01*
X-44819Y-53292D01*
X-44848Y-53386D01*
X-44873Y-53480D01*
X-44894Y-53576D01*
X-44912Y-53673D01*
X-44925Y-53770D01*
X-44935Y-53868D01*
X-44941Y-53966D01*
X-44943Y-54064D01*
X-44944Y-54064D02*
X-44944Y-56534D01*
X-44944Y-53570D02*
X-48895Y-51595D01*
X-41981Y-47465D02*
X-40005Y-44996D01*
X-48895Y-44996D01*
X-48895Y-47465D02*
X-48895Y-42526D01*
X475126Y86995D02*
X475126Y95885D01*
X472656Y95885D01*
X472558Y95883D01*
X472460Y95877D01*
X472362Y95867D01*
X472265Y95854D01*
X472168Y95836D01*
X472072Y95815D01*
X471978Y95790D01*
X471884Y95761D01*
X471791Y95729D01*
X471700Y95692D01*
X471610Y95653D01*
X471522Y95609D01*
X471436Y95562D01*
X471351Y95512D01*
X471269Y95459D01*
X471189Y95402D01*
X471111Y95342D01*
X471036Y95279D01*
X470963Y95213D01*
X470893Y95144D01*
X470826Y95073D01*
X470761Y94999D01*
X470700Y94922D01*
X470641Y94843D01*
X470586Y94762D01*
X470534Y94679D01*
X470486Y94593D01*
X470441Y94506D01*
X470399Y94417D01*
X470361Y94327D01*
X470327Y94235D01*
X470296Y94142D01*
X470269Y94047D01*
X470246Y93952D01*
X470226Y93855D01*
X470211Y93759D01*
X470199Y93661D01*
X470191Y93563D01*
X470187Y93465D01*
X470187Y93367D01*
X470191Y93269D01*
X470199Y93171D01*
X470211Y93073D01*
X470226Y92977D01*
X470246Y92880D01*
X470269Y92785D01*
X470296Y92690D01*
X470327Y92597D01*
X470361Y92505D01*
X470399Y92415D01*
X470441Y92326D01*
X470486Y92239D01*
X470534Y92153D01*
X470586Y92070D01*
X470641Y91989D01*
X470700Y91910D01*
X470761Y91833D01*
X470826Y91759D01*
X470893Y91688D01*
X470963Y91619D01*
X471036Y91553D01*
X471111Y91490D01*
X471189Y91430D01*
X471269Y91373D01*
X471351Y91320D01*
X471436Y91270D01*
X471522Y91223D01*
X471610Y91179D01*
X471700Y91140D01*
X471791Y91103D01*
X471884Y91071D01*
X471978Y91042D01*
X472072Y91017D01*
X472168Y90996D01*
X472265Y90978D01*
X472362Y90965D01*
X472460Y90955D01*
X472558Y90949D01*
X472656Y90947D01*
X472656Y90946D02*
X475126Y90946D01*
X472162Y90946D02*
X470187Y86995D01*
X466057Y93909D02*
X463588Y95885D01*
X463588Y86995D01*
X466057Y86995D02*
X461118Y86995D01*
X456913Y91440D02*
X456911Y91615D01*
X456905Y91790D01*
X456894Y91964D01*
X456880Y92139D01*
X456861Y92312D01*
X456838Y92486D01*
X456811Y92659D01*
X456780Y92831D01*
X456745Y93002D01*
X456705Y93172D01*
X456662Y93342D01*
X456614Y93510D01*
X456563Y93677D01*
X456508Y93843D01*
X456448Y94008D01*
X456385Y94171D01*
X456318Y94332D01*
X456247Y94492D01*
X456172Y94650D01*
X456172Y94651D02*
X456143Y94729D01*
X456111Y94807D01*
X456074Y94882D01*
X456035Y94956D01*
X455992Y95028D01*
X455946Y95099D01*
X455896Y95166D01*
X455844Y95232D01*
X455789Y95295D01*
X455730Y95355D01*
X455669Y95413D01*
X455606Y95468D01*
X455540Y95520D01*
X455471Y95569D01*
X455401Y95614D01*
X455329Y95657D01*
X455254Y95696D01*
X455178Y95731D01*
X455101Y95763D01*
X455022Y95791D01*
X454941Y95816D01*
X454860Y95837D01*
X454778Y95854D01*
X454695Y95868D01*
X454612Y95877D01*
X454528Y95883D01*
X454444Y95885D01*
X454360Y95883D01*
X454276Y95877D01*
X454193Y95868D01*
X454110Y95854D01*
X454028Y95837D01*
X453947Y95816D01*
X453866Y95791D01*
X453787Y95763D01*
X453710Y95731D01*
X453634Y95696D01*
X453559Y95657D01*
X453487Y95614D01*
X453416Y95569D01*
X453348Y95520D01*
X453282Y95468D01*
X453219Y95413D01*
X453158Y95355D01*
X453099Y95295D01*
X453044Y95232D01*
X452992Y95166D01*
X452942Y95099D01*
X452896Y95028D01*
X452853Y94956D01*
X452814Y94882D01*
X452777Y94807D01*
X452745Y94729D01*
X452716Y94651D01*
X452715Y94650D02*
X452640Y94492D01*
X452569Y94332D01*
X452502Y94171D01*
X452439Y94008D01*
X452379Y93843D01*
X452324Y93677D01*
X452273Y93510D01*
X452225Y93342D01*
X452182Y93172D01*
X452142Y93002D01*
X452107Y92831D01*
X452076Y92659D01*
X452049Y92486D01*
X452026Y92312D01*
X452007Y92139D01*
X451993Y91964D01*
X451982Y91790D01*
X451976Y91615D01*
X451974Y91440D01*
X456913Y91440D02*
X456911Y91265D01*
X456905Y91090D01*
X456894Y90916D01*
X456880Y90741D01*
X456861Y90568D01*
X456838Y90394D01*
X456811Y90221D01*
X456780Y90049D01*
X456745Y89878D01*
X456705Y89708D01*
X456662Y89538D01*
X456614Y89370D01*
X456563Y89203D01*
X456508Y89037D01*
X456448Y88872D01*
X456385Y88709D01*
X456318Y88548D01*
X456247Y88388D01*
X456172Y88230D01*
X456172Y88229D02*
X456143Y88151D01*
X456111Y88073D01*
X456074Y87998D01*
X456035Y87924D01*
X455992Y87851D01*
X455946Y87781D01*
X455896Y87714D01*
X455844Y87648D01*
X455788Y87585D01*
X455730Y87525D01*
X455669Y87467D01*
X455606Y87412D01*
X455540Y87360D01*
X455471Y87311D01*
X455401Y87266D01*
X455329Y87223D01*
X455254Y87184D01*
X455178Y87149D01*
X455101Y87117D01*
X455022Y87089D01*
X454941Y87064D01*
X454860Y87043D01*
X454778Y87026D01*
X454695Y87012D01*
X454612Y87003D01*
X454528Y86997D01*
X454444Y86995D01*
X452715Y88230D02*
X452640Y88388D01*
X452569Y88548D01*
X452502Y88709D01*
X452439Y88872D01*
X452379Y89037D01*
X452324Y89203D01*
X452273Y89370D01*
X452225Y89538D01*
X452182Y89708D01*
X452142Y89878D01*
X452107Y90049D01*
X452076Y90221D01*
X452049Y90394D01*
X452026Y90568D01*
X452007Y90741D01*
X451993Y90916D01*
X451982Y91090D01*
X451976Y91265D01*
X451974Y91440D01*
X452716Y88229D02*
X452745Y88151D01*
X452777Y88073D01*
X452814Y87998D01*
X452853Y87924D01*
X452896Y87851D01*
X452942Y87781D01*
X452992Y87714D01*
X453044Y87648D01*
X453100Y87585D01*
X453158Y87525D01*
X453219Y87467D01*
X453282Y87412D01*
X453348Y87360D01*
X453417Y87311D01*
X453487Y87266D01*
X453559Y87223D01*
X453634Y87184D01*
X453710Y87149D01*
X453787Y87117D01*
X453866Y87089D01*
X453947Y87064D01*
X454028Y87043D01*
X454110Y87026D01*
X454193Y87012D01*
X454276Y87003D01*
X454360Y86997D01*
X454444Y86995D01*
X456419Y88971D02*
X452468Y93909D01*
X5226Y-42545D02*
X5226Y-51435D01*
X5226Y-42545D02*
X2756Y-42545D01*
X2658Y-42547D01*
X2560Y-42553D01*
X2462Y-42563D01*
X2365Y-42576D01*
X2268Y-42594D01*
X2172Y-42615D01*
X2078Y-42640D01*
X1984Y-42669D01*
X1891Y-42701D01*
X1800Y-42738D01*
X1710Y-42777D01*
X1622Y-42821D01*
X1536Y-42868D01*
X1451Y-42918D01*
X1369Y-42971D01*
X1289Y-43028D01*
X1211Y-43088D01*
X1136Y-43151D01*
X1063Y-43217D01*
X993Y-43286D01*
X926Y-43357D01*
X861Y-43431D01*
X800Y-43508D01*
X741Y-43587D01*
X686Y-43668D01*
X634Y-43751D01*
X586Y-43837D01*
X541Y-43924D01*
X499Y-44013D01*
X461Y-44103D01*
X427Y-44195D01*
X396Y-44288D01*
X369Y-44383D01*
X346Y-44478D01*
X326Y-44575D01*
X311Y-44671D01*
X299Y-44769D01*
X291Y-44867D01*
X287Y-44965D01*
X287Y-45063D01*
X291Y-45161D01*
X299Y-45259D01*
X311Y-45357D01*
X326Y-45453D01*
X346Y-45550D01*
X369Y-45645D01*
X396Y-45740D01*
X427Y-45833D01*
X461Y-45925D01*
X499Y-46015D01*
X541Y-46104D01*
X586Y-46191D01*
X634Y-46277D01*
X686Y-46360D01*
X741Y-46441D01*
X800Y-46520D01*
X861Y-46597D01*
X926Y-46671D01*
X993Y-46742D01*
X1063Y-46811D01*
X1136Y-46877D01*
X1211Y-46940D01*
X1289Y-47000D01*
X1369Y-47057D01*
X1451Y-47110D01*
X1536Y-47160D01*
X1622Y-47207D01*
X1710Y-47251D01*
X1800Y-47290D01*
X1891Y-47327D01*
X1984Y-47359D01*
X2078Y-47388D01*
X2172Y-47413D01*
X2268Y-47434D01*
X2365Y-47452D01*
X2462Y-47465D01*
X2560Y-47475D01*
X2658Y-47481D01*
X2756Y-47483D01*
X2756Y-47484D02*
X5226Y-47484D01*
X2262Y-47484D02*
X287Y-51435D01*
X-3843Y-44521D02*
X-6312Y-42545D01*
X-6312Y-51435D01*
X-3843Y-51435D02*
X-8782Y-51435D01*
X-12987Y-44521D02*
X-15456Y-42545D01*
X-15456Y-51435D01*
X-12987Y-51435D02*
X-17926Y-51435D01*
X-65405Y-56534D02*
X-74295Y-56534D01*
X-65405Y-56534D02*
X-65405Y-54064D01*
X-65407Y-53966D01*
X-65413Y-53868D01*
X-65423Y-53770D01*
X-65436Y-53673D01*
X-65454Y-53576D01*
X-65475Y-53480D01*
X-65500Y-53386D01*
X-65529Y-53292D01*
X-65561Y-53199D01*
X-65598Y-53108D01*
X-65637Y-53018D01*
X-65681Y-52930D01*
X-65728Y-52844D01*
X-65778Y-52759D01*
X-65831Y-52677D01*
X-65888Y-52597D01*
X-65948Y-52519D01*
X-66011Y-52444D01*
X-66077Y-52371D01*
X-66146Y-52301D01*
X-66217Y-52234D01*
X-66291Y-52169D01*
X-66368Y-52108D01*
X-66447Y-52049D01*
X-66528Y-51994D01*
X-66611Y-51942D01*
X-66697Y-51894D01*
X-66784Y-51849D01*
X-66873Y-51807D01*
X-66963Y-51769D01*
X-67055Y-51735D01*
X-67148Y-51704D01*
X-67243Y-51677D01*
X-67338Y-51654D01*
X-67435Y-51634D01*
X-67531Y-51619D01*
X-67629Y-51607D01*
X-67727Y-51599D01*
X-67825Y-51595D01*
X-67923Y-51595D01*
X-68021Y-51599D01*
X-68119Y-51607D01*
X-68217Y-51619D01*
X-68313Y-51634D01*
X-68410Y-51654D01*
X-68505Y-51677D01*
X-68600Y-51704D01*
X-68693Y-51735D01*
X-68785Y-51769D01*
X-68875Y-51807D01*
X-68964Y-51849D01*
X-69051Y-51894D01*
X-69137Y-51942D01*
X-69220Y-51994D01*
X-69301Y-52049D01*
X-69380Y-52108D01*
X-69457Y-52169D01*
X-69531Y-52234D01*
X-69602Y-52301D01*
X-69671Y-52371D01*
X-69737Y-52444D01*
X-69800Y-52519D01*
X-69860Y-52597D01*
X-69917Y-52677D01*
X-69970Y-52759D01*
X-70020Y-52844D01*
X-70067Y-52930D01*
X-70111Y-53018D01*
X-70150Y-53108D01*
X-70187Y-53199D01*
X-70219Y-53292D01*
X-70248Y-53386D01*
X-70273Y-53480D01*
X-70294Y-53576D01*
X-70312Y-53673D01*
X-70325Y-53770D01*
X-70335Y-53868D01*
X-70341Y-53966D01*
X-70343Y-54064D01*
X-70344Y-54064D02*
X-70344Y-56534D01*
X-70344Y-53570D02*
X-74295Y-51595D01*
X-65405Y-44749D02*
X-65407Y-44657D01*
X-65413Y-44565D01*
X-65422Y-44474D01*
X-65435Y-44383D01*
X-65452Y-44293D01*
X-65473Y-44203D01*
X-65497Y-44115D01*
X-65525Y-44027D01*
X-65557Y-43941D01*
X-65592Y-43856D01*
X-65631Y-43773D01*
X-65673Y-43691D01*
X-65718Y-43611D01*
X-65767Y-43533D01*
X-65819Y-43457D01*
X-65874Y-43384D01*
X-65932Y-43312D01*
X-65992Y-43243D01*
X-66056Y-43177D01*
X-66122Y-43113D01*
X-66191Y-43053D01*
X-66263Y-42995D01*
X-66336Y-42940D01*
X-66412Y-42888D01*
X-66490Y-42839D01*
X-66570Y-42794D01*
X-66652Y-42752D01*
X-66735Y-42713D01*
X-66820Y-42678D01*
X-66906Y-42646D01*
X-66994Y-42618D01*
X-67082Y-42594D01*
X-67172Y-42573D01*
X-67262Y-42556D01*
X-67353Y-42543D01*
X-67444Y-42534D01*
X-67536Y-42528D01*
X-67628Y-42526D01*
X-65405Y-44749D02*
X-65407Y-44855D01*
X-65413Y-44960D01*
X-65423Y-45065D01*
X-65436Y-45170D01*
X-65454Y-45274D01*
X-65475Y-45377D01*
X-65500Y-45480D01*
X-65529Y-45582D01*
X-65562Y-45682D01*
X-65598Y-45781D01*
X-65638Y-45879D01*
X-65682Y-45975D01*
X-65729Y-46070D01*
X-65779Y-46162D01*
X-65833Y-46253D01*
X-65891Y-46342D01*
X-65951Y-46428D01*
X-66015Y-46512D01*
X-66081Y-46594D01*
X-66151Y-46674D01*
X-66224Y-46750D01*
X-66299Y-46824D01*
X-66377Y-46895D01*
X-66458Y-46963D01*
X-66541Y-47029D01*
X-66627Y-47091D01*
X-66714Y-47149D01*
X-66804Y-47205D01*
X-66896Y-47257D01*
X-66990Y-47306D01*
X-67085Y-47351D01*
X-67182Y-47393D01*
X-67281Y-47431D01*
X-67380Y-47465D01*
X-69357Y-43267D02*
X-69288Y-43198D01*
X-69218Y-43132D01*
X-69144Y-43069D01*
X-69068Y-43010D01*
X-68990Y-42953D01*
X-68910Y-42899D01*
X-68827Y-42849D01*
X-68743Y-42802D01*
X-68656Y-42759D01*
X-68568Y-42719D01*
X-68479Y-42683D01*
X-68388Y-42650D01*
X-68296Y-42621D01*
X-68202Y-42596D01*
X-68108Y-42575D01*
X-68013Y-42557D01*
X-67917Y-42544D01*
X-67821Y-42534D01*
X-67725Y-42528D01*
X-67628Y-42526D01*
X-69356Y-43267D02*
X-74295Y-47465D01*
X-74295Y-42526D01*
X-90805Y-56534D02*
X-99695Y-56534D01*
X-90805Y-56534D02*
X-90805Y-54064D01*
X-90807Y-53966D01*
X-90813Y-53868D01*
X-90823Y-53770D01*
X-90836Y-53673D01*
X-90854Y-53576D01*
X-90875Y-53480D01*
X-90900Y-53386D01*
X-90929Y-53292D01*
X-90961Y-53199D01*
X-90998Y-53108D01*
X-91037Y-53018D01*
X-91081Y-52930D01*
X-91128Y-52844D01*
X-91178Y-52759D01*
X-91231Y-52677D01*
X-91288Y-52597D01*
X-91348Y-52519D01*
X-91411Y-52444D01*
X-91477Y-52371D01*
X-91546Y-52301D01*
X-91617Y-52234D01*
X-91691Y-52169D01*
X-91768Y-52108D01*
X-91847Y-52049D01*
X-91928Y-51994D01*
X-92011Y-51942D01*
X-92097Y-51894D01*
X-92184Y-51849D01*
X-92273Y-51807D01*
X-92363Y-51769D01*
X-92455Y-51735D01*
X-92548Y-51704D01*
X-92643Y-51677D01*
X-92738Y-51654D01*
X-92835Y-51634D01*
X-92931Y-51619D01*
X-93029Y-51607D01*
X-93127Y-51599D01*
X-93225Y-51595D01*
X-93323Y-51595D01*
X-93421Y-51599D01*
X-93519Y-51607D01*
X-93617Y-51619D01*
X-93713Y-51634D01*
X-93810Y-51654D01*
X-93905Y-51677D01*
X-94000Y-51704D01*
X-94093Y-51735D01*
X-94185Y-51769D01*
X-94275Y-51807D01*
X-94364Y-51849D01*
X-94451Y-51894D01*
X-94537Y-51942D01*
X-94620Y-51994D01*
X-94701Y-52049D01*
X-94780Y-52108D01*
X-94857Y-52169D01*
X-94931Y-52234D01*
X-95002Y-52301D01*
X-95071Y-52371D01*
X-95137Y-52444D01*
X-95200Y-52519D01*
X-95260Y-52597D01*
X-95317Y-52677D01*
X-95370Y-52759D01*
X-95420Y-52844D01*
X-95467Y-52930D01*
X-95511Y-53018D01*
X-95550Y-53108D01*
X-95587Y-53199D01*
X-95619Y-53292D01*
X-95648Y-53386D01*
X-95673Y-53480D01*
X-95694Y-53576D01*
X-95712Y-53673D01*
X-95725Y-53770D01*
X-95735Y-53868D01*
X-95741Y-53966D01*
X-95743Y-54064D01*
X-95744Y-54064D02*
X-95744Y-56534D01*
X-95744Y-53570D02*
X-99695Y-51595D01*
X-99695Y-47465D02*
X-99695Y-44996D01*
X-99693Y-44898D01*
X-99687Y-44800D01*
X-99677Y-44702D01*
X-99664Y-44605D01*
X-99646Y-44508D01*
X-99625Y-44412D01*
X-99600Y-44318D01*
X-99571Y-44224D01*
X-99539Y-44131D01*
X-99502Y-44040D01*
X-99463Y-43950D01*
X-99419Y-43862D01*
X-99372Y-43776D01*
X-99322Y-43691D01*
X-99269Y-43609D01*
X-99212Y-43529D01*
X-99152Y-43451D01*
X-99089Y-43376D01*
X-99023Y-43303D01*
X-98954Y-43233D01*
X-98883Y-43166D01*
X-98809Y-43101D01*
X-98732Y-43040D01*
X-98653Y-42981D01*
X-98572Y-42926D01*
X-98489Y-42874D01*
X-98403Y-42826D01*
X-98316Y-42781D01*
X-98227Y-42739D01*
X-98137Y-42701D01*
X-98045Y-42667D01*
X-97952Y-42636D01*
X-97857Y-42609D01*
X-97762Y-42586D01*
X-97665Y-42566D01*
X-97569Y-42551D01*
X-97471Y-42539D01*
X-97373Y-42531D01*
X-97275Y-42527D01*
X-97177Y-42527D01*
X-97079Y-42531D01*
X-96981Y-42539D01*
X-96883Y-42551D01*
X-96787Y-42566D01*
X-96690Y-42586D01*
X-96595Y-42609D01*
X-96500Y-42636D01*
X-96407Y-42667D01*
X-96315Y-42701D01*
X-96225Y-42739D01*
X-96136Y-42781D01*
X-96049Y-42826D01*
X-95963Y-42874D01*
X-95880Y-42926D01*
X-95799Y-42981D01*
X-95720Y-43040D01*
X-95643Y-43101D01*
X-95569Y-43166D01*
X-95498Y-43233D01*
X-95429Y-43303D01*
X-95363Y-43376D01*
X-95300Y-43451D01*
X-95240Y-43529D01*
X-95183Y-43609D01*
X-95130Y-43691D01*
X-95080Y-43776D01*
X-95033Y-43862D01*
X-94989Y-43950D01*
X-94950Y-44040D01*
X-94913Y-44131D01*
X-94881Y-44224D01*
X-94852Y-44318D01*
X-94827Y-44412D01*
X-94806Y-44508D01*
X-94788Y-44605D01*
X-94775Y-44702D01*
X-94765Y-44800D01*
X-94759Y-44898D01*
X-94757Y-44996D01*
X-90805Y-44502D02*
X-90805Y-47465D01*
X-90805Y-44502D02*
X-90807Y-44415D01*
X-90813Y-44327D01*
X-90822Y-44240D01*
X-90836Y-44154D01*
X-90853Y-44068D01*
X-90874Y-43984D01*
X-90899Y-43900D01*
X-90928Y-43817D01*
X-90960Y-43736D01*
X-90995Y-43656D01*
X-91034Y-43578D01*
X-91077Y-43501D01*
X-91123Y-43427D01*
X-91172Y-43355D01*
X-91224Y-43285D01*
X-91280Y-43217D01*
X-91338Y-43152D01*
X-91399Y-43089D01*
X-91463Y-43030D01*
X-91530Y-42973D01*
X-91598Y-42919D01*
X-91670Y-42868D01*
X-91743Y-42821D01*
X-91818Y-42776D01*
X-91896Y-42735D01*
X-91975Y-42698D01*
X-92055Y-42664D01*
X-92137Y-42634D01*
X-92220Y-42607D01*
X-92305Y-42584D01*
X-92390Y-42565D01*
X-92476Y-42550D01*
X-92563Y-42538D01*
X-92650Y-42530D01*
X-92737Y-42526D01*
X-92825Y-42526D01*
X-92912Y-42530D01*
X-92999Y-42538D01*
X-93086Y-42550D01*
X-93172Y-42565D01*
X-93257Y-42584D01*
X-93342Y-42607D01*
X-93425Y-42634D01*
X-93507Y-42664D01*
X-93587Y-42698D01*
X-93666Y-42735D01*
X-93744Y-42776D01*
X-93819Y-42821D01*
X-93892Y-42868D01*
X-93964Y-42919D01*
X-94032Y-42973D01*
X-94099Y-43030D01*
X-94163Y-43089D01*
X-94224Y-43152D01*
X-94282Y-43217D01*
X-94338Y-43285D01*
X-94390Y-43355D01*
X-94439Y-43427D01*
X-94485Y-43501D01*
X-94528Y-43578D01*
X-94567Y-43656D01*
X-94602Y-43736D01*
X-94634Y-43817D01*
X-94663Y-43900D01*
X-94688Y-43984D01*
X-94709Y-44068D01*
X-94726Y-44154D01*
X-94740Y-44240D01*
X-94749Y-44327D01*
X-94755Y-44415D01*
X-94757Y-44502D01*
X-94756Y-44502D02*
X-94756Y-46477D01*
X-114935Y-56534D02*
X-123825Y-56534D01*
X-114935Y-56534D02*
X-114935Y-54064D01*
X-114937Y-53966D01*
X-114943Y-53868D01*
X-114953Y-53770D01*
X-114966Y-53673D01*
X-114984Y-53576D01*
X-115005Y-53480D01*
X-115030Y-53386D01*
X-115059Y-53292D01*
X-115091Y-53199D01*
X-115128Y-53108D01*
X-115167Y-53018D01*
X-115211Y-52930D01*
X-115258Y-52844D01*
X-115308Y-52759D01*
X-115361Y-52677D01*
X-115418Y-52597D01*
X-115478Y-52519D01*
X-115541Y-52444D01*
X-115607Y-52371D01*
X-115676Y-52301D01*
X-115747Y-52234D01*
X-115821Y-52169D01*
X-115898Y-52108D01*
X-115977Y-52049D01*
X-116058Y-51994D01*
X-116141Y-51942D01*
X-116227Y-51894D01*
X-116314Y-51849D01*
X-116403Y-51807D01*
X-116493Y-51769D01*
X-116585Y-51735D01*
X-116678Y-51704D01*
X-116773Y-51677D01*
X-116868Y-51654D01*
X-116965Y-51634D01*
X-117061Y-51619D01*
X-117159Y-51607D01*
X-117257Y-51599D01*
X-117355Y-51595D01*
X-117453Y-51595D01*
X-117551Y-51599D01*
X-117649Y-51607D01*
X-117747Y-51619D01*
X-117843Y-51634D01*
X-117940Y-51654D01*
X-118035Y-51677D01*
X-118130Y-51704D01*
X-118223Y-51735D01*
X-118315Y-51769D01*
X-118405Y-51807D01*
X-118494Y-51849D01*
X-118581Y-51894D01*
X-118667Y-51942D01*
X-118750Y-51994D01*
X-118831Y-52049D01*
X-118910Y-52108D01*
X-118987Y-52169D01*
X-119061Y-52234D01*
X-119132Y-52301D01*
X-119201Y-52371D01*
X-119267Y-52444D01*
X-119330Y-52519D01*
X-119390Y-52597D01*
X-119447Y-52677D01*
X-119500Y-52759D01*
X-119550Y-52844D01*
X-119597Y-52930D01*
X-119641Y-53018D01*
X-119680Y-53108D01*
X-119717Y-53199D01*
X-119749Y-53292D01*
X-119778Y-53386D01*
X-119803Y-53480D01*
X-119824Y-53576D01*
X-119842Y-53673D01*
X-119855Y-53770D01*
X-119865Y-53868D01*
X-119871Y-53966D01*
X-119873Y-54064D01*
X-119874Y-54064D02*
X-119874Y-56534D01*
X-119874Y-53570D02*
X-123825Y-51595D01*
X-121849Y-47465D02*
X-114935Y-45490D01*
X-121849Y-47465D02*
X-121849Y-42526D01*
X-119874Y-44008D02*
X-123825Y-44008D01*
X-141605Y-56534D02*
X-150495Y-56534D01*
X-141605Y-56534D02*
X-141605Y-54064D01*
X-141607Y-53966D01*
X-141613Y-53868D01*
X-141623Y-53770D01*
X-141636Y-53673D01*
X-141654Y-53576D01*
X-141675Y-53480D01*
X-141700Y-53386D01*
X-141729Y-53292D01*
X-141761Y-53199D01*
X-141798Y-53108D01*
X-141837Y-53018D01*
X-141881Y-52930D01*
X-141928Y-52844D01*
X-141978Y-52759D01*
X-142031Y-52677D01*
X-142088Y-52597D01*
X-142148Y-52519D01*
X-142211Y-52444D01*
X-142277Y-52371D01*
X-142346Y-52301D01*
X-142417Y-52234D01*
X-142491Y-52169D01*
X-142568Y-52108D01*
X-142647Y-52049D01*
X-142728Y-51994D01*
X-142811Y-51942D01*
X-142897Y-51894D01*
X-142984Y-51849D01*
X-143073Y-51807D01*
X-143163Y-51769D01*
X-143255Y-51735D01*
X-143348Y-51704D01*
X-143443Y-51677D01*
X-143538Y-51654D01*
X-143635Y-51634D01*
X-143731Y-51619D01*
X-143829Y-51607D01*
X-143927Y-51599D01*
X-144025Y-51595D01*
X-144123Y-51595D01*
X-144221Y-51599D01*
X-144319Y-51607D01*
X-144417Y-51619D01*
X-144513Y-51634D01*
X-144610Y-51654D01*
X-144705Y-51677D01*
X-144800Y-51704D01*
X-144893Y-51735D01*
X-144985Y-51769D01*
X-145075Y-51807D01*
X-145164Y-51849D01*
X-145251Y-51894D01*
X-145337Y-51942D01*
X-145420Y-51994D01*
X-145501Y-52049D01*
X-145580Y-52108D01*
X-145657Y-52169D01*
X-145731Y-52234D01*
X-145802Y-52301D01*
X-145871Y-52371D01*
X-145937Y-52444D01*
X-146000Y-52519D01*
X-146060Y-52597D01*
X-146117Y-52677D01*
X-146170Y-52759D01*
X-146220Y-52844D01*
X-146267Y-52930D01*
X-146311Y-53018D01*
X-146350Y-53108D01*
X-146387Y-53199D01*
X-146419Y-53292D01*
X-146448Y-53386D01*
X-146473Y-53480D01*
X-146494Y-53576D01*
X-146512Y-53673D01*
X-146525Y-53770D01*
X-146535Y-53868D01*
X-146541Y-53966D01*
X-146543Y-54064D01*
X-146544Y-54064D02*
X-146544Y-56534D01*
X-146544Y-53570D02*
X-150495Y-51595D01*
X-150495Y-47465D02*
X-150495Y-44502D01*
X-150493Y-44413D01*
X-150487Y-44325D01*
X-150477Y-44237D01*
X-150463Y-44149D01*
X-150445Y-44062D01*
X-150424Y-43976D01*
X-150398Y-43891D01*
X-150369Y-43808D01*
X-150336Y-43725D01*
X-150299Y-43645D01*
X-150259Y-43566D01*
X-150215Y-43489D01*
X-150168Y-43413D01*
X-150118Y-43341D01*
X-150064Y-43270D01*
X-150007Y-43202D01*
X-149947Y-43136D01*
X-149885Y-43074D01*
X-149819Y-43014D01*
X-149751Y-42957D01*
X-149680Y-42903D01*
X-149608Y-42853D01*
X-149533Y-42806D01*
X-149455Y-42762D01*
X-149376Y-42722D01*
X-149296Y-42685D01*
X-149213Y-42652D01*
X-149130Y-42623D01*
X-149045Y-42597D01*
X-148959Y-42576D01*
X-148872Y-42558D01*
X-148784Y-42544D01*
X-148696Y-42534D01*
X-148608Y-42528D01*
X-148519Y-42526D01*
X-147532Y-42526D01*
X-147446Y-42528D01*
X-147360Y-42534D01*
X-147274Y-42543D01*
X-147189Y-42556D01*
X-147104Y-42573D01*
X-147021Y-42593D01*
X-146938Y-42617D01*
X-146856Y-42645D01*
X-146776Y-42676D01*
X-146697Y-42711D01*
X-146620Y-42749D01*
X-146544Y-42791D01*
X-146470Y-42835D01*
X-146399Y-42883D01*
X-146329Y-42934D01*
X-146262Y-42988D01*
X-146197Y-43045D01*
X-146135Y-43105D01*
X-146075Y-43167D01*
X-146018Y-43232D01*
X-145964Y-43299D01*
X-145913Y-43369D01*
X-145865Y-43440D01*
X-145821Y-43514D01*
X-145779Y-43590D01*
X-145741Y-43667D01*
X-145706Y-43746D01*
X-145675Y-43826D01*
X-145647Y-43908D01*
X-145623Y-43991D01*
X-145603Y-44074D01*
X-145586Y-44159D01*
X-145573Y-44244D01*
X-145564Y-44330D01*
X-145558Y-44416D01*
X-145556Y-44502D01*
X-145556Y-47465D01*
X-141605Y-47465D01*
X-141605Y-42526D01*
X-167005Y-56534D02*
X-175895Y-56534D01*
X-167005Y-56534D02*
X-167005Y-54064D01*
X-167007Y-53966D01*
X-167013Y-53868D01*
X-167023Y-53770D01*
X-167036Y-53673D01*
X-167054Y-53576D01*
X-167075Y-53480D01*
X-167100Y-53386D01*
X-167129Y-53292D01*
X-167161Y-53199D01*
X-167198Y-53108D01*
X-167237Y-53018D01*
X-167281Y-52930D01*
X-167328Y-52844D01*
X-167378Y-52759D01*
X-167431Y-52677D01*
X-167488Y-52597D01*
X-167548Y-52519D01*
X-167611Y-52444D01*
X-167677Y-52371D01*
X-167746Y-52301D01*
X-167817Y-52234D01*
X-167891Y-52169D01*
X-167968Y-52108D01*
X-168047Y-52049D01*
X-168128Y-51994D01*
X-168211Y-51942D01*
X-168297Y-51894D01*
X-168384Y-51849D01*
X-168473Y-51807D01*
X-168563Y-51769D01*
X-168655Y-51735D01*
X-168748Y-51704D01*
X-168843Y-51677D01*
X-168938Y-51654D01*
X-169035Y-51634D01*
X-169131Y-51619D01*
X-169229Y-51607D01*
X-169327Y-51599D01*
X-169425Y-51595D01*
X-169523Y-51595D01*
X-169621Y-51599D01*
X-169719Y-51607D01*
X-169817Y-51619D01*
X-169913Y-51634D01*
X-170010Y-51654D01*
X-170105Y-51677D01*
X-170200Y-51704D01*
X-170293Y-51735D01*
X-170385Y-51769D01*
X-170475Y-51807D01*
X-170564Y-51849D01*
X-170651Y-51894D01*
X-170737Y-51942D01*
X-170820Y-51994D01*
X-170901Y-52049D01*
X-170980Y-52108D01*
X-171057Y-52169D01*
X-171131Y-52234D01*
X-171202Y-52301D01*
X-171271Y-52371D01*
X-171337Y-52444D01*
X-171400Y-52519D01*
X-171460Y-52597D01*
X-171517Y-52677D01*
X-171570Y-52759D01*
X-171620Y-52844D01*
X-171667Y-52930D01*
X-171711Y-53018D01*
X-171750Y-53108D01*
X-171787Y-53199D01*
X-171819Y-53292D01*
X-171848Y-53386D01*
X-171873Y-53480D01*
X-171894Y-53576D01*
X-171912Y-53673D01*
X-171925Y-53770D01*
X-171935Y-53868D01*
X-171941Y-53966D01*
X-171943Y-54064D01*
X-171944Y-54064D02*
X-171944Y-56534D01*
X-171944Y-53570D02*
X-175895Y-51595D01*
X-170956Y-47465D02*
X-170956Y-44502D01*
X-170958Y-44416D01*
X-170964Y-44330D01*
X-170973Y-44244D01*
X-170986Y-44159D01*
X-171003Y-44074D01*
X-171023Y-43991D01*
X-171047Y-43908D01*
X-171075Y-43826D01*
X-171106Y-43746D01*
X-171141Y-43667D01*
X-171179Y-43590D01*
X-171221Y-43514D01*
X-171265Y-43440D01*
X-171313Y-43369D01*
X-171364Y-43299D01*
X-171418Y-43232D01*
X-171475Y-43167D01*
X-171535Y-43105D01*
X-171597Y-43045D01*
X-171662Y-42988D01*
X-171729Y-42934D01*
X-171799Y-42883D01*
X-171870Y-42835D01*
X-171944Y-42791D01*
X-172020Y-42749D01*
X-172097Y-42711D01*
X-172176Y-42676D01*
X-172256Y-42645D01*
X-172338Y-42617D01*
X-172421Y-42593D01*
X-172504Y-42573D01*
X-172589Y-42556D01*
X-172674Y-42543D01*
X-172760Y-42534D01*
X-172846Y-42528D01*
X-172932Y-42526D01*
X-173426Y-42526D01*
X-173426Y-42527D02*
X-173524Y-42529D01*
X-173622Y-42535D01*
X-173720Y-42545D01*
X-173817Y-42558D01*
X-173914Y-42576D01*
X-174010Y-42597D01*
X-174104Y-42622D01*
X-174198Y-42651D01*
X-174291Y-42683D01*
X-174382Y-42720D01*
X-174472Y-42759D01*
X-174560Y-42803D01*
X-174646Y-42850D01*
X-174731Y-42900D01*
X-174813Y-42953D01*
X-174893Y-43010D01*
X-174971Y-43070D01*
X-175046Y-43133D01*
X-175119Y-43199D01*
X-175189Y-43268D01*
X-175256Y-43339D01*
X-175321Y-43413D01*
X-175382Y-43490D01*
X-175441Y-43569D01*
X-175496Y-43650D01*
X-175548Y-43733D01*
X-175596Y-43819D01*
X-175641Y-43906D01*
X-175683Y-43995D01*
X-175721Y-44085D01*
X-175755Y-44177D01*
X-175786Y-44270D01*
X-175813Y-44365D01*
X-175836Y-44460D01*
X-175856Y-44557D01*
X-175871Y-44653D01*
X-175883Y-44751D01*
X-175891Y-44849D01*
X-175895Y-44947D01*
X-175895Y-45045D01*
X-175891Y-45143D01*
X-175883Y-45241D01*
X-175871Y-45339D01*
X-175856Y-45435D01*
X-175836Y-45532D01*
X-175813Y-45627D01*
X-175786Y-45722D01*
X-175755Y-45815D01*
X-175721Y-45907D01*
X-175683Y-45997D01*
X-175641Y-46086D01*
X-175596Y-46173D01*
X-175548Y-46259D01*
X-175496Y-46342D01*
X-175441Y-46423D01*
X-175382Y-46502D01*
X-175321Y-46579D01*
X-175256Y-46653D01*
X-175189Y-46724D01*
X-175119Y-46793D01*
X-175046Y-46859D01*
X-174971Y-46922D01*
X-174893Y-46982D01*
X-174813Y-47039D01*
X-174731Y-47092D01*
X-174646Y-47142D01*
X-174560Y-47189D01*
X-174472Y-47233D01*
X-174382Y-47272D01*
X-174291Y-47309D01*
X-174198Y-47341D01*
X-174104Y-47370D01*
X-174010Y-47395D01*
X-173914Y-47416D01*
X-173817Y-47434D01*
X-173720Y-47447D01*
X-173622Y-47457D01*
X-173524Y-47463D01*
X-173426Y-47465D01*
X-170956Y-47465D01*
X-170832Y-47463D01*
X-170708Y-47457D01*
X-170584Y-47447D01*
X-170461Y-47434D01*
X-170338Y-47416D01*
X-170216Y-47395D01*
X-170094Y-47370D01*
X-169973Y-47341D01*
X-169854Y-47308D01*
X-169735Y-47272D01*
X-169618Y-47231D01*
X-169502Y-47188D01*
X-169387Y-47140D01*
X-169274Y-47089D01*
X-169162Y-47034D01*
X-169053Y-46976D01*
X-168945Y-46915D01*
X-168839Y-46850D01*
X-168735Y-46782D01*
X-168634Y-46710D01*
X-168534Y-46636D01*
X-168438Y-46558D01*
X-168343Y-46478D01*
X-168251Y-46394D01*
X-168162Y-46308D01*
X-168076Y-46219D01*
X-167992Y-46127D01*
X-167912Y-46032D01*
X-167834Y-45936D01*
X-167760Y-45836D01*
X-167688Y-45735D01*
X-167620Y-45631D01*
X-167555Y-45525D01*
X-167494Y-45417D01*
X-167436Y-45308D01*
X-167381Y-45196D01*
X-167330Y-45083D01*
X-167282Y-44969D01*
X-167239Y-44852D01*
X-167198Y-44735D01*
X-167162Y-44616D01*
X-167129Y-44497D01*
X-167100Y-44376D01*
X-167075Y-44254D01*
X-167054Y-44132D01*
X-167036Y-44009D01*
X-167023Y-43886D01*
X-167013Y-43762D01*
X-167007Y-43638D01*
X-167005Y-43514D01*
X-192405Y-56534D02*
X-201295Y-56534D01*
X-192405Y-56534D02*
X-192405Y-54064D01*
X-192407Y-53966D01*
X-192413Y-53868D01*
X-192423Y-53770D01*
X-192436Y-53673D01*
X-192454Y-53576D01*
X-192475Y-53480D01*
X-192500Y-53386D01*
X-192529Y-53292D01*
X-192561Y-53199D01*
X-192598Y-53108D01*
X-192637Y-53018D01*
X-192681Y-52930D01*
X-192728Y-52844D01*
X-192778Y-52759D01*
X-192831Y-52677D01*
X-192888Y-52597D01*
X-192948Y-52519D01*
X-193011Y-52444D01*
X-193077Y-52371D01*
X-193146Y-52301D01*
X-193217Y-52234D01*
X-193291Y-52169D01*
X-193368Y-52108D01*
X-193447Y-52049D01*
X-193528Y-51994D01*
X-193611Y-51942D01*
X-193697Y-51894D01*
X-193784Y-51849D01*
X-193873Y-51807D01*
X-193963Y-51769D01*
X-194055Y-51735D01*
X-194148Y-51704D01*
X-194243Y-51677D01*
X-194338Y-51654D01*
X-194435Y-51634D01*
X-194531Y-51619D01*
X-194629Y-51607D01*
X-194727Y-51599D01*
X-194825Y-51595D01*
X-194923Y-51595D01*
X-195021Y-51599D01*
X-195119Y-51607D01*
X-195217Y-51619D01*
X-195313Y-51634D01*
X-195410Y-51654D01*
X-195505Y-51677D01*
X-195600Y-51704D01*
X-195693Y-51735D01*
X-195785Y-51769D01*
X-195875Y-51807D01*
X-195964Y-51849D01*
X-196051Y-51894D01*
X-196137Y-51942D01*
X-196220Y-51994D01*
X-196301Y-52049D01*
X-196380Y-52108D01*
X-196457Y-52169D01*
X-196531Y-52234D01*
X-196602Y-52301D01*
X-196671Y-52371D01*
X-196737Y-52444D01*
X-196800Y-52519D01*
X-196860Y-52597D01*
X-196917Y-52677D01*
X-196970Y-52759D01*
X-197020Y-52844D01*
X-197067Y-52930D01*
X-197111Y-53018D01*
X-197150Y-53108D01*
X-197187Y-53199D01*
X-197219Y-53292D01*
X-197248Y-53386D01*
X-197273Y-53480D01*
X-197294Y-53576D01*
X-197312Y-53673D01*
X-197325Y-53770D01*
X-197335Y-53868D01*
X-197341Y-53966D01*
X-197343Y-54064D01*
X-197344Y-54064D02*
X-197344Y-56534D01*
X-197344Y-53570D02*
X-201295Y-51595D01*
X-193393Y-47465D02*
X-192405Y-47465D01*
X-192405Y-42526D01*
X-201295Y-44996D01*
X-217805Y-56534D02*
X-226695Y-56534D01*
X-217805Y-56534D02*
X-217805Y-54064D01*
X-217807Y-53966D01*
X-217813Y-53868D01*
X-217823Y-53770D01*
X-217836Y-53673D01*
X-217854Y-53576D01*
X-217875Y-53480D01*
X-217900Y-53386D01*
X-217929Y-53292D01*
X-217961Y-53199D01*
X-217998Y-53108D01*
X-218037Y-53018D01*
X-218081Y-52930D01*
X-218128Y-52844D01*
X-218178Y-52759D01*
X-218231Y-52677D01*
X-218288Y-52597D01*
X-218348Y-52519D01*
X-218411Y-52444D01*
X-218477Y-52371D01*
X-218546Y-52301D01*
X-218617Y-52234D01*
X-218691Y-52169D01*
X-218768Y-52108D01*
X-218847Y-52049D01*
X-218928Y-51994D01*
X-219011Y-51942D01*
X-219097Y-51894D01*
X-219184Y-51849D01*
X-219273Y-51807D01*
X-219363Y-51769D01*
X-219455Y-51735D01*
X-219548Y-51704D01*
X-219643Y-51677D01*
X-219738Y-51654D01*
X-219835Y-51634D01*
X-219931Y-51619D01*
X-220029Y-51607D01*
X-220127Y-51599D01*
X-220225Y-51595D01*
X-220323Y-51595D01*
X-220421Y-51599D01*
X-220519Y-51607D01*
X-220617Y-51619D01*
X-220713Y-51634D01*
X-220810Y-51654D01*
X-220905Y-51677D01*
X-221000Y-51704D01*
X-221093Y-51735D01*
X-221185Y-51769D01*
X-221275Y-51807D01*
X-221364Y-51849D01*
X-221451Y-51894D01*
X-221537Y-51942D01*
X-221620Y-51994D01*
X-221701Y-52049D01*
X-221780Y-52108D01*
X-221857Y-52169D01*
X-221931Y-52234D01*
X-222002Y-52301D01*
X-222071Y-52371D01*
X-222137Y-52444D01*
X-222200Y-52519D01*
X-222260Y-52597D01*
X-222317Y-52677D01*
X-222370Y-52759D01*
X-222420Y-52844D01*
X-222467Y-52930D01*
X-222511Y-53018D01*
X-222550Y-53108D01*
X-222587Y-53199D01*
X-222619Y-53292D01*
X-222648Y-53386D01*
X-222673Y-53480D01*
X-222694Y-53576D01*
X-222712Y-53673D01*
X-222725Y-53770D01*
X-222735Y-53868D01*
X-222741Y-53966D01*
X-222743Y-54064D01*
X-222744Y-54064D02*
X-222744Y-56534D01*
X-222744Y-53570D02*
X-226695Y-51595D01*
X-224226Y-47465D02*
X-224128Y-47463D01*
X-224030Y-47457D01*
X-223932Y-47447D01*
X-223835Y-47434D01*
X-223738Y-47416D01*
X-223642Y-47395D01*
X-223548Y-47370D01*
X-223454Y-47341D01*
X-223361Y-47309D01*
X-223270Y-47272D01*
X-223180Y-47233D01*
X-223092Y-47189D01*
X-223006Y-47142D01*
X-222921Y-47092D01*
X-222839Y-47039D01*
X-222759Y-46982D01*
X-222681Y-46922D01*
X-222606Y-46859D01*
X-222533Y-46793D01*
X-222463Y-46724D01*
X-222396Y-46653D01*
X-222331Y-46579D01*
X-222270Y-46502D01*
X-222211Y-46423D01*
X-222156Y-46342D01*
X-222104Y-46259D01*
X-222056Y-46173D01*
X-222011Y-46086D01*
X-221969Y-45997D01*
X-221931Y-45907D01*
X-221897Y-45815D01*
X-221866Y-45722D01*
X-221839Y-45627D01*
X-221816Y-45532D01*
X-221796Y-45435D01*
X-221781Y-45339D01*
X-221769Y-45241D01*
X-221761Y-45143D01*
X-221757Y-45045D01*
X-221757Y-44947D01*
X-221761Y-44849D01*
X-221769Y-44751D01*
X-221781Y-44653D01*
X-221796Y-44557D01*
X-221816Y-44460D01*
X-221839Y-44365D01*
X-221866Y-44270D01*
X-221897Y-44177D01*
X-221931Y-44085D01*
X-221969Y-43995D01*
X-222011Y-43906D01*
X-222056Y-43819D01*
X-222104Y-43733D01*
X-222156Y-43650D01*
X-222211Y-43569D01*
X-222270Y-43490D01*
X-222331Y-43413D01*
X-222396Y-43339D01*
X-222463Y-43268D01*
X-222533Y-43199D01*
X-222606Y-43133D01*
X-222681Y-43070D01*
X-222759Y-43010D01*
X-222839Y-42953D01*
X-222921Y-42900D01*
X-223006Y-42850D01*
X-223092Y-42803D01*
X-223180Y-42759D01*
X-223270Y-42720D01*
X-223361Y-42683D01*
X-223454Y-42651D01*
X-223548Y-42622D01*
X-223642Y-42597D01*
X-223738Y-42576D01*
X-223835Y-42558D01*
X-223932Y-42545D01*
X-224030Y-42535D01*
X-224128Y-42529D01*
X-224226Y-42527D01*
X-224324Y-42529D01*
X-224422Y-42535D01*
X-224520Y-42545D01*
X-224617Y-42558D01*
X-224714Y-42576D01*
X-224810Y-42597D01*
X-224904Y-42622D01*
X-224998Y-42651D01*
X-225091Y-42683D01*
X-225182Y-42720D01*
X-225272Y-42759D01*
X-225360Y-42803D01*
X-225446Y-42850D01*
X-225531Y-42900D01*
X-225613Y-42953D01*
X-225693Y-43010D01*
X-225771Y-43070D01*
X-225846Y-43133D01*
X-225919Y-43199D01*
X-225989Y-43268D01*
X-226056Y-43339D01*
X-226121Y-43413D01*
X-226182Y-43490D01*
X-226241Y-43569D01*
X-226296Y-43650D01*
X-226348Y-43733D01*
X-226396Y-43819D01*
X-226441Y-43906D01*
X-226483Y-43995D01*
X-226521Y-44085D01*
X-226555Y-44177D01*
X-226586Y-44270D01*
X-226613Y-44365D01*
X-226636Y-44460D01*
X-226656Y-44557D01*
X-226671Y-44653D01*
X-226683Y-44751D01*
X-226691Y-44849D01*
X-226695Y-44947D01*
X-226695Y-45045D01*
X-226691Y-45143D01*
X-226683Y-45241D01*
X-226671Y-45339D01*
X-226656Y-45435D01*
X-226636Y-45532D01*
X-226613Y-45627D01*
X-226586Y-45722D01*
X-226555Y-45815D01*
X-226521Y-45907D01*
X-226483Y-45997D01*
X-226441Y-46086D01*
X-226396Y-46173D01*
X-226348Y-46259D01*
X-226296Y-46342D01*
X-226241Y-46423D01*
X-226182Y-46502D01*
X-226121Y-46579D01*
X-226056Y-46653D01*
X-225989Y-46724D01*
X-225919Y-46793D01*
X-225846Y-46859D01*
X-225771Y-46922D01*
X-225693Y-46982D01*
X-225613Y-47039D01*
X-225531Y-47092D01*
X-225446Y-47142D01*
X-225360Y-47189D01*
X-225272Y-47233D01*
X-225182Y-47272D01*
X-225091Y-47309D01*
X-224998Y-47341D01*
X-224904Y-47370D01*
X-224810Y-47395D01*
X-224714Y-47416D01*
X-224617Y-47434D01*
X-224520Y-47447D01*
X-224422Y-47457D01*
X-224324Y-47463D01*
X-224226Y-47465D01*
X-219781Y-46972D02*
X-219694Y-46970D01*
X-219606Y-46964D01*
X-219519Y-46955D01*
X-219433Y-46941D01*
X-219347Y-46924D01*
X-219263Y-46903D01*
X-219179Y-46878D01*
X-219096Y-46849D01*
X-219015Y-46817D01*
X-218935Y-46782D01*
X-218857Y-46743D01*
X-218780Y-46700D01*
X-218706Y-46654D01*
X-218634Y-46605D01*
X-218564Y-46553D01*
X-218496Y-46497D01*
X-218431Y-46439D01*
X-218368Y-46378D01*
X-218309Y-46314D01*
X-218252Y-46247D01*
X-218198Y-46179D01*
X-218147Y-46107D01*
X-218100Y-46034D01*
X-218055Y-45959D01*
X-218014Y-45881D01*
X-217977Y-45802D01*
X-217943Y-45722D01*
X-217913Y-45640D01*
X-217886Y-45557D01*
X-217863Y-45472D01*
X-217844Y-45387D01*
X-217829Y-45301D01*
X-217817Y-45214D01*
X-217809Y-45127D01*
X-217805Y-45040D01*
X-217805Y-44952D01*
X-217809Y-44865D01*
X-217817Y-44778D01*
X-217829Y-44691D01*
X-217844Y-44605D01*
X-217863Y-44520D01*
X-217886Y-44435D01*
X-217913Y-44352D01*
X-217943Y-44270D01*
X-217977Y-44190D01*
X-218014Y-44111D01*
X-218055Y-44033D01*
X-218100Y-43958D01*
X-218147Y-43885D01*
X-218198Y-43813D01*
X-218252Y-43745D01*
X-218309Y-43678D01*
X-218368Y-43614D01*
X-218431Y-43553D01*
X-218496Y-43495D01*
X-218564Y-43439D01*
X-218634Y-43387D01*
X-218706Y-43338D01*
X-218780Y-43292D01*
X-218857Y-43249D01*
X-218935Y-43210D01*
X-219015Y-43175D01*
X-219096Y-43143D01*
X-219179Y-43114D01*
X-219263Y-43089D01*
X-219347Y-43068D01*
X-219433Y-43051D01*
X-219519Y-43037D01*
X-219606Y-43028D01*
X-219694Y-43022D01*
X-219781Y-43020D01*
X-219868Y-43022D01*
X-219956Y-43028D01*
X-220043Y-43037D01*
X-220129Y-43051D01*
X-220215Y-43068D01*
X-220299Y-43089D01*
X-220383Y-43114D01*
X-220466Y-43143D01*
X-220547Y-43175D01*
X-220627Y-43210D01*
X-220705Y-43249D01*
X-220782Y-43292D01*
X-220856Y-43338D01*
X-220928Y-43387D01*
X-220998Y-43439D01*
X-221066Y-43495D01*
X-221131Y-43553D01*
X-221194Y-43614D01*
X-221253Y-43678D01*
X-221310Y-43745D01*
X-221364Y-43813D01*
X-221415Y-43885D01*
X-221462Y-43958D01*
X-221507Y-44033D01*
X-221548Y-44111D01*
X-221585Y-44190D01*
X-221619Y-44270D01*
X-221649Y-44352D01*
X-221676Y-44435D01*
X-221699Y-44520D01*
X-221718Y-44605D01*
X-221733Y-44691D01*
X-221745Y-44778D01*
X-221753Y-44865D01*
X-221757Y-44952D01*
X-221757Y-45040D01*
X-221753Y-45127D01*
X-221745Y-45214D01*
X-221733Y-45301D01*
X-221718Y-45387D01*
X-221699Y-45472D01*
X-221676Y-45557D01*
X-221649Y-45640D01*
X-221619Y-45722D01*
X-221585Y-45802D01*
X-221548Y-45881D01*
X-221507Y-45959D01*
X-221462Y-46034D01*
X-221415Y-46107D01*
X-221364Y-46179D01*
X-221310Y-46247D01*
X-221253Y-46314D01*
X-221194Y-46378D01*
X-221131Y-46439D01*
X-221066Y-46497D01*
X-220998Y-46553D01*
X-220928Y-46605D01*
X-220856Y-46654D01*
X-220782Y-46700D01*
X-220705Y-46743D01*
X-220627Y-46782D01*
X-220547Y-46817D01*
X-220466Y-46849D01*
X-220383Y-46878D01*
X-220299Y-46903D01*
X-220215Y-46924D01*
X-220129Y-46941D01*
X-220043Y-46955D01*
X-219956Y-46964D01*
X-219868Y-46970D01*
X-219781Y-46972D01*
X-234296Y74295D02*
X-234296Y83185D01*
X-236766Y83185D01*
X-236864Y83183D01*
X-236962Y83177D01*
X-237060Y83167D01*
X-237157Y83154D01*
X-237254Y83136D01*
X-237350Y83115D01*
X-237444Y83090D01*
X-237538Y83061D01*
X-237631Y83029D01*
X-237722Y82992D01*
X-237812Y82953D01*
X-237900Y82909D01*
X-237986Y82862D01*
X-238071Y82812D01*
X-238153Y82759D01*
X-238233Y82702D01*
X-238311Y82642D01*
X-238386Y82579D01*
X-238459Y82513D01*
X-238529Y82444D01*
X-238596Y82373D01*
X-238661Y82299D01*
X-238722Y82222D01*
X-238781Y82143D01*
X-238836Y82062D01*
X-238888Y81979D01*
X-238936Y81893D01*
X-238981Y81806D01*
X-239023Y81717D01*
X-239061Y81627D01*
X-239095Y81535D01*
X-239126Y81442D01*
X-239153Y81347D01*
X-239176Y81252D01*
X-239196Y81155D01*
X-239211Y81059D01*
X-239223Y80961D01*
X-239231Y80863D01*
X-239235Y80765D01*
X-239235Y80667D01*
X-239231Y80569D01*
X-239223Y80471D01*
X-239211Y80373D01*
X-239196Y80277D01*
X-239176Y80180D01*
X-239153Y80085D01*
X-239126Y79990D01*
X-239095Y79897D01*
X-239061Y79805D01*
X-239023Y79715D01*
X-238981Y79626D01*
X-238936Y79539D01*
X-238888Y79453D01*
X-238836Y79370D01*
X-238781Y79289D01*
X-238722Y79210D01*
X-238661Y79133D01*
X-238596Y79059D01*
X-238529Y78988D01*
X-238459Y78919D01*
X-238386Y78853D01*
X-238311Y78790D01*
X-238233Y78730D01*
X-238153Y78673D01*
X-238071Y78620D01*
X-237986Y78570D01*
X-237900Y78523D01*
X-237812Y78479D01*
X-237722Y78440D01*
X-237631Y78403D01*
X-237538Y78371D01*
X-237444Y78342D01*
X-237350Y78317D01*
X-237254Y78296D01*
X-237157Y78278D01*
X-237060Y78265D01*
X-236962Y78255D01*
X-236864Y78249D01*
X-236766Y78247D01*
X-236766Y78246D02*
X-234296Y78246D01*
X-237260Y78246D02*
X-239235Y74295D01*
X-245340Y78246D02*
X-248304Y78246D01*
X-245340Y78246D02*
X-245254Y78248D01*
X-245168Y78254D01*
X-245082Y78263D01*
X-244997Y78276D01*
X-244912Y78293D01*
X-244829Y78313D01*
X-244746Y78337D01*
X-244664Y78365D01*
X-244584Y78396D01*
X-244505Y78431D01*
X-244428Y78469D01*
X-244352Y78511D01*
X-244278Y78555D01*
X-244207Y78603D01*
X-244137Y78654D01*
X-244070Y78708D01*
X-244005Y78765D01*
X-243943Y78825D01*
X-243883Y78887D01*
X-243826Y78952D01*
X-243772Y79019D01*
X-243721Y79089D01*
X-243673Y79160D01*
X-243629Y79234D01*
X-243587Y79310D01*
X-243549Y79387D01*
X-243514Y79466D01*
X-243483Y79546D01*
X-243455Y79628D01*
X-243431Y79711D01*
X-243411Y79794D01*
X-243394Y79879D01*
X-243381Y79964D01*
X-243372Y80050D01*
X-243366Y80136D01*
X-243364Y80222D01*
X-243365Y80222D02*
X-243365Y80716D01*
X-243367Y80814D01*
X-243373Y80912D01*
X-243383Y81010D01*
X-243396Y81107D01*
X-243414Y81204D01*
X-243435Y81300D01*
X-243460Y81394D01*
X-243489Y81488D01*
X-243521Y81581D01*
X-243558Y81672D01*
X-243597Y81762D01*
X-243641Y81850D01*
X-243688Y81936D01*
X-243738Y82021D01*
X-243791Y82103D01*
X-243848Y82183D01*
X-243908Y82261D01*
X-243971Y82336D01*
X-244037Y82409D01*
X-244106Y82479D01*
X-244177Y82546D01*
X-244251Y82611D01*
X-244328Y82672D01*
X-244407Y82731D01*
X-244488Y82786D01*
X-244571Y82838D01*
X-244657Y82886D01*
X-244744Y82931D01*
X-244833Y82973D01*
X-244923Y83011D01*
X-245015Y83045D01*
X-245108Y83076D01*
X-245203Y83103D01*
X-245298Y83126D01*
X-245395Y83146D01*
X-245491Y83161D01*
X-245589Y83173D01*
X-245687Y83181D01*
X-245785Y83185D01*
X-245883Y83185D01*
X-245981Y83181D01*
X-246079Y83173D01*
X-246177Y83161D01*
X-246273Y83146D01*
X-246370Y83126D01*
X-246465Y83103D01*
X-246560Y83076D01*
X-246653Y83045D01*
X-246745Y83011D01*
X-246835Y82973D01*
X-246924Y82931D01*
X-247011Y82886D01*
X-247097Y82838D01*
X-247180Y82786D01*
X-247261Y82731D01*
X-247340Y82672D01*
X-247417Y82611D01*
X-247491Y82546D01*
X-247562Y82479D01*
X-247631Y82409D01*
X-247697Y82336D01*
X-247760Y82261D01*
X-247820Y82183D01*
X-247877Y82103D01*
X-247930Y82021D01*
X-247980Y81936D01*
X-248027Y81850D01*
X-248071Y81762D01*
X-248110Y81672D01*
X-248147Y81581D01*
X-248179Y81488D01*
X-248208Y81394D01*
X-248233Y81300D01*
X-248254Y81204D01*
X-248272Y81107D01*
X-248285Y81010D01*
X-248295Y80912D01*
X-248301Y80814D01*
X-248303Y80716D01*
X-248304Y80716D02*
X-248304Y78246D01*
X-248302Y78122D01*
X-248296Y77998D01*
X-248286Y77874D01*
X-248273Y77751D01*
X-248255Y77628D01*
X-248234Y77506D01*
X-248209Y77384D01*
X-248180Y77263D01*
X-248147Y77144D01*
X-248111Y77025D01*
X-248070Y76908D01*
X-248027Y76792D01*
X-247979Y76677D01*
X-247928Y76564D01*
X-247873Y76452D01*
X-247815Y76343D01*
X-247754Y76235D01*
X-247689Y76129D01*
X-247621Y76025D01*
X-247549Y75924D01*
X-247475Y75824D01*
X-247397Y75728D01*
X-247317Y75633D01*
X-247233Y75541D01*
X-247147Y75452D01*
X-247058Y75366D01*
X-246966Y75282D01*
X-246871Y75202D01*
X-246775Y75124D01*
X-246675Y75050D01*
X-246574Y74978D01*
X-246470Y74910D01*
X-246364Y74845D01*
X-246256Y74784D01*
X-246147Y74726D01*
X-246035Y74671D01*
X-245922Y74620D01*
X-245807Y74572D01*
X-245691Y74529D01*
X-245574Y74488D01*
X-245455Y74452D01*
X-245336Y74419D01*
X-245215Y74390D01*
X-245093Y74365D01*
X-244971Y74344D01*
X-244848Y74326D01*
X-244725Y74313D01*
X-244601Y74303D01*
X-244477Y74297D01*
X-244353Y74295D01*
D56*
X-121920Y-8890D02*
X-121918Y-8819D01*
X-121912Y-8748D01*
X-121902Y-8677D01*
X-121888Y-8607D01*
X-121870Y-8538D01*
X-121849Y-8471D01*
X-121823Y-8404D01*
X-121794Y-8339D01*
X-121762Y-8276D01*
X-121725Y-8214D01*
X-121686Y-8155D01*
X-121643Y-8098D01*
X-121597Y-8044D01*
X-121548Y-7992D01*
X-121496Y-7943D01*
X-121442Y-7897D01*
X-121385Y-7854D01*
X-121326Y-7815D01*
X-121264Y-7778D01*
X-121201Y-7746D01*
X-121136Y-7717D01*
X-121069Y-7691D01*
X-121002Y-7670D01*
X-120933Y-7652D01*
X-120863Y-7638D01*
X-120792Y-7628D01*
X-120721Y-7622D01*
X-120650Y-7620D01*
X-120579Y-7622D01*
X-120508Y-7628D01*
X-120437Y-7638D01*
X-120367Y-7652D01*
X-120298Y-7670D01*
X-120231Y-7691D01*
X-120164Y-7717D01*
X-120099Y-7746D01*
X-120036Y-7778D01*
X-119974Y-7815D01*
X-119915Y-7854D01*
X-119858Y-7897D01*
X-119804Y-7943D01*
X-119752Y-7992D01*
X-119703Y-8044D01*
X-119657Y-8098D01*
X-119614Y-8155D01*
X-119575Y-8214D01*
X-119538Y-8276D01*
X-119506Y-8339D01*
X-119477Y-8404D01*
X-119451Y-8471D01*
X-119430Y-8538D01*
X-119412Y-8607D01*
X-119398Y-8677D01*
X-119388Y-8748D01*
X-119382Y-8819D01*
X-119380Y-8890D01*
X-119382Y-8961D01*
X-119388Y-9032D01*
X-119398Y-9103D01*
X-119412Y-9173D01*
X-119430Y-9242D01*
X-119451Y-9309D01*
X-119477Y-9376D01*
X-119506Y-9441D01*
X-119538Y-9504D01*
X-119575Y-9566D01*
X-119614Y-9625D01*
X-119657Y-9682D01*
X-119703Y-9736D01*
X-119752Y-9788D01*
X-119804Y-9837D01*
X-119858Y-9883D01*
X-119915Y-9926D01*
X-119974Y-9965D01*
X-120036Y-10002D01*
X-120099Y-10034D01*
X-120164Y-10063D01*
X-120231Y-10089D01*
X-120298Y-10110D01*
X-120367Y-10128D01*
X-120437Y-10142D01*
X-120508Y-10152D01*
X-120579Y-10158D01*
X-120650Y-10160D01*
X-120721Y-10158D01*
X-120792Y-10152D01*
X-120863Y-10142D01*
X-120933Y-10128D01*
X-121002Y-10110D01*
X-121069Y-10089D01*
X-121136Y-10063D01*
X-121201Y-10034D01*
X-121264Y-10002D01*
X-121326Y-9965D01*
X-121385Y-9926D01*
X-121442Y-9883D01*
X-121496Y-9837D01*
X-121548Y-9788D01*
X-121597Y-9736D01*
X-121643Y-9682D01*
X-121686Y-9625D01*
X-121725Y-9566D01*
X-121762Y-9504D01*
X-121794Y-9441D01*
X-121823Y-9376D01*
X-121849Y-9309D01*
X-121870Y-9242D01*
X-121888Y-9173D01*
X-121902Y-9103D01*
X-121912Y-9032D01*
X-121918Y-8961D01*
X-121920Y-8890D01*
D11*
X-115570Y-12700D02*
X-115570Y12700D01*
X-214630Y12700D02*
X-214630Y-12700D01*
X-225216Y-9525D02*
X-225216Y-15946D01*
X-225217Y-15946D02*
X-225219Y-16044D01*
X-225225Y-16142D01*
X-225235Y-16240D01*
X-225248Y-16337D01*
X-225266Y-16434D01*
X-225287Y-16530D01*
X-225312Y-16624D01*
X-225341Y-16718D01*
X-225373Y-16811D01*
X-225410Y-16902D01*
X-225449Y-16992D01*
X-225493Y-17080D01*
X-225540Y-17166D01*
X-225590Y-17251D01*
X-225643Y-17333D01*
X-225700Y-17413D01*
X-225760Y-17491D01*
X-225823Y-17566D01*
X-225889Y-17639D01*
X-225958Y-17709D01*
X-226029Y-17776D01*
X-226103Y-17841D01*
X-226180Y-17902D01*
X-226259Y-17961D01*
X-226340Y-18016D01*
X-226423Y-18068D01*
X-226509Y-18116D01*
X-226596Y-18161D01*
X-226685Y-18203D01*
X-226775Y-18241D01*
X-226867Y-18275D01*
X-226960Y-18306D01*
X-227055Y-18333D01*
X-227150Y-18356D01*
X-227247Y-18376D01*
X-227343Y-18391D01*
X-227441Y-18403D01*
X-227539Y-18411D01*
X-227637Y-18415D01*
X-227735Y-18415D01*
X-227833Y-18411D01*
X-227931Y-18403D01*
X-228029Y-18391D01*
X-228125Y-18376D01*
X-228222Y-18356D01*
X-228317Y-18333D01*
X-228412Y-18306D01*
X-228505Y-18275D01*
X-228597Y-18241D01*
X-228687Y-18203D01*
X-228776Y-18161D01*
X-228863Y-18116D01*
X-228949Y-18068D01*
X-229032Y-18016D01*
X-229113Y-17961D01*
X-229192Y-17902D01*
X-229269Y-17841D01*
X-229343Y-17776D01*
X-229414Y-17709D01*
X-229483Y-17639D01*
X-229549Y-17566D01*
X-229612Y-17491D01*
X-229672Y-17413D01*
X-229729Y-17333D01*
X-229782Y-17251D01*
X-229832Y-17166D01*
X-229879Y-17080D01*
X-229923Y-16992D01*
X-229962Y-16902D01*
X-229999Y-16811D01*
X-230031Y-16718D01*
X-230060Y-16624D01*
X-230085Y-16530D01*
X-230106Y-16434D01*
X-230124Y-16337D01*
X-230137Y-16240D01*
X-230147Y-16142D01*
X-230153Y-16044D01*
X-230155Y-15946D01*
X-230155Y-9525D01*
X-234665Y-11501D02*
X-237134Y-9525D01*
X-237134Y-18415D01*
X-234665Y-18415D02*
X-239604Y-18415D01*
D56*
X-304320Y-8890D02*
X-304318Y-8819D01*
X-304312Y-8748D01*
X-304302Y-8677D01*
X-304288Y-8607D01*
X-304270Y-8538D01*
X-304249Y-8471D01*
X-304223Y-8404D01*
X-304194Y-8339D01*
X-304162Y-8276D01*
X-304125Y-8214D01*
X-304086Y-8155D01*
X-304043Y-8098D01*
X-303997Y-8044D01*
X-303948Y-7992D01*
X-303896Y-7943D01*
X-303842Y-7897D01*
X-303785Y-7854D01*
X-303726Y-7815D01*
X-303664Y-7778D01*
X-303601Y-7746D01*
X-303536Y-7717D01*
X-303469Y-7691D01*
X-303402Y-7670D01*
X-303333Y-7652D01*
X-303263Y-7638D01*
X-303192Y-7628D01*
X-303121Y-7622D01*
X-303050Y-7620D01*
X-302979Y-7622D01*
X-302908Y-7628D01*
X-302837Y-7638D01*
X-302767Y-7652D01*
X-302698Y-7670D01*
X-302631Y-7691D01*
X-302564Y-7717D01*
X-302499Y-7746D01*
X-302436Y-7778D01*
X-302374Y-7815D01*
X-302315Y-7854D01*
X-302258Y-7897D01*
X-302204Y-7943D01*
X-302152Y-7992D01*
X-302103Y-8044D01*
X-302057Y-8098D01*
X-302014Y-8155D01*
X-301975Y-8214D01*
X-301938Y-8276D01*
X-301906Y-8339D01*
X-301877Y-8404D01*
X-301851Y-8471D01*
X-301830Y-8538D01*
X-301812Y-8607D01*
X-301798Y-8677D01*
X-301788Y-8748D01*
X-301782Y-8819D01*
X-301780Y-8890D01*
X-301782Y-8961D01*
X-301788Y-9032D01*
X-301798Y-9103D01*
X-301812Y-9173D01*
X-301830Y-9242D01*
X-301851Y-9309D01*
X-301877Y-9376D01*
X-301906Y-9441D01*
X-301938Y-9504D01*
X-301975Y-9566D01*
X-302014Y-9625D01*
X-302057Y-9682D01*
X-302103Y-9736D01*
X-302152Y-9788D01*
X-302204Y-9837D01*
X-302258Y-9883D01*
X-302315Y-9926D01*
X-302374Y-9965D01*
X-302436Y-10002D01*
X-302499Y-10034D01*
X-302564Y-10063D01*
X-302631Y-10089D01*
X-302698Y-10110D01*
X-302767Y-10128D01*
X-302837Y-10142D01*
X-302908Y-10152D01*
X-302979Y-10158D01*
X-303050Y-10160D01*
X-303121Y-10158D01*
X-303192Y-10152D01*
X-303263Y-10142D01*
X-303333Y-10128D01*
X-303402Y-10110D01*
X-303469Y-10089D01*
X-303536Y-10063D01*
X-303601Y-10034D01*
X-303664Y-10002D01*
X-303726Y-9965D01*
X-303785Y-9926D01*
X-303842Y-9883D01*
X-303896Y-9837D01*
X-303948Y-9788D01*
X-303997Y-9736D01*
X-304043Y-9682D01*
X-304086Y-9625D01*
X-304125Y-9566D01*
X-304162Y-9504D01*
X-304194Y-9441D01*
X-304223Y-9376D01*
X-304249Y-9309D01*
X-304270Y-9242D01*
X-304288Y-9173D01*
X-304302Y-9103D01*
X-304312Y-9032D01*
X-304318Y-8961D01*
X-304320Y-8890D01*
D11*
X-297970Y-12700D02*
X-297970Y12700D01*
X-397030Y12700D02*
X-397030Y-12700D01*
X-406826Y-10315D02*
X-406826Y-16736D01*
X-406827Y-16736D02*
X-406829Y-16834D01*
X-406835Y-16932D01*
X-406845Y-17030D01*
X-406858Y-17127D01*
X-406876Y-17224D01*
X-406897Y-17320D01*
X-406922Y-17414D01*
X-406951Y-17508D01*
X-406983Y-17601D01*
X-407020Y-17692D01*
X-407059Y-17782D01*
X-407103Y-17870D01*
X-407150Y-17956D01*
X-407200Y-18041D01*
X-407253Y-18123D01*
X-407310Y-18203D01*
X-407370Y-18281D01*
X-407433Y-18356D01*
X-407499Y-18429D01*
X-407568Y-18499D01*
X-407639Y-18566D01*
X-407713Y-18631D01*
X-407790Y-18692D01*
X-407869Y-18751D01*
X-407950Y-18806D01*
X-408033Y-18858D01*
X-408119Y-18906D01*
X-408206Y-18951D01*
X-408295Y-18993D01*
X-408385Y-19031D01*
X-408477Y-19065D01*
X-408570Y-19096D01*
X-408665Y-19123D01*
X-408760Y-19146D01*
X-408857Y-19166D01*
X-408953Y-19181D01*
X-409051Y-19193D01*
X-409149Y-19201D01*
X-409247Y-19205D01*
X-409345Y-19205D01*
X-409443Y-19201D01*
X-409541Y-19193D01*
X-409639Y-19181D01*
X-409735Y-19166D01*
X-409832Y-19146D01*
X-409927Y-19123D01*
X-410022Y-19096D01*
X-410115Y-19065D01*
X-410207Y-19031D01*
X-410297Y-18993D01*
X-410386Y-18951D01*
X-410473Y-18906D01*
X-410559Y-18858D01*
X-410642Y-18806D01*
X-410723Y-18751D01*
X-410802Y-18692D01*
X-410879Y-18631D01*
X-410953Y-18566D01*
X-411024Y-18499D01*
X-411093Y-18429D01*
X-411159Y-18356D01*
X-411222Y-18281D01*
X-411282Y-18203D01*
X-411339Y-18123D01*
X-411392Y-18041D01*
X-411442Y-17956D01*
X-411489Y-17870D01*
X-411533Y-17782D01*
X-411572Y-17692D01*
X-411609Y-17601D01*
X-411641Y-17508D01*
X-411670Y-17414D01*
X-411695Y-17320D01*
X-411716Y-17224D01*
X-411734Y-17127D01*
X-411747Y-17030D01*
X-411757Y-16932D01*
X-411763Y-16834D01*
X-411765Y-16736D01*
X-411765Y-10315D01*
X-418991Y-10315D02*
X-419083Y-10317D01*
X-419175Y-10323D01*
X-419266Y-10332D01*
X-419357Y-10345D01*
X-419447Y-10362D01*
X-419537Y-10383D01*
X-419625Y-10407D01*
X-419713Y-10435D01*
X-419799Y-10467D01*
X-419884Y-10502D01*
X-419967Y-10541D01*
X-420049Y-10583D01*
X-420129Y-10628D01*
X-420207Y-10677D01*
X-420283Y-10729D01*
X-420356Y-10784D01*
X-420428Y-10842D01*
X-420497Y-10902D01*
X-420563Y-10966D01*
X-420627Y-11032D01*
X-420687Y-11101D01*
X-420745Y-11173D01*
X-420800Y-11246D01*
X-420852Y-11322D01*
X-420901Y-11400D01*
X-420946Y-11480D01*
X-420988Y-11562D01*
X-421027Y-11645D01*
X-421062Y-11730D01*
X-421094Y-11816D01*
X-421122Y-11904D01*
X-421146Y-11992D01*
X-421167Y-12082D01*
X-421184Y-12172D01*
X-421197Y-12263D01*
X-421206Y-12354D01*
X-421212Y-12446D01*
X-421214Y-12538D01*
X-418991Y-10315D02*
X-418885Y-10317D01*
X-418780Y-10323D01*
X-418675Y-10333D01*
X-418570Y-10346D01*
X-418466Y-10364D01*
X-418363Y-10385D01*
X-418260Y-10410D01*
X-418158Y-10439D01*
X-418058Y-10472D01*
X-417959Y-10508D01*
X-417861Y-10548D01*
X-417765Y-10592D01*
X-417670Y-10639D01*
X-417578Y-10689D01*
X-417487Y-10743D01*
X-417398Y-10801D01*
X-417312Y-10861D01*
X-417228Y-10925D01*
X-417146Y-10991D01*
X-417066Y-11061D01*
X-416990Y-11134D01*
X-416916Y-11209D01*
X-416845Y-11287D01*
X-416777Y-11368D01*
X-416711Y-11451D01*
X-416649Y-11537D01*
X-416591Y-11624D01*
X-416535Y-11714D01*
X-416483Y-11806D01*
X-416434Y-11900D01*
X-416389Y-11995D01*
X-416347Y-12092D01*
X-416309Y-12191D01*
X-416275Y-12290D01*
X-420473Y-14267D02*
X-420542Y-14198D01*
X-420608Y-14128D01*
X-420671Y-14054D01*
X-420730Y-13978D01*
X-420787Y-13900D01*
X-420841Y-13820D01*
X-420891Y-13737D01*
X-420938Y-13653D01*
X-420981Y-13566D01*
X-421021Y-13478D01*
X-421057Y-13389D01*
X-421090Y-13298D01*
X-421119Y-13206D01*
X-421144Y-13112D01*
X-421165Y-13018D01*
X-421183Y-12923D01*
X-421196Y-12827D01*
X-421206Y-12731D01*
X-421212Y-12635D01*
X-421214Y-12538D01*
X-420473Y-14266D02*
X-416275Y-19205D01*
X-421214Y-19205D01*
D55*
X155700Y-41150D02*
X155700Y-111250D01*
X155700Y-41150D02*
X85600Y-41150D01*
X85600Y-107700D01*
X89150Y-111250D02*
X155700Y-111250D01*
X89150Y-111250D02*
X85600Y-107700D01*
X89626Y-103632D02*
X89628Y-103513D01*
X89634Y-103393D01*
X89644Y-103274D01*
X89658Y-103156D01*
X89676Y-103038D01*
X89697Y-102920D01*
X89723Y-102804D01*
X89752Y-102688D01*
X89786Y-102573D01*
X89823Y-102460D01*
X89864Y-102348D01*
X89908Y-102237D01*
X89956Y-102127D01*
X90008Y-102020D01*
X90063Y-101914D01*
X90122Y-101810D01*
X90185Y-101708D01*
X90250Y-101609D01*
X90319Y-101511D01*
X90391Y-101416D01*
X90466Y-101323D01*
X90545Y-101233D01*
X90626Y-101145D01*
X90710Y-101061D01*
X90797Y-100979D01*
X90886Y-100900D01*
X90978Y-100824D01*
X91073Y-100751D01*
X91170Y-100681D01*
X91269Y-100615D01*
X91371Y-100552D01*
X91474Y-100492D01*
X91579Y-100436D01*
X91686Y-100383D01*
X91795Y-100334D01*
X91906Y-100288D01*
X92018Y-100247D01*
X92131Y-100209D01*
X92245Y-100174D01*
X92361Y-100144D01*
X92477Y-100117D01*
X92594Y-100095D01*
X92712Y-100076D01*
X92831Y-100061D01*
X92950Y-100050D01*
X93069Y-100043D01*
X93188Y-100040D01*
X93308Y-100041D01*
X93427Y-100046D01*
X93546Y-100055D01*
X93665Y-100068D01*
X93783Y-100085D01*
X93900Y-100105D01*
X94017Y-100130D01*
X94133Y-100159D01*
X94248Y-100191D01*
X94362Y-100227D01*
X94475Y-100267D01*
X94586Y-100311D01*
X94695Y-100358D01*
X94803Y-100409D01*
X94910Y-100463D01*
X95014Y-100521D01*
X95116Y-100583D01*
X95217Y-100647D01*
X95315Y-100716D01*
X95411Y-100787D01*
X95504Y-100861D01*
X95595Y-100939D01*
X95683Y-101019D01*
X95768Y-101103D01*
X95851Y-101189D01*
X95931Y-101278D01*
X96008Y-101369D01*
X96081Y-101463D01*
X96152Y-101560D01*
X96219Y-101658D01*
X96283Y-101759D01*
X96344Y-101862D01*
X96401Y-101967D01*
X96454Y-102073D01*
X96504Y-102182D01*
X96551Y-102292D01*
X96593Y-102403D01*
X96632Y-102516D01*
X96668Y-102630D01*
X96699Y-102746D01*
X96726Y-102862D01*
X96750Y-102979D01*
X96770Y-103097D01*
X96786Y-103215D01*
X96798Y-103334D01*
X96806Y-103453D01*
X96810Y-103572D01*
X96810Y-103692D01*
X96806Y-103811D01*
X96798Y-103930D01*
X96786Y-104049D01*
X96770Y-104167D01*
X96750Y-104285D01*
X96726Y-104402D01*
X96699Y-104518D01*
X96668Y-104634D01*
X96632Y-104748D01*
X96593Y-104861D01*
X96551Y-104972D01*
X96504Y-105082D01*
X96454Y-105191D01*
X96401Y-105297D01*
X96344Y-105402D01*
X96283Y-105505D01*
X96219Y-105606D01*
X96152Y-105704D01*
X96081Y-105801D01*
X96008Y-105895D01*
X95931Y-105986D01*
X95851Y-106075D01*
X95768Y-106161D01*
X95683Y-106245D01*
X95595Y-106325D01*
X95504Y-106403D01*
X95411Y-106477D01*
X95315Y-106548D01*
X95217Y-106617D01*
X95116Y-106681D01*
X95014Y-106743D01*
X94910Y-106801D01*
X94803Y-106855D01*
X94695Y-106906D01*
X94586Y-106953D01*
X94475Y-106997D01*
X94362Y-107037D01*
X94248Y-107073D01*
X94133Y-107105D01*
X94017Y-107134D01*
X93900Y-107159D01*
X93783Y-107179D01*
X93665Y-107196D01*
X93546Y-107209D01*
X93427Y-107218D01*
X93308Y-107223D01*
X93188Y-107224D01*
X93069Y-107221D01*
X92950Y-107214D01*
X92831Y-107203D01*
X92712Y-107188D01*
X92594Y-107169D01*
X92477Y-107147D01*
X92361Y-107120D01*
X92245Y-107090D01*
X92131Y-107055D01*
X92018Y-107017D01*
X91906Y-106976D01*
X91795Y-106930D01*
X91686Y-106881D01*
X91579Y-106828D01*
X91474Y-106772D01*
X91371Y-106712D01*
X91269Y-106649D01*
X91170Y-106583D01*
X91073Y-106513D01*
X90978Y-106440D01*
X90886Y-106364D01*
X90797Y-106285D01*
X90710Y-106203D01*
X90626Y-106119D01*
X90545Y-106031D01*
X90466Y-105941D01*
X90391Y-105848D01*
X90319Y-105753D01*
X90250Y-105655D01*
X90185Y-105556D01*
X90122Y-105454D01*
X90063Y-105350D01*
X90008Y-105244D01*
X89956Y-105137D01*
X89908Y-105027D01*
X89864Y-104916D01*
X89823Y-104804D01*
X89786Y-104691D01*
X89752Y-104576D01*
X89723Y-104460D01*
X89697Y-104344D01*
X89676Y-104226D01*
X89658Y-104108D01*
X89644Y-103990D01*
X89634Y-103871D01*
X89628Y-103751D01*
X89626Y-103632D01*
D11*
X80391Y-114935D02*
X80391Y-121356D01*
X80389Y-121454D01*
X80383Y-121552D01*
X80373Y-121650D01*
X80360Y-121747D01*
X80342Y-121844D01*
X80321Y-121940D01*
X80296Y-122034D01*
X80267Y-122128D01*
X80235Y-122221D01*
X80198Y-122312D01*
X80159Y-122402D01*
X80115Y-122490D01*
X80068Y-122576D01*
X80018Y-122661D01*
X79965Y-122743D01*
X79908Y-122823D01*
X79848Y-122901D01*
X79785Y-122976D01*
X79719Y-123049D01*
X79650Y-123119D01*
X79579Y-123186D01*
X79505Y-123251D01*
X79428Y-123312D01*
X79349Y-123371D01*
X79268Y-123426D01*
X79185Y-123478D01*
X79099Y-123526D01*
X79012Y-123571D01*
X78923Y-123613D01*
X78833Y-123651D01*
X78741Y-123685D01*
X78648Y-123716D01*
X78553Y-123743D01*
X78458Y-123766D01*
X78361Y-123786D01*
X78265Y-123801D01*
X78167Y-123813D01*
X78069Y-123821D01*
X77971Y-123825D01*
X77873Y-123825D01*
X77775Y-123821D01*
X77677Y-123813D01*
X77579Y-123801D01*
X77483Y-123786D01*
X77386Y-123766D01*
X77291Y-123743D01*
X77196Y-123716D01*
X77103Y-123685D01*
X77011Y-123651D01*
X76921Y-123613D01*
X76832Y-123571D01*
X76745Y-123526D01*
X76659Y-123478D01*
X76576Y-123426D01*
X76495Y-123371D01*
X76416Y-123312D01*
X76339Y-123251D01*
X76265Y-123186D01*
X76194Y-123119D01*
X76125Y-123049D01*
X76059Y-122976D01*
X75996Y-122901D01*
X75936Y-122823D01*
X75879Y-122743D01*
X75826Y-122661D01*
X75776Y-122576D01*
X75729Y-122490D01*
X75685Y-122402D01*
X75646Y-122312D01*
X75609Y-122221D01*
X75577Y-122128D01*
X75548Y-122034D01*
X75523Y-121940D01*
X75502Y-121844D01*
X75484Y-121747D01*
X75471Y-121650D01*
X75461Y-121552D01*
X75455Y-121454D01*
X75453Y-121356D01*
X75452Y-121356D02*
X75452Y-114935D01*
X70942Y-123825D02*
X68473Y-123825D01*
X68375Y-123823D01*
X68277Y-123817D01*
X68179Y-123807D01*
X68082Y-123794D01*
X67985Y-123776D01*
X67889Y-123755D01*
X67795Y-123730D01*
X67701Y-123701D01*
X67608Y-123669D01*
X67517Y-123632D01*
X67427Y-123593D01*
X67339Y-123549D01*
X67253Y-123502D01*
X67168Y-123452D01*
X67086Y-123399D01*
X67006Y-123342D01*
X66928Y-123282D01*
X66853Y-123219D01*
X66780Y-123153D01*
X66710Y-123084D01*
X66643Y-123013D01*
X66578Y-122939D01*
X66517Y-122862D01*
X66458Y-122783D01*
X66403Y-122702D01*
X66351Y-122619D01*
X66303Y-122533D01*
X66258Y-122446D01*
X66216Y-122357D01*
X66178Y-122267D01*
X66144Y-122175D01*
X66113Y-122082D01*
X66086Y-121987D01*
X66063Y-121892D01*
X66043Y-121795D01*
X66028Y-121699D01*
X66016Y-121601D01*
X66008Y-121503D01*
X66004Y-121405D01*
X66004Y-121307D01*
X66008Y-121209D01*
X66016Y-121111D01*
X66028Y-121013D01*
X66043Y-120917D01*
X66063Y-120820D01*
X66086Y-120725D01*
X66113Y-120630D01*
X66144Y-120537D01*
X66178Y-120445D01*
X66216Y-120355D01*
X66258Y-120266D01*
X66303Y-120179D01*
X66351Y-120093D01*
X66403Y-120010D01*
X66458Y-119929D01*
X66517Y-119850D01*
X66578Y-119773D01*
X66643Y-119699D01*
X66710Y-119628D01*
X66780Y-119559D01*
X66853Y-119493D01*
X66928Y-119430D01*
X67006Y-119370D01*
X67086Y-119313D01*
X67168Y-119260D01*
X67253Y-119210D01*
X67339Y-119163D01*
X67427Y-119119D01*
X67517Y-119080D01*
X67608Y-119043D01*
X67701Y-119011D01*
X67795Y-118982D01*
X67889Y-118957D01*
X67985Y-118936D01*
X68082Y-118918D01*
X68179Y-118905D01*
X68277Y-118895D01*
X68375Y-118889D01*
X68473Y-118887D01*
X67979Y-114935D02*
X70942Y-114935D01*
X67979Y-114935D02*
X67892Y-114937D01*
X67804Y-114943D01*
X67717Y-114952D01*
X67631Y-114966D01*
X67545Y-114983D01*
X67461Y-115004D01*
X67377Y-115029D01*
X67294Y-115058D01*
X67213Y-115090D01*
X67133Y-115125D01*
X67055Y-115164D01*
X66978Y-115207D01*
X66904Y-115253D01*
X66832Y-115302D01*
X66762Y-115354D01*
X66694Y-115410D01*
X66629Y-115468D01*
X66566Y-115529D01*
X66507Y-115593D01*
X66450Y-115660D01*
X66396Y-115728D01*
X66345Y-115800D01*
X66298Y-115873D01*
X66253Y-115948D01*
X66212Y-116026D01*
X66175Y-116105D01*
X66141Y-116185D01*
X66111Y-116267D01*
X66084Y-116350D01*
X66061Y-116435D01*
X66042Y-116520D01*
X66027Y-116606D01*
X66015Y-116693D01*
X66007Y-116780D01*
X66003Y-116867D01*
X66003Y-116955D01*
X66007Y-117042D01*
X66015Y-117129D01*
X66027Y-117216D01*
X66042Y-117302D01*
X66061Y-117387D01*
X66084Y-117472D01*
X66111Y-117555D01*
X66141Y-117637D01*
X66175Y-117717D01*
X66212Y-117796D01*
X66253Y-117874D01*
X66298Y-117949D01*
X66345Y-118022D01*
X66396Y-118094D01*
X66450Y-118162D01*
X66507Y-118229D01*
X66566Y-118293D01*
X66629Y-118354D01*
X66694Y-118412D01*
X66762Y-118468D01*
X66832Y-118520D01*
X66904Y-118569D01*
X66978Y-118615D01*
X67055Y-118658D01*
X67133Y-118697D01*
X67213Y-118732D01*
X67294Y-118764D01*
X67377Y-118793D01*
X67461Y-118818D01*
X67545Y-118839D01*
X67631Y-118856D01*
X67717Y-118870D01*
X67804Y-118879D01*
X67892Y-118885D01*
X67979Y-118887D01*
X67979Y-118886D02*
X69954Y-118886D01*
X-27794Y-10795D02*
X-27794Y-1905D01*
X-30264Y-1905D01*
X-30362Y-1907D01*
X-30460Y-1913D01*
X-30558Y-1923D01*
X-30655Y-1936D01*
X-30752Y-1954D01*
X-30848Y-1975D01*
X-30942Y-2000D01*
X-31036Y-2029D01*
X-31129Y-2061D01*
X-31220Y-2098D01*
X-31310Y-2137D01*
X-31398Y-2181D01*
X-31484Y-2228D01*
X-31569Y-2278D01*
X-31651Y-2331D01*
X-31731Y-2388D01*
X-31809Y-2448D01*
X-31884Y-2511D01*
X-31957Y-2577D01*
X-32027Y-2646D01*
X-32094Y-2717D01*
X-32159Y-2791D01*
X-32220Y-2868D01*
X-32279Y-2947D01*
X-32334Y-3028D01*
X-32386Y-3111D01*
X-32434Y-3197D01*
X-32479Y-3284D01*
X-32521Y-3373D01*
X-32559Y-3463D01*
X-32593Y-3555D01*
X-32624Y-3648D01*
X-32651Y-3743D01*
X-32674Y-3838D01*
X-32694Y-3935D01*
X-32709Y-4031D01*
X-32721Y-4129D01*
X-32729Y-4227D01*
X-32733Y-4325D01*
X-32733Y-4423D01*
X-32729Y-4521D01*
X-32721Y-4619D01*
X-32709Y-4717D01*
X-32694Y-4813D01*
X-32674Y-4910D01*
X-32651Y-5005D01*
X-32624Y-5100D01*
X-32593Y-5193D01*
X-32559Y-5285D01*
X-32521Y-5375D01*
X-32479Y-5464D01*
X-32434Y-5551D01*
X-32386Y-5637D01*
X-32334Y-5720D01*
X-32279Y-5801D01*
X-32220Y-5880D01*
X-32159Y-5957D01*
X-32094Y-6031D01*
X-32027Y-6102D01*
X-31957Y-6171D01*
X-31884Y-6237D01*
X-31809Y-6300D01*
X-31731Y-6360D01*
X-31651Y-6417D01*
X-31569Y-6470D01*
X-31484Y-6520D01*
X-31398Y-6567D01*
X-31310Y-6611D01*
X-31220Y-6650D01*
X-31129Y-6687D01*
X-31036Y-6719D01*
X-30942Y-6748D01*
X-30848Y-6773D01*
X-30752Y-6794D01*
X-30655Y-6812D01*
X-30558Y-6825D01*
X-30460Y-6835D01*
X-30362Y-6841D01*
X-30264Y-6843D01*
X-30264Y-6844D02*
X-27794Y-6844D01*
X-30758Y-6844D02*
X-32733Y-10795D01*
X-36863Y-3881D02*
X-39332Y-1905D01*
X-39332Y-10795D01*
X-36863Y-10795D02*
X-41802Y-10795D01*
X-48723Y-1905D02*
X-48815Y-1907D01*
X-48907Y-1913D01*
X-48998Y-1922D01*
X-49089Y-1935D01*
X-49179Y-1952D01*
X-49269Y-1973D01*
X-49357Y-1997D01*
X-49445Y-2025D01*
X-49531Y-2057D01*
X-49616Y-2092D01*
X-49699Y-2131D01*
X-49781Y-2173D01*
X-49861Y-2218D01*
X-49939Y-2267D01*
X-50015Y-2319D01*
X-50088Y-2374D01*
X-50160Y-2432D01*
X-50229Y-2492D01*
X-50295Y-2556D01*
X-50359Y-2622D01*
X-50419Y-2691D01*
X-50477Y-2763D01*
X-50532Y-2836D01*
X-50584Y-2912D01*
X-50633Y-2990D01*
X-50678Y-3070D01*
X-50720Y-3152D01*
X-50759Y-3235D01*
X-50794Y-3320D01*
X-50826Y-3406D01*
X-50854Y-3494D01*
X-50878Y-3582D01*
X-50899Y-3672D01*
X-50916Y-3762D01*
X-50929Y-3853D01*
X-50938Y-3944D01*
X-50944Y-4036D01*
X-50946Y-4128D01*
X-48723Y-1905D02*
X-48617Y-1907D01*
X-48512Y-1913D01*
X-48407Y-1923D01*
X-48302Y-1936D01*
X-48198Y-1954D01*
X-48095Y-1975D01*
X-47992Y-2000D01*
X-47890Y-2029D01*
X-47790Y-2062D01*
X-47691Y-2098D01*
X-47593Y-2138D01*
X-47497Y-2182D01*
X-47402Y-2229D01*
X-47310Y-2279D01*
X-47219Y-2333D01*
X-47130Y-2391D01*
X-47044Y-2451D01*
X-46960Y-2515D01*
X-46878Y-2581D01*
X-46798Y-2651D01*
X-46722Y-2724D01*
X-46648Y-2799D01*
X-46577Y-2877D01*
X-46509Y-2958D01*
X-46443Y-3041D01*
X-46381Y-3127D01*
X-46323Y-3214D01*
X-46267Y-3304D01*
X-46215Y-3396D01*
X-46166Y-3490D01*
X-46121Y-3585D01*
X-46079Y-3682D01*
X-46041Y-3781D01*
X-46007Y-3880D01*
X-50205Y-5857D02*
X-50274Y-5788D01*
X-50340Y-5718D01*
X-50403Y-5644D01*
X-50462Y-5568D01*
X-50519Y-5490D01*
X-50573Y-5410D01*
X-50623Y-5327D01*
X-50670Y-5243D01*
X-50713Y-5156D01*
X-50753Y-5068D01*
X-50789Y-4979D01*
X-50822Y-4888D01*
X-50851Y-4796D01*
X-50876Y-4702D01*
X-50897Y-4608D01*
X-50915Y-4513D01*
X-50928Y-4417D01*
X-50938Y-4321D01*
X-50944Y-4225D01*
X-50946Y-4128D01*
X-50205Y-5856D02*
X-46007Y-10795D01*
X-50946Y-10795D01*
X213995Y-97595D02*
X213995Y-99571D01*
X213997Y-99657D01*
X214003Y-99743D01*
X214012Y-99829D01*
X214025Y-99914D01*
X214042Y-99999D01*
X214062Y-100082D01*
X214086Y-100165D01*
X214114Y-100247D01*
X214145Y-100327D01*
X214180Y-100406D01*
X214218Y-100483D01*
X214260Y-100559D01*
X214304Y-100633D01*
X214352Y-100704D01*
X214403Y-100774D01*
X214457Y-100841D01*
X214514Y-100906D01*
X214574Y-100968D01*
X214636Y-101028D01*
X214701Y-101085D01*
X214768Y-101139D01*
X214838Y-101190D01*
X214909Y-101238D01*
X214983Y-101282D01*
X215059Y-101324D01*
X215136Y-101362D01*
X215215Y-101397D01*
X215295Y-101428D01*
X215377Y-101456D01*
X215460Y-101480D01*
X215543Y-101500D01*
X215628Y-101517D01*
X215713Y-101530D01*
X215799Y-101539D01*
X215885Y-101545D01*
X215971Y-101547D01*
X215971Y-101546D02*
X220909Y-101546D01*
X220909Y-101547D02*
X220998Y-101545D01*
X221086Y-101539D01*
X221174Y-101529D01*
X221262Y-101515D01*
X221349Y-101497D01*
X221435Y-101476D01*
X221520Y-101450D01*
X221603Y-101421D01*
X221686Y-101388D01*
X221766Y-101351D01*
X221845Y-101311D01*
X221922Y-101267D01*
X221998Y-101220D01*
X222070Y-101170D01*
X222141Y-101116D01*
X222209Y-101059D01*
X222275Y-100999D01*
X222337Y-100937D01*
X222397Y-100871D01*
X222454Y-100803D01*
X222508Y-100732D01*
X222558Y-100660D01*
X222605Y-100585D01*
X222649Y-100507D01*
X222689Y-100428D01*
X222726Y-100348D01*
X222759Y-100265D01*
X222788Y-100182D01*
X222814Y-100097D01*
X222835Y-100011D01*
X222853Y-99924D01*
X222867Y-99836D01*
X222877Y-99748D01*
X222883Y-99660D01*
X222885Y-99571D01*
X222885Y-97595D01*
X213995Y-93892D02*
X213995Y-91423D01*
X213997Y-91325D01*
X214003Y-91227D01*
X214013Y-91129D01*
X214026Y-91032D01*
X214044Y-90935D01*
X214065Y-90839D01*
X214090Y-90745D01*
X214119Y-90651D01*
X214151Y-90558D01*
X214188Y-90467D01*
X214227Y-90377D01*
X214271Y-90289D01*
X214318Y-90203D01*
X214368Y-90118D01*
X214421Y-90036D01*
X214478Y-89956D01*
X214538Y-89878D01*
X214601Y-89803D01*
X214667Y-89730D01*
X214736Y-89660D01*
X214807Y-89593D01*
X214881Y-89528D01*
X214958Y-89467D01*
X215037Y-89408D01*
X215118Y-89353D01*
X215201Y-89301D01*
X215287Y-89253D01*
X215374Y-89208D01*
X215463Y-89166D01*
X215553Y-89128D01*
X215645Y-89094D01*
X215738Y-89063D01*
X215833Y-89036D01*
X215928Y-89013D01*
X216025Y-88993D01*
X216121Y-88978D01*
X216219Y-88966D01*
X216317Y-88958D01*
X216415Y-88954D01*
X216513Y-88954D01*
X216611Y-88958D01*
X216709Y-88966D01*
X216807Y-88978D01*
X216903Y-88993D01*
X217000Y-89013D01*
X217095Y-89036D01*
X217190Y-89063D01*
X217283Y-89094D01*
X217375Y-89128D01*
X217465Y-89166D01*
X217554Y-89208D01*
X217641Y-89253D01*
X217727Y-89301D01*
X217810Y-89353D01*
X217891Y-89408D01*
X217970Y-89467D01*
X218047Y-89528D01*
X218121Y-89593D01*
X218192Y-89660D01*
X218261Y-89730D01*
X218327Y-89803D01*
X218390Y-89878D01*
X218450Y-89956D01*
X218507Y-90036D01*
X218560Y-90118D01*
X218610Y-90203D01*
X218657Y-90289D01*
X218701Y-90377D01*
X218740Y-90467D01*
X218777Y-90558D01*
X218809Y-90651D01*
X218838Y-90745D01*
X218863Y-90839D01*
X218884Y-90935D01*
X218902Y-91032D01*
X218915Y-91129D01*
X218925Y-91227D01*
X218931Y-91325D01*
X218933Y-91423D01*
X222885Y-90929D02*
X222885Y-93892D01*
X222885Y-90929D02*
X222883Y-90842D01*
X222877Y-90754D01*
X222868Y-90667D01*
X222854Y-90581D01*
X222837Y-90495D01*
X222816Y-90411D01*
X222791Y-90327D01*
X222762Y-90244D01*
X222730Y-90163D01*
X222695Y-90083D01*
X222656Y-90005D01*
X222613Y-89928D01*
X222567Y-89854D01*
X222518Y-89782D01*
X222466Y-89712D01*
X222410Y-89644D01*
X222352Y-89579D01*
X222291Y-89516D01*
X222227Y-89457D01*
X222160Y-89400D01*
X222092Y-89346D01*
X222020Y-89295D01*
X221947Y-89248D01*
X221872Y-89203D01*
X221794Y-89162D01*
X221715Y-89125D01*
X221635Y-89091D01*
X221553Y-89061D01*
X221470Y-89034D01*
X221385Y-89011D01*
X221300Y-88992D01*
X221214Y-88977D01*
X221127Y-88965D01*
X221040Y-88957D01*
X220953Y-88953D01*
X220865Y-88953D01*
X220778Y-88957D01*
X220691Y-88965D01*
X220604Y-88977D01*
X220518Y-88992D01*
X220433Y-89011D01*
X220348Y-89034D01*
X220265Y-89061D01*
X220183Y-89091D01*
X220103Y-89125D01*
X220024Y-89162D01*
X219946Y-89203D01*
X219871Y-89248D01*
X219798Y-89295D01*
X219726Y-89346D01*
X219658Y-89400D01*
X219591Y-89457D01*
X219527Y-89516D01*
X219466Y-89579D01*
X219408Y-89644D01*
X219352Y-89712D01*
X219300Y-89782D01*
X219251Y-89854D01*
X219205Y-89928D01*
X219162Y-90005D01*
X219123Y-90083D01*
X219088Y-90163D01*
X219056Y-90244D01*
X219027Y-90327D01*
X219002Y-90411D01*
X218981Y-90495D01*
X218964Y-90581D01*
X218950Y-90667D01*
X218941Y-90754D01*
X218935Y-90842D01*
X218933Y-90929D01*
X218934Y-90929D02*
X218934Y-92905D01*
X213995Y-61471D02*
X213995Y-59495D01*
X213995Y-61471D02*
X213997Y-61557D01*
X214003Y-61643D01*
X214012Y-61729D01*
X214025Y-61814D01*
X214042Y-61899D01*
X214062Y-61982D01*
X214086Y-62065D01*
X214114Y-62147D01*
X214145Y-62227D01*
X214180Y-62306D01*
X214218Y-62383D01*
X214260Y-62459D01*
X214304Y-62533D01*
X214352Y-62604D01*
X214403Y-62674D01*
X214457Y-62741D01*
X214514Y-62806D01*
X214574Y-62868D01*
X214636Y-62928D01*
X214701Y-62985D01*
X214768Y-63039D01*
X214838Y-63090D01*
X214909Y-63138D01*
X214983Y-63182D01*
X215059Y-63224D01*
X215136Y-63262D01*
X215215Y-63297D01*
X215295Y-63328D01*
X215377Y-63356D01*
X215460Y-63380D01*
X215543Y-63400D01*
X215628Y-63417D01*
X215713Y-63430D01*
X215799Y-63439D01*
X215885Y-63445D01*
X215971Y-63447D01*
X215971Y-63446D02*
X220909Y-63446D01*
X220909Y-63447D02*
X220998Y-63445D01*
X221086Y-63439D01*
X221174Y-63429D01*
X221262Y-63415D01*
X221349Y-63397D01*
X221435Y-63376D01*
X221520Y-63350D01*
X221603Y-63321D01*
X221686Y-63288D01*
X221766Y-63251D01*
X221845Y-63211D01*
X221922Y-63167D01*
X221998Y-63120D01*
X222070Y-63070D01*
X222141Y-63016D01*
X222209Y-62959D01*
X222275Y-62899D01*
X222337Y-62837D01*
X222397Y-62771D01*
X222454Y-62703D01*
X222508Y-62632D01*
X222558Y-62560D01*
X222605Y-62485D01*
X222649Y-62407D01*
X222689Y-62328D01*
X222726Y-62248D01*
X222759Y-62165D01*
X222788Y-62082D01*
X222814Y-61997D01*
X222835Y-61911D01*
X222853Y-61824D01*
X222867Y-61736D01*
X222877Y-61648D01*
X222883Y-61560D01*
X222885Y-61471D01*
X222885Y-59495D01*
X222885Y-53817D02*
X215971Y-55792D01*
X215971Y-50854D01*
X217946Y-52335D02*
X213995Y-52335D01*
X42421Y-123825D02*
X40445Y-123825D01*
X42421Y-123825D02*
X42507Y-123823D01*
X42593Y-123817D01*
X42679Y-123808D01*
X42764Y-123795D01*
X42849Y-123778D01*
X42932Y-123758D01*
X43015Y-123734D01*
X43097Y-123706D01*
X43177Y-123675D01*
X43256Y-123640D01*
X43333Y-123602D01*
X43409Y-123560D01*
X43483Y-123516D01*
X43554Y-123468D01*
X43624Y-123417D01*
X43691Y-123363D01*
X43756Y-123306D01*
X43818Y-123246D01*
X43878Y-123184D01*
X43935Y-123119D01*
X43989Y-123052D01*
X44040Y-122982D01*
X44088Y-122911D01*
X44132Y-122837D01*
X44174Y-122761D01*
X44212Y-122684D01*
X44247Y-122605D01*
X44278Y-122525D01*
X44306Y-122443D01*
X44330Y-122360D01*
X44350Y-122277D01*
X44367Y-122192D01*
X44380Y-122107D01*
X44389Y-122021D01*
X44395Y-121935D01*
X44397Y-121849D01*
X44396Y-121849D02*
X44396Y-116911D01*
X44397Y-116911D02*
X44395Y-116822D01*
X44389Y-116734D01*
X44379Y-116646D01*
X44365Y-116558D01*
X44347Y-116471D01*
X44326Y-116385D01*
X44300Y-116300D01*
X44271Y-116217D01*
X44238Y-116134D01*
X44201Y-116054D01*
X44161Y-115975D01*
X44117Y-115898D01*
X44070Y-115822D01*
X44020Y-115750D01*
X43966Y-115679D01*
X43909Y-115611D01*
X43849Y-115545D01*
X43787Y-115483D01*
X43721Y-115423D01*
X43653Y-115366D01*
X43582Y-115312D01*
X43510Y-115262D01*
X43435Y-115215D01*
X43357Y-115171D01*
X43278Y-115131D01*
X43198Y-115094D01*
X43115Y-115061D01*
X43032Y-115032D01*
X42947Y-115006D01*
X42861Y-114985D01*
X42774Y-114967D01*
X42686Y-114953D01*
X42598Y-114943D01*
X42510Y-114937D01*
X42421Y-114935D01*
X40445Y-114935D01*
X36742Y-123825D02*
X33779Y-123825D01*
X33690Y-123823D01*
X33602Y-123817D01*
X33514Y-123807D01*
X33426Y-123793D01*
X33339Y-123775D01*
X33253Y-123754D01*
X33168Y-123728D01*
X33085Y-123699D01*
X33002Y-123666D01*
X32922Y-123629D01*
X32843Y-123589D01*
X32766Y-123545D01*
X32690Y-123498D01*
X32618Y-123448D01*
X32547Y-123394D01*
X32479Y-123337D01*
X32413Y-123277D01*
X32351Y-123215D01*
X32291Y-123149D01*
X32234Y-123081D01*
X32180Y-123010D01*
X32130Y-122938D01*
X32083Y-122863D01*
X32039Y-122785D01*
X31999Y-122706D01*
X31962Y-122626D01*
X31929Y-122543D01*
X31900Y-122460D01*
X31874Y-122375D01*
X31853Y-122289D01*
X31835Y-122202D01*
X31821Y-122114D01*
X31811Y-122026D01*
X31805Y-121938D01*
X31803Y-121849D01*
X31804Y-121849D02*
X31804Y-120862D01*
X31803Y-120862D02*
X31805Y-120776D01*
X31811Y-120690D01*
X31820Y-120604D01*
X31833Y-120519D01*
X31850Y-120434D01*
X31870Y-120351D01*
X31894Y-120268D01*
X31922Y-120186D01*
X31953Y-120106D01*
X31988Y-120027D01*
X32026Y-119950D01*
X32068Y-119874D01*
X32112Y-119800D01*
X32160Y-119729D01*
X32211Y-119659D01*
X32265Y-119592D01*
X32322Y-119527D01*
X32382Y-119465D01*
X32444Y-119405D01*
X32509Y-119348D01*
X32576Y-119294D01*
X32646Y-119243D01*
X32717Y-119195D01*
X32791Y-119151D01*
X32867Y-119109D01*
X32944Y-119071D01*
X33023Y-119036D01*
X33103Y-119005D01*
X33185Y-118977D01*
X33268Y-118953D01*
X33351Y-118933D01*
X33436Y-118916D01*
X33521Y-118903D01*
X33607Y-118894D01*
X33693Y-118888D01*
X33779Y-118886D01*
X36742Y-118886D01*
X36742Y-114935D01*
X31804Y-114935D01*
X-275079Y19685D02*
X-277055Y19685D01*
X-275079Y19685D02*
X-274993Y19687D01*
X-274907Y19693D01*
X-274821Y19702D01*
X-274736Y19715D01*
X-274651Y19732D01*
X-274568Y19752D01*
X-274485Y19776D01*
X-274403Y19804D01*
X-274323Y19835D01*
X-274244Y19870D01*
X-274167Y19908D01*
X-274091Y19950D01*
X-274017Y19994D01*
X-273946Y20042D01*
X-273876Y20093D01*
X-273809Y20147D01*
X-273744Y20204D01*
X-273682Y20264D01*
X-273622Y20326D01*
X-273565Y20391D01*
X-273511Y20458D01*
X-273460Y20528D01*
X-273412Y20599D01*
X-273368Y20673D01*
X-273326Y20749D01*
X-273288Y20826D01*
X-273253Y20905D01*
X-273222Y20985D01*
X-273194Y21067D01*
X-273170Y21150D01*
X-273150Y21233D01*
X-273133Y21318D01*
X-273120Y21403D01*
X-273111Y21489D01*
X-273105Y21575D01*
X-273103Y21661D01*
X-273104Y21661D02*
X-273104Y26599D01*
X-273103Y26599D02*
X-273105Y26688D01*
X-273111Y26776D01*
X-273121Y26864D01*
X-273135Y26952D01*
X-273153Y27039D01*
X-273174Y27125D01*
X-273200Y27210D01*
X-273229Y27293D01*
X-273262Y27376D01*
X-273299Y27456D01*
X-273339Y27535D01*
X-273383Y27612D01*
X-273430Y27688D01*
X-273480Y27760D01*
X-273534Y27831D01*
X-273591Y27899D01*
X-273651Y27965D01*
X-273713Y28027D01*
X-273779Y28087D01*
X-273847Y28144D01*
X-273918Y28198D01*
X-273990Y28248D01*
X-274065Y28295D01*
X-274143Y28339D01*
X-274222Y28379D01*
X-274302Y28416D01*
X-274385Y28449D01*
X-274468Y28478D01*
X-274553Y28504D01*
X-274639Y28525D01*
X-274726Y28543D01*
X-274814Y28557D01*
X-274902Y28567D01*
X-274990Y28573D01*
X-275079Y28575D01*
X-277055Y28575D01*
X-280758Y24624D02*
X-283721Y24624D01*
X-283807Y24622D01*
X-283893Y24616D01*
X-283979Y24607D01*
X-284064Y24594D01*
X-284149Y24577D01*
X-284232Y24557D01*
X-284315Y24533D01*
X-284397Y24505D01*
X-284477Y24474D01*
X-284556Y24439D01*
X-284633Y24401D01*
X-284709Y24359D01*
X-284783Y24315D01*
X-284854Y24267D01*
X-284924Y24216D01*
X-284991Y24162D01*
X-285056Y24105D01*
X-285118Y24045D01*
X-285178Y23983D01*
X-285235Y23918D01*
X-285289Y23851D01*
X-285340Y23781D01*
X-285388Y23710D01*
X-285432Y23636D01*
X-285474Y23560D01*
X-285512Y23483D01*
X-285547Y23404D01*
X-285578Y23324D01*
X-285606Y23242D01*
X-285630Y23159D01*
X-285650Y23076D01*
X-285667Y22991D01*
X-285680Y22906D01*
X-285689Y22820D01*
X-285695Y22734D01*
X-285697Y22648D01*
X-285696Y22648D02*
X-285696Y22154D01*
X-285694Y22056D01*
X-285688Y21958D01*
X-285678Y21860D01*
X-285665Y21763D01*
X-285647Y21666D01*
X-285626Y21570D01*
X-285601Y21476D01*
X-285572Y21382D01*
X-285540Y21289D01*
X-285503Y21198D01*
X-285464Y21108D01*
X-285420Y21020D01*
X-285373Y20934D01*
X-285323Y20849D01*
X-285270Y20767D01*
X-285213Y20687D01*
X-285153Y20609D01*
X-285090Y20534D01*
X-285024Y20461D01*
X-284955Y20391D01*
X-284884Y20324D01*
X-284810Y20259D01*
X-284733Y20198D01*
X-284654Y20139D01*
X-284573Y20084D01*
X-284490Y20032D01*
X-284404Y19984D01*
X-284317Y19939D01*
X-284228Y19897D01*
X-284138Y19859D01*
X-284046Y19825D01*
X-283953Y19794D01*
X-283858Y19767D01*
X-283763Y19744D01*
X-283666Y19724D01*
X-283570Y19709D01*
X-283472Y19697D01*
X-283374Y19689D01*
X-283276Y19685D01*
X-283178Y19685D01*
X-283080Y19689D01*
X-282982Y19697D01*
X-282884Y19709D01*
X-282788Y19724D01*
X-282691Y19744D01*
X-282596Y19767D01*
X-282501Y19794D01*
X-282408Y19825D01*
X-282316Y19859D01*
X-282226Y19897D01*
X-282137Y19939D01*
X-282050Y19984D01*
X-281964Y20032D01*
X-281881Y20084D01*
X-281800Y20139D01*
X-281721Y20198D01*
X-281644Y20259D01*
X-281570Y20324D01*
X-281499Y20391D01*
X-281430Y20461D01*
X-281364Y20534D01*
X-281301Y20609D01*
X-281241Y20687D01*
X-281184Y20767D01*
X-281131Y20849D01*
X-281081Y20934D01*
X-281034Y21020D01*
X-280990Y21108D01*
X-280951Y21198D01*
X-280914Y21289D01*
X-280882Y21382D01*
X-280853Y21476D01*
X-280828Y21570D01*
X-280807Y21666D01*
X-280789Y21763D01*
X-280776Y21860D01*
X-280766Y21958D01*
X-280760Y22056D01*
X-280758Y22154D01*
X-280758Y24624D01*
X-280760Y24748D01*
X-280766Y24872D01*
X-280776Y24996D01*
X-280789Y25119D01*
X-280807Y25242D01*
X-280828Y25364D01*
X-280853Y25486D01*
X-280882Y25607D01*
X-280915Y25726D01*
X-280951Y25845D01*
X-280992Y25962D01*
X-281035Y26078D01*
X-281083Y26193D01*
X-281134Y26306D01*
X-281189Y26418D01*
X-281247Y26527D01*
X-281308Y26635D01*
X-281373Y26741D01*
X-281441Y26845D01*
X-281513Y26946D01*
X-281587Y27046D01*
X-281665Y27142D01*
X-281745Y27237D01*
X-281829Y27329D01*
X-281915Y27418D01*
X-282004Y27504D01*
X-282096Y27588D01*
X-282191Y27668D01*
X-282287Y27746D01*
X-282387Y27820D01*
X-282488Y27892D01*
X-282592Y27960D01*
X-282698Y28025D01*
X-282806Y28086D01*
X-282915Y28144D01*
X-283027Y28199D01*
X-283140Y28250D01*
X-283255Y28298D01*
X-283371Y28341D01*
X-283488Y28382D01*
X-283607Y28418D01*
X-283726Y28451D01*
X-283847Y28480D01*
X-283969Y28505D01*
X-284091Y28526D01*
X-284214Y28544D01*
X-284337Y28557D01*
X-284461Y28567D01*
X-284585Y28573D01*
X-284709Y28575D01*
X-92905Y45085D02*
X-90929Y45085D01*
X-90843Y45087D01*
X-90757Y45093D01*
X-90671Y45102D01*
X-90586Y45115D01*
X-90501Y45132D01*
X-90418Y45152D01*
X-90335Y45176D01*
X-90253Y45204D01*
X-90173Y45235D01*
X-90094Y45270D01*
X-90017Y45308D01*
X-89941Y45350D01*
X-89867Y45394D01*
X-89796Y45442D01*
X-89726Y45493D01*
X-89659Y45547D01*
X-89594Y45604D01*
X-89532Y45664D01*
X-89472Y45726D01*
X-89415Y45791D01*
X-89361Y45858D01*
X-89310Y45928D01*
X-89262Y45999D01*
X-89218Y46073D01*
X-89176Y46149D01*
X-89138Y46226D01*
X-89103Y46305D01*
X-89072Y46385D01*
X-89044Y46467D01*
X-89020Y46550D01*
X-89000Y46633D01*
X-88983Y46718D01*
X-88970Y46803D01*
X-88961Y46889D01*
X-88955Y46975D01*
X-88953Y47061D01*
X-88954Y47061D02*
X-88954Y51999D01*
X-88953Y51999D02*
X-88955Y52088D01*
X-88961Y52176D01*
X-88971Y52264D01*
X-88985Y52352D01*
X-89003Y52439D01*
X-89024Y52525D01*
X-89050Y52610D01*
X-89079Y52693D01*
X-89112Y52776D01*
X-89149Y52856D01*
X-89189Y52935D01*
X-89233Y53012D01*
X-89280Y53088D01*
X-89330Y53160D01*
X-89384Y53231D01*
X-89441Y53299D01*
X-89501Y53365D01*
X-89563Y53427D01*
X-89629Y53487D01*
X-89697Y53544D01*
X-89768Y53598D01*
X-89840Y53648D01*
X-89915Y53695D01*
X-89993Y53739D01*
X-90072Y53779D01*
X-90152Y53816D01*
X-90235Y53849D01*
X-90318Y53878D01*
X-90403Y53904D01*
X-90489Y53925D01*
X-90576Y53943D01*
X-90664Y53957D01*
X-90752Y53967D01*
X-90840Y53973D01*
X-90929Y53975D01*
X-92905Y53975D01*
X-96608Y53975D02*
X-96608Y52987D01*
X-96608Y53975D02*
X-101546Y53975D01*
X-99077Y45085D01*
X-487426Y-171196D02*
X-487426Y-179324D01*
X-487426Y-171196D02*
X-493014Y-171196D01*
X-515874Y-171196D02*
X-515874Y-179324D01*
X-515874Y-171196D02*
X-510286Y-171196D01*
X-523875Y-175824D02*
X-523875Y-179776D01*
X-523875Y-175824D02*
X-523877Y-175726D01*
X-523883Y-175628D01*
X-523893Y-175530D01*
X-523906Y-175433D01*
X-523924Y-175336D01*
X-523945Y-175240D01*
X-523970Y-175146D01*
X-523999Y-175052D01*
X-524031Y-174959D01*
X-524068Y-174868D01*
X-524107Y-174778D01*
X-524151Y-174690D01*
X-524198Y-174604D01*
X-524248Y-174519D01*
X-524301Y-174437D01*
X-524358Y-174357D01*
X-524418Y-174279D01*
X-524481Y-174204D01*
X-524547Y-174131D01*
X-524616Y-174061D01*
X-524687Y-173994D01*
X-524761Y-173929D01*
X-524838Y-173868D01*
X-524917Y-173809D01*
X-524998Y-173754D01*
X-525081Y-173702D01*
X-525167Y-173654D01*
X-525254Y-173609D01*
X-525343Y-173567D01*
X-525433Y-173529D01*
X-525525Y-173495D01*
X-525618Y-173464D01*
X-525713Y-173437D01*
X-525808Y-173414D01*
X-525905Y-173394D01*
X-526001Y-173379D01*
X-526099Y-173367D01*
X-526197Y-173359D01*
X-526295Y-173355D01*
X-526393Y-173355D01*
X-526491Y-173359D01*
X-526589Y-173367D01*
X-526687Y-173379D01*
X-526783Y-173394D01*
X-526880Y-173414D01*
X-526975Y-173437D01*
X-527070Y-173464D01*
X-527163Y-173495D01*
X-527255Y-173529D01*
X-527345Y-173567D01*
X-527434Y-173609D01*
X-527521Y-173654D01*
X-527607Y-173702D01*
X-527690Y-173754D01*
X-527771Y-173809D01*
X-527850Y-173868D01*
X-527927Y-173929D01*
X-528001Y-173994D01*
X-528072Y-174061D01*
X-528141Y-174131D01*
X-528207Y-174204D01*
X-528270Y-174279D01*
X-528330Y-174357D01*
X-528387Y-174437D01*
X-528440Y-174519D01*
X-528490Y-174604D01*
X-528537Y-174690D01*
X-528581Y-174778D01*
X-528620Y-174868D01*
X-528657Y-174959D01*
X-528689Y-175052D01*
X-528718Y-175146D01*
X-528743Y-175240D01*
X-528764Y-175336D01*
X-528782Y-175433D01*
X-528795Y-175530D01*
X-528805Y-175628D01*
X-528811Y-175726D01*
X-528813Y-175824D01*
X-528814Y-175824D02*
X-528814Y-179776D01*
X-528813Y-179776D02*
X-528811Y-179874D01*
X-528805Y-179972D01*
X-528795Y-180070D01*
X-528782Y-180167D01*
X-528764Y-180264D01*
X-528743Y-180360D01*
X-528718Y-180454D01*
X-528689Y-180548D01*
X-528657Y-180641D01*
X-528620Y-180732D01*
X-528581Y-180822D01*
X-528537Y-180910D01*
X-528490Y-180996D01*
X-528440Y-181081D01*
X-528387Y-181163D01*
X-528330Y-181243D01*
X-528270Y-181321D01*
X-528207Y-181396D01*
X-528141Y-181469D01*
X-528072Y-181539D01*
X-528001Y-181606D01*
X-527927Y-181671D01*
X-527850Y-181732D01*
X-527771Y-181791D01*
X-527690Y-181846D01*
X-527607Y-181898D01*
X-527521Y-181946D01*
X-527434Y-181991D01*
X-527345Y-182033D01*
X-527255Y-182071D01*
X-527163Y-182105D01*
X-527070Y-182136D01*
X-526975Y-182163D01*
X-526880Y-182186D01*
X-526783Y-182206D01*
X-526687Y-182221D01*
X-526589Y-182233D01*
X-526491Y-182241D01*
X-526393Y-182245D01*
X-526295Y-182245D01*
X-526197Y-182241D01*
X-526099Y-182233D01*
X-526001Y-182221D01*
X-525905Y-182206D01*
X-525808Y-182186D01*
X-525713Y-182163D01*
X-525618Y-182136D01*
X-525525Y-182105D01*
X-525433Y-182071D01*
X-525343Y-182033D01*
X-525254Y-181991D01*
X-525167Y-181946D01*
X-525081Y-181898D01*
X-524998Y-181846D01*
X-524917Y-181791D01*
X-524838Y-181732D01*
X-524761Y-181671D01*
X-524687Y-181606D01*
X-524616Y-181539D01*
X-524547Y-181469D01*
X-524481Y-181396D01*
X-524418Y-181321D01*
X-524358Y-181243D01*
X-524301Y-181163D01*
X-524248Y-181081D01*
X-524198Y-180996D01*
X-524151Y-180910D01*
X-524107Y-180822D01*
X-524068Y-180732D01*
X-524031Y-180641D01*
X-523999Y-180548D01*
X-523970Y-180454D01*
X-523945Y-180360D01*
X-523924Y-180264D01*
X-523906Y-180167D01*
X-523893Y-180070D01*
X-523883Y-179972D01*
X-523877Y-179874D01*
X-523875Y-179776D01*
X-527826Y-180269D02*
X-529802Y-182245D01*
X-537579Y-175578D02*
X-537577Y-175486D01*
X-537571Y-175394D01*
X-537562Y-175303D01*
X-537549Y-175212D01*
X-537532Y-175122D01*
X-537511Y-175032D01*
X-537487Y-174944D01*
X-537459Y-174856D01*
X-537427Y-174770D01*
X-537392Y-174685D01*
X-537353Y-174602D01*
X-537311Y-174520D01*
X-537266Y-174440D01*
X-537217Y-174362D01*
X-537165Y-174286D01*
X-537110Y-174213D01*
X-537052Y-174141D01*
X-536992Y-174072D01*
X-536928Y-174006D01*
X-536862Y-173942D01*
X-536793Y-173882D01*
X-536721Y-173824D01*
X-536648Y-173769D01*
X-536572Y-173717D01*
X-536494Y-173668D01*
X-536414Y-173623D01*
X-536332Y-173581D01*
X-536249Y-173542D01*
X-536164Y-173507D01*
X-536078Y-173475D01*
X-535990Y-173447D01*
X-535902Y-173423D01*
X-535812Y-173402D01*
X-535722Y-173385D01*
X-535631Y-173372D01*
X-535540Y-173363D01*
X-535448Y-173357D01*
X-535356Y-173355D01*
X-535250Y-173357D01*
X-535145Y-173363D01*
X-535040Y-173373D01*
X-534935Y-173386D01*
X-534831Y-173404D01*
X-534728Y-173425D01*
X-534625Y-173450D01*
X-534523Y-173479D01*
X-534423Y-173512D01*
X-534324Y-173548D01*
X-534226Y-173588D01*
X-534130Y-173632D01*
X-534035Y-173679D01*
X-533943Y-173729D01*
X-533852Y-173783D01*
X-533763Y-173841D01*
X-533677Y-173901D01*
X-533593Y-173965D01*
X-533511Y-174031D01*
X-533431Y-174101D01*
X-533355Y-174174D01*
X-533281Y-174249D01*
X-533210Y-174327D01*
X-533142Y-174408D01*
X-533076Y-174491D01*
X-533014Y-174577D01*
X-532956Y-174664D01*
X-532900Y-174754D01*
X-532848Y-174846D01*
X-532799Y-174940D01*
X-532754Y-175035D01*
X-532712Y-175132D01*
X-532674Y-175231D01*
X-532640Y-175330D01*
X-536838Y-177307D02*
X-536907Y-177238D01*
X-536973Y-177168D01*
X-537036Y-177094D01*
X-537095Y-177018D01*
X-537152Y-176940D01*
X-537206Y-176860D01*
X-537256Y-176777D01*
X-537303Y-176693D01*
X-537346Y-176606D01*
X-537386Y-176518D01*
X-537422Y-176429D01*
X-537455Y-176338D01*
X-537484Y-176246D01*
X-537509Y-176152D01*
X-537530Y-176058D01*
X-537548Y-175963D01*
X-537561Y-175867D01*
X-537571Y-175771D01*
X-537577Y-175675D01*
X-537579Y-175578D01*
X-536838Y-177306D02*
X-532640Y-182245D01*
X-537579Y-182245D01*
X-596900Y-177800D02*
X-596900Y-203200D01*
X-622300Y-203200D01*
X-622300Y-177800D01*
X-596900Y-177800D01*
X-571678Y-190006D02*
X-570196Y-190006D01*
X-571678Y-190006D02*
X-571678Y-194945D01*
X-568715Y-194945D01*
X-568626Y-194943D01*
X-568538Y-194937D01*
X-568450Y-194927D01*
X-568362Y-194913D01*
X-568275Y-194895D01*
X-568189Y-194874D01*
X-568104Y-194848D01*
X-568021Y-194819D01*
X-567938Y-194786D01*
X-567858Y-194749D01*
X-567779Y-194709D01*
X-567702Y-194665D01*
X-567626Y-194618D01*
X-567554Y-194568D01*
X-567483Y-194514D01*
X-567415Y-194457D01*
X-567349Y-194397D01*
X-567287Y-194335D01*
X-567227Y-194269D01*
X-567170Y-194201D01*
X-567116Y-194130D01*
X-567066Y-194058D01*
X-567019Y-193983D01*
X-566975Y-193905D01*
X-566935Y-193826D01*
X-566898Y-193746D01*
X-566865Y-193663D01*
X-566836Y-193580D01*
X-566810Y-193495D01*
X-566789Y-193409D01*
X-566771Y-193322D01*
X-566757Y-193234D01*
X-566747Y-193146D01*
X-566741Y-193058D01*
X-566739Y-192969D01*
X-566739Y-188031D01*
X-566741Y-187942D01*
X-566747Y-187854D01*
X-566757Y-187766D01*
X-566771Y-187678D01*
X-566789Y-187591D01*
X-566810Y-187505D01*
X-566836Y-187420D01*
X-566865Y-187337D01*
X-566898Y-187254D01*
X-566935Y-187174D01*
X-566975Y-187095D01*
X-567019Y-187018D01*
X-567066Y-186942D01*
X-567116Y-186870D01*
X-567170Y-186799D01*
X-567227Y-186731D01*
X-567287Y-186665D01*
X-567349Y-186603D01*
X-567415Y-186543D01*
X-567483Y-186486D01*
X-567554Y-186432D01*
X-567626Y-186382D01*
X-567701Y-186335D01*
X-567779Y-186291D01*
X-567858Y-186251D01*
X-567938Y-186214D01*
X-568021Y-186181D01*
X-568104Y-186152D01*
X-568189Y-186126D01*
X-568275Y-186105D01*
X-568362Y-186087D01*
X-568450Y-186073D01*
X-568538Y-186063D01*
X-568626Y-186057D01*
X-568715Y-186055D01*
X-571678Y-186055D01*
X-576493Y-186055D02*
X-576493Y-194945D01*
X-581431Y-194945D02*
X-576493Y-186055D01*
X-581431Y-186055D02*
X-581431Y-194945D01*
X-586246Y-194945D02*
X-586246Y-186055D01*
X-588716Y-186055D01*
X-588813Y-186057D01*
X-588910Y-186063D01*
X-589006Y-186072D01*
X-589102Y-186085D01*
X-589198Y-186102D01*
X-589292Y-186123D01*
X-589386Y-186148D01*
X-589479Y-186176D01*
X-589571Y-186208D01*
X-589661Y-186243D01*
X-589750Y-186282D01*
X-589837Y-186324D01*
X-589922Y-186370D01*
X-590006Y-186419D01*
X-590088Y-186471D01*
X-590167Y-186527D01*
X-590245Y-186585D01*
X-590319Y-186647D01*
X-590392Y-186711D01*
X-590462Y-186778D01*
X-590529Y-186848D01*
X-590593Y-186921D01*
X-590655Y-186995D01*
X-590713Y-187073D01*
X-590769Y-187152D01*
X-590821Y-187234D01*
X-590870Y-187318D01*
X-590916Y-187403D01*
X-590958Y-187490D01*
X-590997Y-187579D01*
X-591032Y-187669D01*
X-591064Y-187761D01*
X-591092Y-187854D01*
X-591117Y-187948D01*
X-591138Y-188042D01*
X-591155Y-188138D01*
X-591168Y-188234D01*
X-591177Y-188330D01*
X-591183Y-188427D01*
X-591185Y-188524D01*
X-591185Y-192476D01*
X-591183Y-192573D01*
X-591177Y-192670D01*
X-591168Y-192766D01*
X-591155Y-192862D01*
X-591138Y-192958D01*
X-591117Y-193052D01*
X-591092Y-193146D01*
X-591064Y-193239D01*
X-591032Y-193331D01*
X-590997Y-193421D01*
X-590958Y-193510D01*
X-590916Y-193597D01*
X-590870Y-193682D01*
X-590821Y-193766D01*
X-590769Y-193848D01*
X-590713Y-193927D01*
X-590655Y-194005D01*
X-590593Y-194079D01*
X-590529Y-194152D01*
X-590462Y-194222D01*
X-590392Y-194289D01*
X-590319Y-194353D01*
X-590245Y-194415D01*
X-590167Y-194473D01*
X-590088Y-194529D01*
X-590006Y-194581D01*
X-589922Y-194630D01*
X-589837Y-194676D01*
X-589750Y-194718D01*
X-589661Y-194757D01*
X-589571Y-194792D01*
X-589479Y-194824D01*
X-589386Y-194852D01*
X-589292Y-194877D01*
X-589198Y-194898D01*
X-589102Y-194915D01*
X-589006Y-194928D01*
X-588910Y-194937D01*
X-588813Y-194943D01*
X-588716Y-194945D01*
X-586246Y-194945D01*
X-596900Y-177800D02*
X-596900Y-152400D01*
X-596900Y-177800D02*
X-622300Y-177800D01*
X-622300Y-152400D01*
X-596900Y-152400D01*
X-576684Y-160655D02*
X-576684Y-169545D01*
X-576684Y-160655D02*
X-579153Y-160655D01*
X-579251Y-160657D01*
X-579349Y-160663D01*
X-579447Y-160673D01*
X-579544Y-160686D01*
X-579641Y-160704D01*
X-579737Y-160725D01*
X-579831Y-160750D01*
X-579925Y-160779D01*
X-580018Y-160811D01*
X-580109Y-160848D01*
X-580199Y-160887D01*
X-580287Y-160931D01*
X-580373Y-160978D01*
X-580458Y-161028D01*
X-580540Y-161081D01*
X-580620Y-161138D01*
X-580698Y-161198D01*
X-580773Y-161261D01*
X-580846Y-161327D01*
X-580916Y-161396D01*
X-580983Y-161467D01*
X-581048Y-161541D01*
X-581109Y-161618D01*
X-581168Y-161697D01*
X-581223Y-161778D01*
X-581275Y-161861D01*
X-581323Y-161947D01*
X-581368Y-162034D01*
X-581410Y-162123D01*
X-581448Y-162213D01*
X-581482Y-162305D01*
X-581513Y-162398D01*
X-581540Y-162493D01*
X-581563Y-162588D01*
X-581583Y-162685D01*
X-581598Y-162781D01*
X-581610Y-162879D01*
X-581618Y-162977D01*
X-581622Y-163075D01*
X-581622Y-163173D01*
X-581618Y-163271D01*
X-581610Y-163369D01*
X-581598Y-163467D01*
X-581583Y-163563D01*
X-581563Y-163660D01*
X-581540Y-163755D01*
X-581513Y-163850D01*
X-581482Y-163943D01*
X-581448Y-164035D01*
X-581410Y-164125D01*
X-581368Y-164214D01*
X-581323Y-164301D01*
X-581275Y-164387D01*
X-581223Y-164470D01*
X-581168Y-164551D01*
X-581109Y-164630D01*
X-581048Y-164707D01*
X-580983Y-164781D01*
X-580916Y-164852D01*
X-580846Y-164921D01*
X-580773Y-164987D01*
X-580698Y-165050D01*
X-580620Y-165110D01*
X-580540Y-165167D01*
X-580458Y-165220D01*
X-580373Y-165270D01*
X-580287Y-165317D01*
X-580199Y-165361D01*
X-580109Y-165400D01*
X-580018Y-165437D01*
X-579925Y-165469D01*
X-579831Y-165498D01*
X-579737Y-165523D01*
X-579641Y-165544D01*
X-579544Y-165562D01*
X-579447Y-165575D01*
X-579349Y-165585D01*
X-579251Y-165591D01*
X-579153Y-165593D01*
X-579153Y-165594D02*
X-576684Y-165594D01*
X-579647Y-165594D02*
X-581623Y-169545D01*
X-585258Y-169545D02*
X-591185Y-160655D01*
X-585258Y-160655D02*
X-591185Y-169545D01*
X-596900Y-152400D02*
X-596900Y-127000D01*
X-596900Y-152400D02*
X-622300Y-152400D01*
X-622300Y-127000D01*
X-596900Y-127000D01*
X-579687Y-135255D02*
X-579687Y-144145D01*
X-577218Y-135255D02*
X-582157Y-135255D01*
X-591185Y-135255D02*
X-585258Y-144145D01*
X-591185Y-144145D02*
X-585258Y-135255D01*
X622300Y-177800D02*
X622300Y-203200D01*
X596900Y-203200D01*
X596900Y-177800D01*
X622300Y-177800D01*
X587728Y-190006D02*
X586246Y-190006D01*
X586246Y-194945D01*
X589209Y-194945D01*
X589295Y-194943D01*
X589381Y-194937D01*
X589467Y-194928D01*
X589552Y-194915D01*
X589637Y-194898D01*
X589720Y-194878D01*
X589803Y-194854D01*
X589885Y-194826D01*
X589965Y-194795D01*
X590044Y-194760D01*
X590121Y-194722D01*
X590197Y-194680D01*
X590271Y-194636D01*
X590342Y-194588D01*
X590412Y-194537D01*
X590479Y-194483D01*
X590544Y-194426D01*
X590606Y-194366D01*
X590666Y-194304D01*
X590723Y-194239D01*
X590777Y-194172D01*
X590828Y-194102D01*
X590876Y-194031D01*
X590920Y-193957D01*
X590962Y-193881D01*
X591000Y-193804D01*
X591035Y-193725D01*
X591066Y-193645D01*
X591094Y-193563D01*
X591118Y-193480D01*
X591138Y-193397D01*
X591155Y-193312D01*
X591168Y-193227D01*
X591177Y-193141D01*
X591183Y-193055D01*
X591185Y-192969D01*
X591185Y-188031D01*
X591183Y-187942D01*
X591177Y-187854D01*
X591167Y-187766D01*
X591153Y-187678D01*
X591135Y-187591D01*
X591114Y-187505D01*
X591088Y-187420D01*
X591059Y-187337D01*
X591026Y-187254D01*
X590989Y-187174D01*
X590949Y-187095D01*
X590905Y-187018D01*
X590858Y-186942D01*
X590808Y-186870D01*
X590754Y-186799D01*
X590697Y-186731D01*
X590637Y-186665D01*
X590575Y-186603D01*
X590509Y-186543D01*
X590441Y-186486D01*
X590370Y-186432D01*
X590298Y-186382D01*
X590223Y-186335D01*
X590145Y-186291D01*
X590066Y-186251D01*
X589986Y-186214D01*
X589903Y-186181D01*
X589820Y-186152D01*
X589735Y-186126D01*
X589649Y-186105D01*
X589562Y-186087D01*
X589474Y-186073D01*
X589386Y-186063D01*
X589298Y-186057D01*
X589209Y-186055D01*
X586246Y-186055D01*
X581431Y-186055D02*
X581431Y-194945D01*
X576493Y-194945D02*
X581431Y-186055D01*
X576493Y-186055D02*
X576493Y-194945D01*
X571678Y-194945D02*
X571678Y-186055D01*
X569208Y-186055D01*
X569111Y-186057D01*
X569014Y-186063D01*
X568918Y-186072D01*
X568822Y-186085D01*
X568726Y-186102D01*
X568632Y-186123D01*
X568538Y-186148D01*
X568445Y-186176D01*
X568353Y-186208D01*
X568263Y-186243D01*
X568174Y-186282D01*
X568087Y-186324D01*
X568002Y-186370D01*
X567918Y-186419D01*
X567836Y-186471D01*
X567757Y-186527D01*
X567679Y-186585D01*
X567605Y-186647D01*
X567532Y-186711D01*
X567462Y-186778D01*
X567395Y-186848D01*
X567331Y-186921D01*
X567269Y-186995D01*
X567211Y-187073D01*
X567155Y-187152D01*
X567103Y-187234D01*
X567054Y-187318D01*
X567008Y-187403D01*
X566966Y-187490D01*
X566927Y-187579D01*
X566892Y-187669D01*
X566860Y-187761D01*
X566832Y-187854D01*
X566807Y-187948D01*
X566786Y-188042D01*
X566769Y-188138D01*
X566756Y-188234D01*
X566747Y-188330D01*
X566741Y-188427D01*
X566739Y-188524D01*
X566739Y-192476D01*
X566741Y-192573D01*
X566747Y-192670D01*
X566756Y-192766D01*
X566769Y-192862D01*
X566786Y-192958D01*
X566807Y-193052D01*
X566832Y-193146D01*
X566860Y-193239D01*
X566892Y-193331D01*
X566927Y-193421D01*
X566966Y-193510D01*
X567008Y-193597D01*
X567054Y-193682D01*
X567103Y-193766D01*
X567155Y-193848D01*
X567211Y-193927D01*
X567269Y-194005D01*
X567331Y-194079D01*
X567395Y-194152D01*
X567462Y-194222D01*
X567532Y-194289D01*
X567605Y-194353D01*
X567679Y-194415D01*
X567757Y-194473D01*
X567836Y-194529D01*
X567918Y-194581D01*
X568002Y-194630D01*
X568087Y-194676D01*
X568174Y-194718D01*
X568263Y-194757D01*
X568353Y-194792D01*
X568445Y-194824D01*
X568538Y-194852D01*
X568632Y-194877D01*
X568726Y-194898D01*
X568822Y-194915D01*
X568918Y-194928D01*
X569014Y-194937D01*
X569111Y-194943D01*
X569208Y-194945D01*
X571678Y-194945D01*
X622300Y-177800D02*
X622300Y-152400D01*
X622300Y-177800D02*
X596900Y-177800D01*
X596900Y-152400D01*
X622300Y-152400D01*
X588222Y-160655D02*
X591185Y-169545D01*
X585258Y-169545D02*
X588222Y-160655D01*
X585999Y-167323D02*
X590444Y-167323D01*
X581242Y-169545D02*
X581242Y-160655D01*
X578773Y-160655D01*
X578676Y-160657D01*
X578579Y-160663D01*
X578483Y-160672D01*
X578387Y-160685D01*
X578291Y-160702D01*
X578197Y-160723D01*
X578103Y-160748D01*
X578010Y-160776D01*
X577918Y-160808D01*
X577828Y-160843D01*
X577739Y-160882D01*
X577652Y-160924D01*
X577567Y-160970D01*
X577483Y-161019D01*
X577401Y-161071D01*
X577322Y-161127D01*
X577244Y-161185D01*
X577170Y-161247D01*
X577097Y-161311D01*
X577027Y-161378D01*
X576960Y-161448D01*
X576896Y-161521D01*
X576834Y-161595D01*
X576776Y-161673D01*
X576720Y-161752D01*
X576668Y-161834D01*
X576619Y-161918D01*
X576573Y-162003D01*
X576531Y-162090D01*
X576492Y-162179D01*
X576457Y-162269D01*
X576425Y-162361D01*
X576397Y-162454D01*
X576372Y-162548D01*
X576351Y-162642D01*
X576334Y-162738D01*
X576321Y-162834D01*
X576312Y-162930D01*
X576306Y-163027D01*
X576304Y-163124D01*
X576303Y-163124D02*
X576303Y-167076D01*
X576304Y-167076D02*
X576306Y-167173D01*
X576312Y-167270D01*
X576321Y-167366D01*
X576334Y-167462D01*
X576351Y-167558D01*
X576372Y-167652D01*
X576397Y-167746D01*
X576425Y-167839D01*
X576457Y-167931D01*
X576492Y-168021D01*
X576531Y-168110D01*
X576573Y-168197D01*
X576619Y-168282D01*
X576668Y-168366D01*
X576720Y-168448D01*
X576776Y-168527D01*
X576834Y-168605D01*
X576896Y-168679D01*
X576960Y-168752D01*
X577027Y-168822D01*
X577097Y-168889D01*
X577170Y-168953D01*
X577244Y-169015D01*
X577322Y-169073D01*
X577401Y-169129D01*
X577483Y-169181D01*
X577567Y-169230D01*
X577652Y-169276D01*
X577739Y-169318D01*
X577828Y-169357D01*
X577918Y-169392D01*
X578010Y-169424D01*
X578103Y-169452D01*
X578197Y-169477D01*
X578291Y-169498D01*
X578387Y-169515D01*
X578483Y-169528D01*
X578579Y-169537D01*
X578676Y-169543D01*
X578773Y-169545D01*
X581242Y-169545D01*
X38250Y25750D02*
X25250Y25750D01*
X38250Y23250D02*
X38250Y40250D01*
X25250Y40250D02*
X25250Y23250D01*
X25250Y40250D02*
X26750Y40250D01*
X26750Y23250D02*
X25750Y23250D01*
X36750Y23250D02*
X38250Y23250D01*
X37750Y40250D02*
X36750Y40250D01*
X45085Y24556D02*
X53975Y24556D01*
X53975Y27026D01*
X53973Y27123D01*
X53967Y27220D01*
X53958Y27316D01*
X53945Y27412D01*
X53928Y27508D01*
X53907Y27602D01*
X53882Y27696D01*
X53854Y27789D01*
X53822Y27881D01*
X53787Y27971D01*
X53748Y28060D01*
X53706Y28147D01*
X53660Y28232D01*
X53611Y28316D01*
X53559Y28398D01*
X53503Y28477D01*
X53445Y28555D01*
X53383Y28629D01*
X53319Y28702D01*
X53252Y28772D01*
X53182Y28839D01*
X53109Y28903D01*
X53035Y28965D01*
X52957Y29023D01*
X52878Y29079D01*
X52796Y29131D01*
X52712Y29180D01*
X52627Y29226D01*
X52540Y29268D01*
X52451Y29307D01*
X52361Y29342D01*
X52269Y29374D01*
X52176Y29402D01*
X52082Y29427D01*
X51988Y29448D01*
X51892Y29465D01*
X51796Y29478D01*
X51700Y29487D01*
X51603Y29493D01*
X51506Y29495D01*
X47554Y29495D01*
X47457Y29493D01*
X47360Y29487D01*
X47264Y29478D01*
X47168Y29465D01*
X47072Y29448D01*
X46978Y29427D01*
X46884Y29402D01*
X46791Y29374D01*
X46699Y29342D01*
X46609Y29307D01*
X46520Y29268D01*
X46433Y29226D01*
X46348Y29180D01*
X46264Y29131D01*
X46182Y29079D01*
X46103Y29023D01*
X46025Y28965D01*
X45951Y28903D01*
X45878Y28839D01*
X45808Y28772D01*
X45741Y28702D01*
X45677Y28629D01*
X45615Y28555D01*
X45557Y28477D01*
X45501Y28398D01*
X45449Y28316D01*
X45400Y28232D01*
X45354Y28147D01*
X45312Y28060D01*
X45273Y27971D01*
X45238Y27881D01*
X45206Y27789D01*
X45178Y27696D01*
X45153Y27602D01*
X45132Y27508D01*
X45115Y27412D01*
X45102Y27316D01*
X45093Y27220D01*
X45087Y27123D01*
X45085Y27026D01*
X45085Y24556D01*
X51999Y34005D02*
X53975Y36474D01*
X45085Y36474D01*
X45085Y34005D02*
X45085Y38944D01*
M02*
