G04 EAGLE Gerber RS-274X export*
G75*
%MOMM*%
%FSLAX34Y34*%
%LPD*%
%INSoldermask Top*%
%IPPOS*%
%AMOC8*
5,1,8,0,0,1.08239X$1,22.5*%
G01*
%ADD10C,3.403200*%
%ADD11C,1.703200*%
%ADD12C,1.803200*%
%ADD13C,1.311200*%
%ADD14R,1.711200X1.711200*%
%ADD15C,1.711200*%
%ADD16C,1.727200*%
%ADD17C,1.111200*%
%ADD18C,1.411200*%
%ADD19C,0.959600*%


D10*
X645000Y100000D03*
X-645000Y100000D03*
X-645000Y-230000D03*
X645000Y-230000D03*
D11*
X185000Y115000D03*
X165000Y115000D03*
X535000Y115000D03*
X515000Y115000D03*
X-515000Y115000D03*
X-535000Y115000D03*
X-165000Y115000D03*
X-185000Y115000D03*
D12*
X-515000Y-245000D03*
X-535000Y-245000D03*
X535000Y-245000D03*
X515000Y-245000D03*
D10*
X255000Y-225000D03*
X-255000Y-225000D03*
D13*
X-426200Y-76200D03*
X-400800Y-76200D03*
X-375400Y-76200D03*
X-350000Y-76200D03*
X-324600Y-76200D03*
X-299200Y-76200D03*
X-273800Y-76200D03*
X-273800Y76200D03*
X-299200Y76200D03*
X-324600Y76200D03*
X-350000Y76200D03*
X-375400Y76200D03*
X-400800Y76200D03*
X-426200Y76200D03*
X273800Y-76200D03*
X299200Y-76200D03*
X324600Y-76200D03*
X350000Y-76200D03*
X375400Y-76200D03*
X400800Y-76200D03*
X426200Y-76200D03*
X426200Y76200D03*
X400800Y76200D03*
X375400Y76200D03*
X350000Y76200D03*
X324600Y76200D03*
X299200Y76200D03*
X273800Y76200D03*
D14*
X-25400Y111760D03*
D15*
X-25400Y86360D03*
X0Y111760D03*
X0Y86360D03*
X25400Y111760D03*
X25400Y86360D03*
D16*
X-372500Y-202500D03*
X-372500Y-247500D03*
X-307500Y-202500D03*
X-307500Y-247500D03*
X-202500Y-202500D03*
X-202500Y-247500D03*
X-137500Y-202500D03*
X-137500Y-247500D03*
X-32500Y-202500D03*
X-32500Y-247500D03*
X32500Y-202500D03*
X32500Y-247500D03*
X137500Y-202500D03*
X137500Y-247500D03*
X202500Y-202500D03*
X202500Y-247500D03*
X307500Y-202500D03*
X307500Y-247500D03*
X372500Y-202500D03*
X372500Y-247500D03*
D17*
X69088Y-26670D03*
X57912Y-26670D03*
D15*
X-210000Y115000D03*
X-140000Y115000D03*
X-560000Y115000D03*
X-490000Y115000D03*
X140000Y115000D03*
X210000Y115000D03*
X490000Y115000D03*
X560000Y115000D03*
D18*
X-10000Y-114300D03*
X10000Y-114300D03*
D15*
X-490000Y-245000D03*
X-560000Y-245000D03*
D18*
X-450850Y-187800D03*
X-450850Y-167800D03*
D15*
X490000Y-245000D03*
X560000Y-245000D03*
X-609600Y-190500D03*
X-609600Y-165100D03*
X-609600Y-139700D03*
X609600Y-190500D03*
X609600Y-165100D03*
D19*
X-290830Y31750D03*
X-120650Y46990D03*
X-387350Y5080D03*
X-196850Y46990D03*
X128270Y-83820D03*
X20320Y-31750D03*
X88900Y8890D03*
X-386080Y46990D03*
X-412750Y-45720D03*
X-454660Y5080D03*
X113030Y-83820D03*
X-74930Y13970D03*
X-48260Y86360D03*
X163830Y41910D03*
X-309880Y0D03*
X-209550Y0D03*
X-346710Y46990D03*
X-233680Y46990D03*
X95250Y-2540D03*
X-344170Y-5080D03*
X-171450Y0D03*
X-95250Y-101600D03*
X-120650Y-101600D03*
X-146050Y-101600D03*
X-171450Y-101600D03*
X-247650Y-74930D03*
X-196850Y-101600D03*
X-222250Y-101600D03*
X-355600Y-54610D03*
X241300Y54610D03*
X-372110Y-5080D03*
X-358140Y-5080D03*
X257810Y76200D03*
X-335280Y-45720D03*
X124460Y-17780D03*
X215900Y-38100D03*
X97790Y-52070D03*
X-31750Y-107950D03*
X128270Y-52070D03*
X181610Y-38100D03*
X161290Y-27940D03*
X144780Y-83820D03*
X-330200Y-5080D03*
X-152400Y0D03*
X16510Y0D03*
X132080Y-7620D03*
X220980Y-25400D03*
X12700Y44450D03*
X-217170Y63500D03*
X228600Y63500D03*
X57150Y-96520D03*
X19050Y-86360D03*
X234680Y-3810D03*
X96520Y-100330D03*
X-469900Y-190500D03*
X91440Y-168910D03*
X78740Y-168910D03*
X66040Y-168910D03*
M02*
