M48
;GenerationSoftware,Autodesk,EAGLE,9.6.0*%
;CreationDate,2020-07-27T13:40:44Z*%
FMAT,2
ICI,OFF
METRIC,TZ,000.000
T9C0.350
T8C0.400
T7C0.600
T6C0.700
T5C1.000
T4C1.016
T3C1.500
T2C1.600
T1C3.200
%
G90
M71
T1
X25500Y-22500
X-64500Y-23000
X-64500Y10000
X64500Y10000
X-25500Y-22500
X64500Y-23000
T2
X51500Y-24500
X-51500Y-24500
X-53500Y-24500
X53500Y-24500
T3
X-51500Y11500
X-53500Y11500
X-16500Y11500
X-18500Y11500
X51500Y11500
X16500Y11500
X18500Y11500
X53500Y11500
T4
X13750Y-20250
X3250Y-24750
X-3250Y-24750
X-3250Y-20250
X-13750Y-24750
X-13750Y-20250
X-20250Y-24750
X-20250Y-20250
X-30750Y-24750
X-37250Y-24750
X-37250Y-20250
X-30750Y-20250
X37250Y-20250
X37250Y-24750
X3250Y-20250
X30750Y-24750
X30750Y-20250
X20250Y-24750
X20250Y-20250
X13750Y-24750
T5
X60960Y-16510
X60960Y-19050
X-60960Y-13970
X-60960Y-16510
X-60960Y-19050
X56000Y-24500
X49000Y-24500
X-14000Y11500
X-56000Y-24500
X-49000Y-24500
X-21000Y11500
X2540Y8636
X2540Y11176
X0Y8636
X0Y11176
X-2540Y8636
X56000Y11500
X-56000Y11500
X-49000Y11500
X14000Y11500
X21000Y11500
X49000Y11500
X-2540Y11176
T6
X-45085Y-16780
X-45085Y-18780
X-1000Y-11430
X1000Y-11430
T7
X35000Y-7620
X37540Y-7620
X42620Y-7620
X42620Y7620
X40080Y7620
X37540Y7620
X35000Y7620
X32460Y7620
X29920Y7620
X27380Y7620
X-42620Y-7620
X40080Y-7620
X-40080Y-7620
X-37540Y-7620
X-35000Y-7620
X-32460Y-7620
X-29920Y-7620
X-27380Y-7620
X-27380Y7620
X-29920Y7620
X-32460Y7620
X-35000Y7620
X-37540Y7620
X-40080Y7620
X-42620Y7620
X27380Y-7620
X29920Y-7620
X32460Y-7620
T8
X6909Y-2667
X5791Y-2667
T9
X-12065Y4699
X-38735Y508
X-19685Y4699
X12827Y-8382
X2032Y-3175
X8890Y889
X-38608Y4699
X-41275Y-4572
X-45466Y508
X6604Y-16891
X7874Y-16891
X9144Y-16891
X-46990Y-19050
X9652Y-10033
X23468Y-381
X1905Y-8636
X5715Y-9652
X22860Y6350
X-21717Y6350
X1270Y4445
X22098Y-2540
X13208Y-762
X-15240Y0
X-33020Y-508
X14478Y-8382
X16129Y-2794
X18161Y-3810
X12827Y-5207
X1651Y0
X9779Y-5207
X21590Y-3810
X12446Y-1778
X-33528Y-4572
X25781Y7620
X-35814Y-508
X-3175Y-10795
X-29083Y3175
X-37211Y-508
X-34417Y-508
X24130Y5461
X-35560Y-5461
X-22225Y-10160
X-19685Y-10160
X-24765Y-7493
X-17145Y-10160
X-14605Y-10160
X-12065Y-10160
X-9525Y-10160
X-17145Y0
X9525Y-254
X-23368Y4699
X-34671Y4699
X-20955Y0
X-30988Y0
X16383Y4191
X-4826Y8636
X-7493Y1397
X11303Y-8382
M30